<svg id="artist-palette" width="24" height="25" viewBox="0 0 24 25" fill="none" xmlns="http://www.w3.org/2000/svg">
<path d="M14.5074 4.12252C8.7811 1.1019 3.5686 3.2544 1.68985 6.19627C1.07485 7.15815 0.639849 8.90752 0.656724 10.295C0.690474 13.1506 2.2711 16.3325 5.68173 19.5425C9.87798 23.4913 14.1605 23.1463 15.5217 22.8144C17.2355 22.3963 18.3849 22.04 18.2086 20.4425C18.1861 20.2325 18.0061 19.8519 17.7342 19.685C16.8624 19.1563 15.0417 18.8806 14.1849 17.6075C12.9399 15.7531 14.4886 15.6594 15.9717 16.4525C17.5599 17.3019 18.4674 17.8325 20.0611 17.6863C21.2292 17.5794 22.928 16.8744 23.1586 14.9038C23.3649 13.1206 20.7624 7.42252 14.5074 4.12252ZM16.8455 13.8125C16.4067 14.48 15.323 14.2513 14.6124 13.6213C13.9017 12.9913 13.8099 11.9413 14.2711 11.5288C14.7399 11.1106 15.6211 11.2063 16.3317 11.8363C17.0405 12.4681 17.1886 13.2875 16.8455 13.8125Z" fill="#AC5810"/>
<path d="M14.7564 2.41107C9.03011 -0.60955 3.80448 1.7267 1.92573 4.66857C0.0451061 7.61232 0.862606 13.0629 5.92886 17.8311C10.1251 21.7798 14.4076 21.4348 15.7689 21.1029C17.4826 20.6848 18.692 19.8692 17.9382 18.8286C17.4189 18.1104 15.557 17.5686 14.4339 15.8961C13.1889 14.0417 14.7376 13.9479 16.2207 14.7411C17.8089 15.5904 18.7164 16.1211 20.3101 15.9748C21.4782 15.8679 23.2445 14.9642 23.192 13.1379C23.1376 11.3436 21.0114 5.71295 14.7564 2.41107ZM17.3926 12.7292C16.8582 13.3067 15.7201 13.1492 14.8501 12.3804C13.982 11.6098 13.7101 10.5186 14.2445 9.94295C14.7789 9.36545 15.917 9.52295 16.787 10.2917C17.657 11.0604 17.927 12.1536 17.3926 12.7292Z" fill="#F2A259"/>
<path d="M8.92869 16.3737C9.14432 15.8225 10.6781 15.2187 12.0881 16.2219C12.4837 16.5031 12.9787 17.2194 12.9281 18.1194C12.7631 21.0594 7.93869 18.9106 8.92869 16.3737Z" fill="#EEEEEE"/>
<path d="M4.44897 11.3881C4.9421 10.6006 6.14022 10.5106 7.18835 11.1912C8.1221 11.7969 8.9021 13.2875 7.75085 14.2625C7.13397 14.7856 6.0671 14.4612 5.40897 13.9569C4.61022 13.3475 3.91835 12.2356 4.44897 11.3881Z" fill="#2686C6"/>
<path d="M10.813 4.51631C10.9649 3.89194 12.0243 3.78506 12.7743 4.06444C14.0699 4.54819 14.6568 5.83069 14.1787 6.54506C13.4793 7.58944 11.9549 7.23131 11.3774 6.63319C10.3968 5.62069 10.6855 5.03944 10.813 4.51631Z" fill="#FFEE58"/>
<path d="M18.3203 7.57252C19.3591 8.04502 19.4941 8.79315 19.2954 9.33877C19.1716 9.67627 18.9185 10.1394 18.401 10.1806C17.5253 10.2519 17.4035 9.52815 16.7791 9.3294C16.2541 9.16252 16.0403 8.4444 16.2466 7.96252C16.4378 7.51815 16.9966 6.96877 18.3203 7.57252Z" fill="#7CB342"/>
<path d="M12.5569 18.68C12.2982 18.9144 11.4 19.2032 10.26 18.4907C9.8738 18.2488 9.50442 17.8982 9.2963 17.3732C9.13317 16.9607 9.16879 16.5632 9.24192 16.3869C9.45192 15.8788 9.77254 15.785 9.77254 15.785C9.45004 15.7625 8.84067 16.19 8.73942 16.7507C8.70754 16.9269 8.48067 18.0294 9.94129 19.0288C11.1994 19.8913 13.0594 19.8107 12.9375 18.0744C12.8813 18.2882 12.7219 18.5319 12.5569 18.68Z" fill="#B0B0B0"/>
<path d="M8.29901 12.8225C8.26338 13.4919 7.47964 13.8444 7.04276 13.8462C5.80714 13.8481 4.69714 13.0719 4.62026 11.69C4.60714 11.4425 4.72901 11.0844 4.72901 11.0844C4.56589 11.1537 4.33526 11.5062 4.28651 11.705C3.99776 12.8975 5.19964 14.2869 6.46526 14.5681C7.10651 14.7106 7.91463 14.4912 8.20901 13.9175C8.41901 13.5087 8.37776 13.1581 8.29901 12.8225Z" fill="#01579B"/>
<path d="M12.6228 6.63494C11.7828 6.53932 11.3178 5.98994 11.1959 5.86432C10.8622 5.51557 10.6559 5.17619 10.7759 4.67369C10.8134 4.51244 10.9053 4.30619 11.0178 4.18994C10.8809 4.23494 10.6597 4.52932 10.5903 4.68869C10.519 4.84807 10.2603 5.44619 10.8153 6.18307C11.1584 6.64057 11.7565 7.15619 12.6415 7.27994C13.2697 7.36807 13.7197 7.14307 14.0947 6.77744C14.3497 6.52807 14.4622 5.96557 14.3103 5.67494C14.3347 5.88682 13.9465 6.78682 12.6228 6.63494Z" fill="#DF7F14"/>
<path d="M19.532 8.90943C19.4551 8.62631 19.2357 8.33193 19.2132 8.31693C19.3089 8.50068 19.4982 9.05193 19.1007 9.58818C18.9001 9.85818 18.2964 10.1901 17.5839 9.61256C17.3739 9.44193 17.2051 9.27318 16.8264 9.13443C15.8645 8.78006 16.2845 7.80131 16.6182 7.49756C16.3557 7.63443 16.1176 7.88006 16.0182 8.25506C15.8795 8.77818 16.2226 9.32568 16.7439 9.58818C17.3364 9.88631 17.5276 10.4619 18.3395 10.4619C18.3807 10.4619 18.4239 10.4601 18.4707 10.4563C19.0182 10.4094 19.2489 10.1976 19.4157 9.93881C19.6201 9.61631 19.6257 9.25068 19.532 8.90943Z" fill="#558B2F"/>
<path d="M4.84128 5.33562C5.26878 4.91375 6.01316 4.4675 7.10253 5.03562C7.75878 5.37687 8.52191 5.77812 8.17691 7.16562C7.96316 8.02625 6.71066 8.48187 5.66441 7.52375C5.25003 7.145 3.67503 6.48687 4.84128 5.33562Z" fill="#F44336"/>
<path d="M8.42597 6.97997C8.4391 6.65184 8.27035 6.25247 8.21222 6.11747C8.2216 6.31434 8.39222 6.81122 7.61035 7.46934C7.33847 7.69809 6.84535 7.87247 6.30722 7.66059C6.0316 7.55184 5.63597 7.09622 5.35285 6.98184C4.30097 6.55809 4.75472 5.43122 4.90285 5.27747C4.66472 5.44434 4.46222 5.71059 4.38722 6.09872C4.28972 6.60684 4.37972 7.08684 5.07722 7.63622C7.05722 9.19809 7.66472 8.25684 7.88035 8.01684C8.15222 7.72434 8.41097 7.34184 8.42597 6.97997Z" fill="#C62828"/>
<path d="M12.3264 4.12994C12.0508 4.00057 11.2633 4.03807 11.1114 4.69432C11.0195 5.08807 11.3083 5.48744 11.5802 5.44057C11.8895 5.38807 11.7245 4.90619 11.9102 4.76932C12.1933 4.56307 12.7127 4.31182 12.3264 4.12994ZM6.51767 5.08619C6.2458 4.90619 5.37767 4.90432 5.11705 5.56994C4.95955 5.96932 5.20517 6.43244 5.49955 6.42494C5.83517 6.41744 5.67392 6.02182 5.9533 5.77057C6.3058 5.45369 6.8983 5.33744 6.51767 5.08619ZM6.3883 11.0937C6.13142 10.9306 5.37017 10.8668 5.05517 11.4631C4.82455 11.9018 5.14142 12.3856 5.41705 12.3724C5.73017 12.3574 5.62517 11.8587 5.8258 11.7462C6.13142 11.5756 6.7483 11.3224 6.3883 11.0937ZM10.7627 16.0868C10.487 15.9574 9.69955 15.9949 9.54767 16.6512C9.4558 17.0449 9.74455 17.4443 10.0164 17.3974C10.3258 17.3449 10.1608 16.8631 10.3464 16.7262C10.6277 16.5199 11.147 16.2687 10.7627 16.0868ZM17.8277 7.63432C17.5802 7.45807 16.7983 7.35494 16.532 7.97369C16.3727 8.34494 16.5845 8.78932 16.8602 8.79119C17.1733 8.79307 17.0964 8.29057 17.3045 8.18932C17.6177 8.03744 18.1745 7.88182 17.8277 7.63432Z" fill="white"/>
</svg>
