<svg id="books" width="24" height="25" viewBox="0 0 24 25" fill="none" xmlns="http://www.w3.org/2000/svg">
<path d="M22.1304 19.6851L13.5542 23.5626C13.0254 23.8119 12.4742 23.7876 11.9679 23.4951L1.14166 17.9976C0.832283 17.7988 0.740408 17.5082 0.759158 17.3057C0.777908 17.1032 0.824783 16.8838 1.36853 16.7263L2.17103 16.4301L13.031 22.3494L20.7485 19.1957L22.1304 19.6851Z" fill="#01579B"/>
<path d="M13.4509 22.9419C13.2365 23.0425 13.0012 23.0906 12.7644 23.0821C12.5277 23.0736 12.2964 23.0088 12.0897 22.8931L1.52032 17.5681C1.37032 17.4856 1.32532 17.2962 1.41532 17.15C1.64782 16.7656 2.07532 15.5506 1.37032 14.5419L13.3066 20.2887L13.4509 22.9419Z" fill="#F5F5F5"/>
<path d="M21.6727 19.2462L13.4508 22.9419C13.1789 23.06 12.6371 23.27 12.0127 22.85C12.5058 22.8856 12.8527 22.6812 13.0308 22.3494C13.2052 22.0269 13.1527 21.4981 12.9408 21.2C12.8114 21.02 12.4646 20.7331 12.3127 20.5719L21.2058 17.0937C21.9933 16.7694 22.7321 17.255 22.8502 17.8456C22.9814 18.5131 22.1302 19.0587 21.6727 19.2462Z" fill="#94C6D6"/>
<path d="M22.0833 16.805L13.5952 20.5925C13.0608 20.8044 12.4627 20.7763 11.9508 20.5175L1.10581 15.0088C1.00081 14.9563 0.845188 14.8119 0.783313 14.615C0.682063 14.2869 0.809563 13.8744 1.19394 13.7432L12.9464 19.7338L20.9939 16.2894L22.0833 16.805Z" fill="#01579B"/>
<path d="M22.7231 17.3543L21.7988 17.0187L19.8938 17.1293L13.5975 19.9399C13.0631 20.1518 12.465 20.1237 11.9531 19.8649L1.10626 14.3581C0.826881 14.2156 0.886881 13.8012 1.19438 13.7431L9.01126 10.2462C9.23438 10.2049 9.46313 10.2293 9.67126 10.3174L20.8256 15.6349C20.8256 15.6349 22.5975 16.8481 22.7231 17.3543Z" fill="#0091EA"/>
<path d="M19.7866 17.1838C19.7866 17.1838 20.9604 16.7244 21.8829 16.7657C22.8054 16.8069 23.126 17.4538 23.126 17.4538C22.9516 16.6607 22.1322 16.2557 22.1322 16.2557L9.94473 10.1188C9.86035 10.0832 9.5491 10.01 9.07098 10.2069C8.68473 10.3663 7.42285 10.9569 7.42285 10.9569L19.7866 17.1838Z" fill="#616161"/>
<path d="M23.1788 17.6037C23.0907 17.2531 22.8732 16.8781 22.4719 16.6962C21.9432 16.4581 21.1894 16.5199 20.7075 16.7712L19.7869 17.1799V17.8287L20.9513 17.3112C22.0838 16.8068 22.5863 17.5624 22.6294 17.7406C22.8094 18.4662 22.4607 18.8862 21.4313 19.3587L19.7588 20.1124V20.7649L21.6825 19.9081C22.5338 19.5668 23.505 18.9256 23.1788 17.6037Z" fill="#424242"/>
<path d="M6.1893 17.4331L2.95117 12.9575L3.4593 12.7306L7.10242 17.7368L6.1893 17.4331ZM10.3424 19.4956L9.76492 19.0381L19.7868 16.9925V17.3206L18.3824 17.8531L10.3424 19.4956Z" fill="#01579B"/>
<path d="M2.77539 9.1587L15.4335 7.0437L20.9629 13.1318C21.2423 13.4262 21.0904 13.9137 20.6929 13.9943L7.62414 16.6756L2.77539 9.1587Z" fill="#9CCC65"/>
<path d="M20.6929 13.4694L7.7141 16.0982L7.67285 16.7169L20.6929 14.0469C21.0604 13.97 21.2141 13.55 21.0135 13.2538C20.9422 13.3588 20.8335 13.4413 20.6929 13.4694ZM21.3922 16.3063C21.5291 16.5238 21.4054 16.8107 21.1541 16.8613L9.2066 19.2838C8.48848 19.4319 7.78348 18.9613 7.71973 18.23C7.66535 17.6113 8.08348 17.0507 8.69285 16.9232L20.1829 14.3432L21.3922 16.3063Z" fill="#689F38"/>
<path d="M10.423 15.5187L5.66425 8.70874L2.94925 9.42687C2.32112 10.0512 2.5555 11.0769 2.5555 11.0769C2.5555 11.0769 6.71237 17.7481 7.36862 18.6012C8.02487 19.4544 8.983 19.3212 8.983 19.3212L10.6011 18.995L10.4324 15.9762L10.423 15.5187Z" fill="#616161"/>
<path d="M10.423 15.5638L8.13742 16.0363C7.51305 16.1769 7.40055 16.7638 7.40055 16.7638L1.88242 8.85693C1.88242 8.85693 1.0968 9.80756 1.61805 10.6157L7.36867 18.6013C7.9968 19.4957 8.98305 19.3288 8.98305 19.3288L10.6012 19.0026L10.4343 16.0438L10.423 15.5638Z" fill="#424242"/>
<path d="M20.6717 16.0625C20.7298 16.19 20.6548 16.3381 20.5179 16.3662L9.09355 18.71C8.37543 18.8581 7.8673 18.3818 7.89355 17.7331C7.9273 16.9137 8.38668 16.5668 8.99418 16.4412L20.4748 14.0956C20.4748 14.0956 20.0848 14.5343 20.3829 15.3556C20.4842 15.6387 20.5929 15.89 20.6717 16.0625Z" fill="#B9E4EA"/>
<path d="M8.47668 16.1937L3.58105 9.26746" stroke="#424242" stroke-width="0.388313" stroke-miterlimit="10"/>
<path d="M8.86082 13.2406L2.56457 10.0681L2.30957 10.5706L9.58457 14.2775L8.86082 13.2406Z" fill="#424242"/>
<path d="M20.3982 12.5056L19.937 11.9994L12.8438 15.2544L8.86133 13.2838L9.54008 14.255L12.1782 15.6031L14.1432 15.3013L20.3982 12.5056Z" fill="#689F38"/>
<path d="M22.1285 11.2532L13.5542 15.1307C13.0254 15.3801 12.4742 15.3557 11.9679 15.0632L1.14166 9.56568C0.832283 9.36693 0.740408 9.07631 0.759158 8.87381C0.777908 8.67131 0.824783 8.45193 1.36853 8.29443L1.87666 8.10693L12.9992 13.5651L22.031 9.82818L22.1285 11.2532Z" fill="#C62828"/>
<path d="M13.449 14.51C13.2345 14.6106 12.9992 14.6587 12.7625 14.6502C12.5257 14.6417 12.2944 14.5769 12.0877 14.4612L1.51837 9.13624C1.36837 9.05374 1.32337 8.86436 1.41337 8.71811C1.64587 8.33374 2.07337 7.11874 1.36837 6.10999L13.0384 12.0462L13.449 14.51Z" fill="#F5F5F5"/>
<path d="M21.6717 10.8143L13.4498 14.51C13.178 14.6281 12.6361 14.8381 12.0117 14.4181C12.5048 14.4537 12.8517 14.2493 13.0298 13.9175C13.2042 13.595 13.1517 13.0662 12.9398 12.7681C12.8105 12.5881 12.4636 12.3012 12.3117 12.14L21.2048 8.66185C21.9923 8.33747 22.7311 8.8231 22.8492 9.41372C22.9805 10.0812 22.1292 10.6268 21.6717 10.8143Z" fill="#94C6D6"/>
<path d="M22.0834 8.37307L13.5953 12.1606C13.0609 12.3724 12.4628 12.3443 11.9509 12.0856L1.10403 6.57682C0.991534 6.52057 0.822784 6.37619 0.768409 6.17182C0.687784 5.86807 0.792784 5.46869 1.19216 5.31119L11.1315 3.20557L22.0834 8.37307Z" fill="#C62828"/>
<path d="M22.7215 8.92255L21.7971 8.58693L19.8921 8.69755L13.5959 11.5082C13.0615 11.7201 12.4634 11.6919 11.9515 11.4332L1.10464 5.92443C0.825269 5.78193 0.924644 5.40505 1.19277 5.30943L9.01152 1.81443C9.23464 1.77318 9.46339 1.79755 9.67152 1.88568L20.8259 7.20318C20.8259 7.20318 22.5959 8.41443 22.7215 8.92255Z" fill="#F44336"/>
<path d="M19.7867 8.74994C19.7867 8.74994 20.7636 8.40682 21.6861 8.44807C22.6086 8.48932 23.1279 9.01994 23.1279 9.01994C22.9386 8.17244 22.1342 7.82182 22.1342 7.82182L9.94668 1.68494C9.8623 1.64932 9.55105 1.57619 9.07293 1.77307C8.68668 1.93244 7.4248 2.52307 7.4248 2.52307L19.7867 8.74994Z" fill="#616161"/>
<path d="M20.9023 8.34881L8.43164 2.05818L8.84414 1.87256L21.5266 8.22881L20.9023 8.34881Z" fill="#424242"/>
<path d="M23.1768 9.17192C23.0887 8.8213 22.9406 8.48192 22.5225 8.30567C21.9881 8.08067 21.5006 8.0338 20.7056 8.33942L19.785 8.74817V9.39692L20.9493 8.87942C21.54 8.60192 22.41 8.66192 22.6275 9.3088C22.8656 10.0175 22.4587 10.4544 21.4293 10.9269L19.7568 11.6807V12.3332L21.6806 11.4763C22.5337 11.135 23.505 10.4938 23.1768 9.17192Z" fill="#424242"/>
</svg>
