<svg width="32" height="32" viewBox="0 0 32 32" fill="none" xmlns="http://www.w3.org/2000/svg">
<g clip-path="url(#clip0_247_250)">
<g filter="url(#filter0_d_247_250)">
<path fill-rule="evenodd" clip-rule="evenodd" d="M25.204 19.6279C26.9773 20.4413 28.5107 19.5079 27.764 16.9626C27.604 16.3626 26.7773 15.9359 25.9107 15.8559C23.2453 15.5359 22.8453 18.6293 25.204 19.6293M26.1373 18.6293C25.6173 18.4293 24.684 17.4306 25.444 17.1773C27.5507 16.4839 27.484 19.1759 26.1373 18.6293ZM10.1187 28.7839C10.9053 28.2639 10.1187 27.8373 10.1187 27.8373C9.83868 27.8373 9.42534 27.8373 8.69201 27.9573C6.81201 28.1173 3.89468 29.0239 2.61468 28.4639C2.28638 28.2672 2.02148 27.9803 1.85146 27.6374C1.68144 27.2945 1.61345 26.91 1.65558 26.5296C1.69771 26.1492 1.84818 25.7888 2.08911 25.4915C2.33003 25.1941 2.65129 24.9721 3.01468 24.8519C3.80569 24.5774 4.5449 24.1717 5.20134 23.6519C6.32001 22.0399 0.789345 21.5879 1.49468 20.1479C2.20001 18.7079 6.41335 19.1879 6.82668 18.6013C6.89607 18.4937 6.93994 18.3716 6.95494 18.2444C6.96993 18.1173 6.95566 17.9884 6.9132 17.8675C6.87075 17.7467 6.80124 17.6372 6.70998 17.5474C6.61872 17.4576 6.50814 17.3898 6.38668 17.3493C5.45335 16.9359 3.40134 16.9359 2.24134 16.2559C1.08134 15.5759 1.74801 14.9239 1.58801 13.8173C1.57993 13.1867 1.68376 12.5596 1.89468 11.9653L2.56134 11.6986C3.96134 11.2586 8.46534 11.1119 8.91868 10.1386C9.37201 9.16661 8.33201 9.15327 5.89334 8.09994C3.68134 7.13994 1.74935 7.21994 2.28268 4.83594C2.61601 4.43594 2.60268 2.86261 4.33468 3.30261C6.06801 3.74261 7.22668 4.63594 9.89201 4.47594C10.3187 4.47594 10.692 3.59594 9.89201 3.58261C9.09201 3.56927 6.55868 2.39594 3.89468 2.24927C1.50801 2.10261 0.256012 5.87594 1.84135 7.50127C2.53468 8.20794 3.29468 8.34127 6.29334 9.67327C4.44001 10.0466 2.29601 10.0199 1.18935 10.6866C0.0826797 11.3533 0.189344 13.8573 0.149345 15.5373C0.176752 15.9667 0.313683 16.382 0.547083 16.7436C0.780483 17.1051 1.10258 17.4008 1.48268 17.6026C2.53601 18.2026 2.72268 17.8293 1.81601 18.1893C-0.0106564 18.9493 -0.423988 20.5746 0.416012 21.6146C1.30978 22.3676 2.34263 22.938 3.45601 23.2933L2.42935 23.7999C2.00069 23.9747 1.61587 24.2419 1.30233 24.5825C0.988798 24.9231 0.754269 25.3286 0.615467 25.7702C0.476665 26.2118 0.437012 26.6787 0.499332 27.1374C0.561655 27.5961 0.724417 28.0354 0.976013 28.4239C1.84268 29.9306 3.41601 29.8906 5.26668 29.5839C7.12001 29.2773 9.34535 29.2906 10.1187 28.7839Z" fill="#8E5FCF" fill-opacity="0.75"/>
<path fill-rule="evenodd" clip-rule="evenodd" d="M14.8625 4.39585C18.4745 4.84918 19.9532 9.72652 18.3012 12.1518C16.3945 14.8172 20.4199 12.9652 24.6572 13.2185C28.8945 13.4718 31.5345 17.2958 30.0692 19.6532C29.3359 20.9198 26.6692 21.2932 25.1239 21.2932C20.6865 21.3598 19.3132 19.2265 18.1812 19.8265C17.6479 20.1065 17.7279 20.5998 17.9679 21.1598V21.4265C17.8745 21.8398 18.2345 25.7838 15.3012 27.5692C12.3839 28.2492 12.9439 28.1692 12.4639 28.0892C12.5972 27.7825 12.1039 23.3052 12.0905 23.1585C11.8838 19.0376 11.9105 14.9084 12.1705 10.7905C12.2505 9.45718 12.6239 7.89985 12.6239 6.53985C12.6056 6.43462 12.5508 6.33921 12.4691 6.27045C12.3874 6.20168 12.284 6.16397 12.1772 6.16397C12.0704 6.16397 11.967 6.20168 11.8853 6.27045C11.8036 6.33921 11.7488 6.43462 11.7305 6.53985C10.9159 12.0572 10.6345 17.6412 10.8905 23.2118C11.0105 24.7318 10.6639 28.8892 11.3039 29.3158C11.9439 29.7425 13.3972 29.3158 14.0905 29.2492C14.9664 29.2141 15.8156 28.9378 16.5445 28.4508C17.2733 27.9638 17.8536 27.285 18.2212 26.4892C19.027 24.9872 19.4355 23.3041 19.4079 21.5998C21.1676 22.4508 23.1029 22.8756 25.0572 22.8398C31.1879 22.7332 33.1599 19.2398 31.3612 15.9625C30.6723 14.7928 29.7017 13.8142 28.5377 13.1157C27.3737 12.4173 26.0534 12.0213 24.6972 11.9638C22.9088 11.9609 21.124 12.126 19.3665 12.4572C21.0599 9.29852 19.1399 3.96785 14.9559 3.56785H13.4759C13.3425 3.54118 8.53185 4.27585 14.8625 4.39585Z" fill="#8E5FCF" fill-opacity="0.75"/>
</g>
</g>
<defs>
<filter id="filter0_d_247_250" x="-2.00049" y="2.24512" width="36" height="31.5093" filterUnits="userSpaceOnUse" color-interpolation-filters="sRGB">
<feFlood flood-opacity="0" result="BackgroundImageFix"/>
<feColorMatrix in="SourceAlpha" type="matrix" values="0 0 0 0 0 0 0 0 0 0 0 0 0 0 0 0 0 0 127 0" result="hardAlpha"/>
<feOffset dy="2"/>
<feGaussianBlur stdDeviation="1"/>
<feComposite in2="hardAlpha" operator="out"/>
<feColorMatrix type="matrix" values="0 0 0 0 0.555013 0 0 0 0 0.371094 0 0 0 0 0.8125 0 0 0 1 0"/>
<feBlend mode="normal" in2="BackgroundImageFix" result="effect1_dropShadow_247_250"/>
<feBlend mode="normal" in="SourceGraphic" in2="effect1_dropShadow_247_250" result="shape"/>
</filter>
<clipPath id="clip0_247_250">
<rect width="32" height="32" fill="white" transform="matrix(0 1 -1 0 32 0)"/>
</clipPath>
</defs>
</svg>
