<svg width="80" height="80" viewBox="0 0 80 80" fill="none" xmlns="http://www.w3.org/2000/svg">
<g clip-path="url(#clip0_107_624)">
<g filter="url(#filter0_d_107_624)">
<path fill-rule="evenodd" clip-rule="evenodd" d="M63.0098 49.07C67.4431 51.1033 71.2765 48.77 69.4098 42.4066C69.0098 40.9066 66.9431 39.84 64.7765 39.64C58.1131 38.84 57.1131 46.5733 63.0098 49.0733M65.3431 46.5733C64.0431 46.0733 61.7098 43.5766 63.6098 42.9433C68.8765 41.21 68.7098 47.94 65.3431 46.5733ZM25.2965 71.96C27.2631 70.66 25.2965 69.5933 25.2965 69.5933C24.5965 69.5933 23.5631 69.5933 21.7298 69.8933C17.0298 70.2933 9.73645 72.56 6.53645 71.16C5.71571 70.6681 5.05345 69.9509 4.6284 69.0936C4.20335 68.2364 4.03339 67.2751 4.13871 66.3241C4.24403 65.373 4.62021 64.4722 5.22253 63.7287C5.82484 62.9853 6.62797 62.4303 7.53645 62.13C9.51399 61.4436 11.362 60.4294 13.0031 59.13C15.7998 55.1 1.97312 53.97 3.73645 50.37C5.49979 46.77 16.0331 47.97 17.0665 46.5033C17.2399 46.2343 17.3496 45.9291 17.3871 45.6112C17.4246 45.2933 17.3889 44.971 17.2828 44.669C17.1766 44.367 17.0028 44.0932 16.7747 43.8687C16.5466 43.6441 16.2701 43.4747 15.9665 43.3733C13.6331 42.34 8.50312 42.34 5.60312 40.64C2.70312 38.94 4.36978 37.31 3.96979 34.5433C3.94958 32.9668 4.20916 31.3992 4.73645 29.9133L6.40312 29.2466C9.90312 28.1466 21.1631 27.78 22.2964 25.3466C23.4298 22.9166 20.8298 22.8833 14.7331 20.25C9.20312 17.85 4.37312 18.05 5.70645 12.09C6.53978 11.09 6.50645 7.15664 10.8364 8.25664C15.1698 9.35664 18.0665 11.59 24.7298 11.19C25.7965 11.19 26.7298 8.98997 24.7298 8.95664C22.7298 8.92331 16.3965 5.98997 9.73645 5.62331C3.76978 5.25664 0.639786 14.69 4.60312 18.7533C6.33645 20.52 8.23645 20.8533 15.7331 24.1833C11.0998 25.1166 5.73978 25.05 2.97312 26.7166C0.206451 28.3833 0.473114 34.6433 0.373116 38.8433C0.441635 39.917 0.783958 40.9552 1.36746 41.859C1.95097 42.7629 2.7562 43.5022 3.70645 44.0066C6.33978 45.5066 6.80645 44.5733 4.53978 45.4733C-0.026886 47.3733 -1.06021 51.4366 1.03979 54.0366C3.27422 55.9192 5.85632 57.345 8.63978 58.2333L6.07312 59.5C5.00147 59.9369 4.03943 60.6049 3.25559 61.4563C2.47175 62.3078 1.88543 63.3216 1.53842 64.4257C1.19142 65.5297 1.09229 66.6968 1.24809 67.8435C1.40389 68.9903 1.8108 70.0885 2.43979 71.06C4.60645 74.8266 8.53979 74.7266 13.1665 73.96C17.7998 73.1933 23.3631 73.2266 25.2965 71.96Z" fill="#8E5FCF" fill-opacity="0.75"/>
<path fill-rule="evenodd" clip-rule="evenodd" d="M37.1565 10.99C46.1865 12.1233 49.8832 24.3167 45.7532 30.38C40.9865 37.0433 51.0499 32.4133 61.6432 33.0467C72.2365 33.68 78.8365 43.24 75.1732 49.1333C73.3399 52.3 66.6732 53.2333 62.8099 53.2333C51.7165 53.4 48.2832 48.0667 45.4532 49.5667C44.1199 50.2667 44.3199 51.5 44.9199 52.9V53.5667C44.6865 54.6 45.5865 64.46 38.2532 68.9233C30.9599 70.6233 32.3599 70.4233 31.1599 70.2233C31.4932 69.4567 30.2599 58.2633 30.2265 57.8967C29.7097 47.5945 29.7765 37.2713 30.4265 26.9767C30.6265 23.6433 31.5599 19.75 31.5599 16.35C31.5143 16.0869 31.3772 15.8484 31.1729 15.6765C30.9686 15.5046 30.7102 15.4103 30.4432 15.4103C30.1762 15.4103 29.9178 15.5046 29.7135 15.6765C29.5092 15.8484 29.3722 16.0869 29.3265 16.35C27.2899 30.1433 26.5865 44.1033 27.2265 58.03C27.5265 61.83 26.6599 72.2233 28.2599 73.29C29.8599 74.3567 33.4932 73.29 35.2265 73.1233C37.4163 73.0356 39.5393 72.3449 41.3614 71.1274C43.1836 69.9098 44.6342 68.2128 45.5532 66.2233C47.5677 62.4683 48.5889 58.2607 48.5199 54C52.9191 56.1274 57.7574 57.1894 62.6432 57.1C77.9699 56.8333 82.8999 48.1 78.4032 39.9067C76.6811 36.9825 74.2544 34.5358 71.3445 32.7897C68.4345 31.0436 65.1338 30.0536 61.7432 29.91C57.2722 29.9025 52.8103 30.3155 48.4165 31.1433C52.6499 23.2467 47.8499 9.91999 37.3899 8.91999H33.6899C33.3565 8.85332 21.3299 10.69 37.1565 10.99Z" fill="#8E5FCF" fill-opacity="0.75"/>
</g>
</g>
<defs>
<filter id="filter0_d_107_624" x="-4.00098" y="5.61292" width="88" height="76.7734" filterUnits="userSpaceOnUse" color-interpolation-filters="sRGB">
<feFlood flood-opacity="0" result="BackgroundImageFix"/>
<feColorMatrix in="SourceAlpha" type="matrix" values="0 0 0 0 0 0 0 0 0 0 0 0 0 0 0 0 0 0 127 0" result="hardAlpha"/>
<feOffset dy="4"/>
<feGaussianBlur stdDeviation="2"/>
<feComposite in2="hardAlpha" operator="out"/>
<feColorMatrix type="matrix" values="0 0 0 0 0.556863 0 0 0 0 0.372549 0 0 0 0 0.811765 0 0 0 0.25 0"/>
<feBlend mode="normal" in2="BackgroundImageFix" result="effect1_dropShadow_107_624"/>
<feBlend mode="normal" in="SourceGraphic" in2="effect1_dropShadow_107_624" result="shape"/>
</filter>
<clipPath id="clip0_107_624">
<rect width="80" height="80" fill="white" transform="matrix(0 1 -1 0 80 0)"/>
</clipPath>
</defs>
</svg>
