<svg width="25" height="28" viewBox="0 0 25 28" fill="none" xmlns="http://www.w3.org/2000/svg">
<g clip-path="url(#clip0_85_171)">
<path d="M11.7083 13.3828L0.599609 25.0213C0.724359 25.4634 0.948539 25.8712 1.25501 26.2133C1.56148 26.5555 1.94213 26.8231 2.36786 26.9956C2.7936 27.1681 3.25314 27.241 3.71136 27.2087C4.16958 27.1764 4.61435 27.0398 5.01167 26.8092L17.5111 19.6904L11.7083 13.3828Z" fill="#EA4335"/>
<path d="M22.941 11.4044L17.5358 8.30841L11.4517 13.6475L17.5606 19.6737L22.9246 16.6109C23.3998 16.3621 23.7978 15.988 24.0755 15.5291C24.3532 15.0702 24.5 14.544 24.5 14.0076C24.5 13.4712 24.3532 12.9451 24.0755 12.4862C23.7978 12.0273 23.3998 11.6531 22.9246 11.4043L22.941 11.4044Z" fill="#FBBC04"/>
<path d="M0.599404 2.93628C0.532297 3.18452 0.498873 3.44066 0.500029 3.69781V24.2597C0.500692 24.5168 0.534085 24.7727 0.599404 25.0213L12.0889 13.6808L0.599404 2.93628Z" fill="#4285F4"/>
<path d="M11.7911 13.9788L17.5359 8.30854L5.05311 1.15654C4.58345 0.881494 4.04928 0.735831 3.50502 0.734381C2.15436 0.731756 0.966922 1.62819 0.599609 2.92804L11.7911 13.9788Z" fill="#34A853"/>
</g>
<defs>
<clipPath id="clip0_85_171">
<rect width="24" height="26.5312" fill="white" transform="translate(0.5 0.734375)"/>
</clipPath>
</defs>
</svg>
