<svg id="house" width="32" height="32" viewBox="0 0 32 32" fill="none" xmlns="http://www.w3.org/2000/svg">
<g filter="url(#filter0_d_256_15)">
<path d="M16.1504 2.11255H17.4254V4.55005H16.1504V2.11255Z" fill="#D0D0D0"/>
<path d="M17.4248 2.11255H18.2873V4.55005H17.4248V2.11255Z" fill="#94989B"/>
<path d="M15.7002 1.25H17.8377V2.1125H15.7002V1.25Z" fill="#D0D0D0"/>
<path d="M17.8379 1.25H18.7004V2.1125H17.8379V1.25Z" fill="#94989B"/>
<path d="M13.0752 1.25L5.0127 5.8625H21.1752L13.0752 1.25Z" fill="#ED4C5C"/>
<path d="M7.2998 5.86255H18.8873V12.9875H7.2998V5.86255Z" fill="#F9F3D9"/>
<path d="M11.6504 8H14.5379V10.8875H11.6504V8Z" fill="#D6EEF0"/>
<path d="M11.2754 7.625V11.225H14.8754V7.625H11.2754ZM14.5379 8V9.275H13.2629V8H14.5379ZM12.9254 8V9.275H11.6504V8H12.9254ZM11.6504 10.8875V9.6125H12.9254V10.8875H11.6504ZM13.2629 10.8875V9.6125H14.5379V10.8875H13.2629Z" fill="#89664C"/>
<path d="M6.40039 15.8375H23.5004V23.075H6.40039V15.8375Z" fill="#F9F3D9"/>
<path d="M17.8379 17.975H20.7254V20.8625H17.8379V17.975Z" fill="#D6EEF0"/>
<path d="M17.4629 17.6375V21.2375H21.0629V17.6375H17.4629ZM20.7254 17.975V19.25H19.4504V17.975H20.7254ZM19.0754 17.975V19.25H17.8004V17.975H19.0754ZM17.8379 20.8625V19.625H19.1129V20.9H17.8379V20.8625ZM19.4504 20.8625V19.625H20.7254V20.9H19.4504V20.8625ZM10.9004 18.6125H14.0504V23.0375H10.9004V18.6125Z" fill="#89664C"/>
<path d="M10.5996 17.975H14.3871V18.6125H10.5996V17.975Z" fill="#DBB471"/>
<path d="M13.5248 20.75C13.6491 20.75 13.7498 20.6493 13.7498 20.525C13.7498 20.4008 13.6491 20.3 13.5248 20.3C13.4005 20.3 13.2998 20.4008 13.2998 20.525C13.2998 20.6493 13.4005 20.75 13.5248 20.75Z" fill="#F9F3D9"/>
<path d="M4.75 23.0375H27.25V23.75H4.75V23.0375Z" fill="#83BF4F"/>
<path d="M22.6 13.025H7.2625L4.75 15.8375H25.15L22.6 13.025Z" fill="#ED4C5C"/>
<path d="M27.2498 21.575C27.2498 21.125 26.9123 20.7875 26.4623 20.7875C26.3873 20.7875 26.2748 20.7875 26.1998 20.825C26.0873 20.6375 25.8998 20.4875 25.6748 20.4875C25.5248 20.4875 25.4123 20.525 25.2998 20.6V20.4875C25.2998 20.15 25.0373 19.8875 24.6998 19.8875C24.3998 19.8875 24.1748 20.1125 24.0998 20.375C24.0248 20.3 23.9498 20.3 23.8373 20.3C23.6123 20.3 23.4248 20.4875 23.4248 20.7125V23.075H26.5748C26.9123 23.075 27.1748 22.8125 27.1748 22.475C27.1748 22.325 27.0998 22.175 27.0248 22.0625C27.1748 21.9125 27.2498 21.7625 27.2498 21.575Z" fill="#83BF4F"/>
<path d="M27.25 22.4375C27.25 22.2875 27.175 22.1375 27.1 22.025C27.2125 21.875 27.25 21.725 27.25 21.5375C27.25 21.0875 26.9125 20.75 26.4625 20.75C26.3875 20.75 26.275 20.75 26.2 20.7875C26.125 20.675 26.05 20.5625 25.9 20.4875C25.675 20.5625 25.5625 20.7875 25.5625 21.0125C25.5625 21.0875 25.5625 21.125 25.6 21.1625C25.5625 21.125 25.4875 21.125 25.4125 21.125C25.1875 21.125 25 21.3125 25 21.5375C25 21.6875 25.075 21.8 25.225 21.875C25.15 21.9875 25.075 22.1375 25.075 22.2875C25.075 22.6625 25.375 22.9625 25.75 22.9625H26.65C26.9875 23.0375 27.25 22.775 27.25 22.4375ZM24.925 22.55C24.925 22.775 24.7375 22.475 24.5125 22.475C24.2875 22.475 24.1 22.775 24.1 22.55C24.1 22.325 24.2875 22.1375 24.5125 22.1375C24.7375 22.1375 24.925 22.325 24.925 22.55ZM24.0625 21.875C24.0625 21.9875 23.9875 21.875 23.875 21.875C23.7625 21.875 23.6875 21.9875 23.6875 21.875C23.6875 21.7625 23.7625 21.6875 23.875 21.6875C23.95 21.65 24.0625 21.7625 24.0625 21.875Z" fill="#699635"/>
<path d="M24.4 21.275C24.4 21.3875 24.325 21.2375 24.2125 21.2375C24.1 21.2375 24.025 21.3875 24.025 21.275C24.025 21.1625 24.1 21.0875 24.2125 21.0875C24.325 21.0875 24.4 21.1625 24.4 21.275ZM26.05 22.25C26.05 22.4 25.9375 22.175 25.7875 22.175C25.6375 22.175 25.525 22.4 25.525 22.25C25.525 22.1 25.6375 21.9875 25.7875 21.9875C25.9 21.9875 26.05 22.1 26.05 22.25ZM26.8 21.5375C26.8 21.7625 26.6125 21.425 26.3875 21.425C26.1625 21.425 25.975 21.7625 25.975 21.5375C25.975 21.3125 26.1625 21.125 26.3875 21.125C26.6125 21.125 26.8 21.3125 26.8 21.5375ZM26.8 22.475C26.8 22.5875 26.725 22.475 26.6125 22.475C26.5 22.475 26.425 22.5875 26.425 22.475C26.425 22.3625 26.5 22.2875 26.6125 22.2875C26.725 22.2875 26.8 22.3625 26.8 22.475ZM25.0375 20.8625C25.0375 21.0125 24.925 20.7875 24.775 20.7875C24.625 20.7875 24.5125 21.0125 24.5125 20.8625C24.5125 20.7125 24.625 20.6 24.775 20.6C24.925 20.6 25.0375 20.7125 25.0375 20.8625ZM8.5 21.575C8.5 21.125 8.1625 20.7875 7.7125 20.7875C7.6375 20.7875 7.525 20.7875 7.45 20.825C7.3375 20.6375 7.15 20.4875 6.925 20.4875C6.775 20.4875 6.6625 20.525 6.55 20.6V20.4875C6.55 20.15 6.2875 19.8875 5.95 19.8875C5.65 19.8875 5.425 20.1125 5.3875 20.375C5.3125 20.3 5.2375 20.3 5.125 20.3C4.9 20.3 4.75 20.4875 4.75 20.7125V23.075H7.9C8.2375 23.075 8.5 22.8125 8.5 22.475C8.5 22.325 8.425 22.175 8.35 22.0625C8.425 21.9125 8.5 21.7625 8.5 21.575Z" fill="#83BF4F"/>
<path d="M8.5 22.4375C8.5 22.2875 8.425 22.1375 8.35 22.025C8.4625 21.875 8.5 21.725 8.5 21.5375C8.5 21.0875 8.1625 20.75 7.7125 20.75C7.6375 20.75 7.525 20.75 7.45 20.7875C7.375 20.675 7.3 20.5625 7.15 20.4875C6.925 20.5625 6.8125 20.7875 6.8125 21.0125C6.8125 21.0875 6.8125 21.125 6.85 21.1625C6.8125 21.125 6.7375 21.125 6.6625 21.125C6.4375 21.125 6.25 21.3125 6.25 21.5375C6.25 21.6875 6.325 21.8 6.475 21.875C6.4 21.9875 6.325 22.1375 6.325 22.2875C6.325 22.6625 6.625 22.9625 7 22.9625H7.9C8.2375 23.0375 8.5 22.775 8.5 22.4375ZM6.175 22.55C6.175 22.775 5.9875 22.475 5.7625 22.475C5.5375 22.475 5.35 22.775 5.35 22.55C5.35 22.325 5.5375 22.1375 5.7625 22.1375C5.9875 22.1375 6.175 22.325 6.175 22.55ZM5.3125 21.875C5.3125 21.9875 5.2375 21.875 5.125 21.875C5.0125 21.875 4.9375 21.9875 4.9375 21.875C4.9375 21.7625 5.0125 21.6875 5.125 21.6875C5.2 21.65 5.3125 21.7625 5.3125 21.875Z" fill="#699635"/>
<path d="M5.65039 21.275C5.65039 21.3875 5.57539 21.2375 5.46289 21.2375C5.35039 21.2375 5.27539 21.3875 5.27539 21.275C5.27539 21.1625 5.35039 21.0875 5.46289 21.0875C5.53789 21.0875 5.65039 21.1625 5.65039 21.275ZM7.30039 22.25C7.30039 22.4 7.18789 22.175 7.03789 22.175C6.88789 22.175 6.77539 22.4 6.77539 22.25C6.77539 22.1 6.88789 21.9875 7.03789 21.9875C7.15039 21.9875 7.30039 22.1 7.30039 22.25ZM8.05039 21.5375C8.05039 21.7625 7.86289 21.425 7.63789 21.425C7.41289 21.425 7.22539 21.7625 7.22539 21.5375C7.22539 21.3125 7.45039 21.125 7.63789 21.125C7.86289 21.125 8.05039 21.3125 8.05039 21.5375ZM8.05039 22.475C8.05039 22.5875 7.97539 22.475 7.86289 22.475C7.75039 22.475 7.67539 22.5875 7.67539 22.475C7.67539 22.3625 7.75039 22.2875 7.86289 22.2875C7.97539 22.25 8.05039 22.3625 8.05039 22.475ZM6.28789 20.8625C6.28789 21.0125 6.17539 20.7875 6.02539 20.7875C5.87539 20.7875 5.76289 21.0125 5.76289 20.8625C5.76289 20.7125 5.87539 20.6 6.02539 20.6C6.17539 20.6 6.28789 20.7125 6.28789 20.8625Z" fill="#83BF4F"/>
</g>
<defs>
<filter id="filter0_d_256_15" x="0" y="0.5" width="32" height="32" filterUnits="userSpaceOnUse" color-interpolation-filters="sRGB">
<feFlood flood-opacity="0" result="BackgroundImageFix"/>
<feColorMatrix in="SourceAlpha" type="matrix" values="0 0 0 0 0 0 0 0 0 0 0 0 0 0 0 0 0 0 127 0" result="hardAlpha"/>
<feOffset dy="4"/>
<feGaussianBlur stdDeviation="2"/>
<feComposite in2="hardAlpha" operator="out"/>
<feColorMatrix type="matrix" values="0 0 0 0 0 0 0 0 0 0 0 0 0 0 0 0 0 0 0.25 0"/>
<feBlend mode="normal" in2="BackgroundImageFix" result="effect1_dropShadow_256_15"/>
<feBlend mode="normal" in="SourceGraphic" in2="effect1_dropShadow_256_15" result="shape"/>
</filter>
</defs>
</svg>
