<svg id="instagram" width="32" height="32" viewBox="0 0 32 32" fill="none" xmlns="http://www.w3.org/2000/svg">
<path d="M16.0003 11.6667C14.8511 11.6667 13.7489 12.1232 12.9362 12.9359C12.1235 13.7485 11.667 14.8507 11.667 16C11.667 17.1493 12.1235 18.2515 12.9362 19.0641C13.7489 19.8768 14.8511 20.3334 16.0003 20.3334C17.1496 20.3334 18.2518 19.8768 19.0645 19.0641C19.8771 18.2515 20.3337 17.1493 20.3337 16C20.3337 14.8507 19.8771 13.7485 19.0645 12.9359C18.2518 12.1232 17.1496 11.6667 16.0003 11.6667Z" fill="#24274B"/>
<path fill-rule="evenodd" clip-rule="evenodd" d="M9.02682 4.10931C13.6615 3.59589 18.3388 3.59589 22.9735 4.10931C25.5055 4.39198 27.5468 6.38531 27.8442 8.92665C28.3934 13.6262 28.3934 18.3738 27.8442 23.0733C27.5468 25.6146 25.5055 27.608 22.9748 27.892C18.3397 28.4055 13.662 28.4055 9.02682 27.892C6.49482 27.608 4.45349 25.6146 4.15616 23.0746C3.6068 18.3746 3.6068 13.6266 4.15616 8.92665C4.45349 6.38531 6.49482 4.39198 9.02682 4.10931ZM22.6668 7.99998C22.3132 7.99998 21.9741 8.14046 21.724 8.39051C21.474 8.64055 21.3335 8.97969 21.3335 9.33331C21.3335 9.68694 21.474 10.0261 21.724 10.2761C21.9741 10.5262 22.3132 10.6666 22.6668 10.6666C23.0204 10.6666 23.3596 10.5262 23.6096 10.2761C23.8597 10.0261 24.0002 9.68694 24.0002 9.33331C24.0002 8.97969 23.8597 8.64055 23.6096 8.39051C23.3596 8.14046 23.0204 7.99998 22.6668 7.99998ZM9.66683 16C9.66683 14.3203 10.3341 12.7094 11.5218 11.5216C12.7095 10.3339 14.3205 9.66665 16.0002 9.66665C17.6799 9.66665 19.2908 10.3339 20.4785 11.5216C21.6662 12.7094 22.3335 14.3203 22.3335 16C22.3335 17.6797 21.6662 19.2906 20.4785 20.4783C19.2908 21.6661 17.6799 22.3333 16.0002 22.3333C14.3205 22.3333 12.7095 21.6661 11.5218 20.4783C10.3341 19.2906 9.66683 17.6797 9.66683 16Z" fill="#24274B"/>
</svg>
