<svg id="paint-desktop" viewBox="0 0 918 125" fill="none" xmlns="http://www.w3.org/2000/svg">
<path d="M70.9924 123.036C71.5984 122.879 73.7716 123.262 74.77 123.196C73.6763 124.859 68.9238 123.606 70.9924 123.036ZM172.444 2.28643C171.611 2.69734 170.781 3.10825 169.954 3.51916C172.283 3.78726 175.562 3.48669 177.629 3.87785C177.977 3.94353 177.073 5.13384 177.897 5.18732C178.722 5.24047 178.563 3.61327 179.768 3.43969C181.107 3.24993 187.381 4.38594 189.607 4.35931C197.57 4.25256 206.001 3.32663 213.96 4.00555C205.634 5.20608 214.004 6.43457 216.372 5.91381C216.888 5.79322 216.828 2.7682 225.272 3.53322C230.571 4.01868 225.636 8.34135 234.561 6.1784C227.698 3.15025 234.417 3.36497 239.874 3.26661C240.84 3.24918 248.21 3.70671 251.55 3.5741C252.685 3.52796 254.419 1.94418 255.935 1.90322C256.973 1.87621 257.785 2.7428 259.307 2.69931C266.347 2.50695 273.524 2.44258 280.628 2.73845C276.469 6.80848 283.89 4.47515 284.232 4.66997C285.929 5.7762 278.247 6.08765 281.284 6.78038C285.525 6.65602 289.798 6.53168 294.101 6.40737C290.583 5.90594 298.748 2.98053 300.217 4.31347C299.522 0.715183 319.701 7.45343 322.713 6.25325C323.354 5.99974 319.169 4.21965 328.863 5.03742C329.914 5.12827 329.516 6.21365 330.068 6.1127C330.397 6.052 332.407 2.6026 334.535 4.51014C335.31 5.20636 330.36 7.47021 341.214 6.56423C336.858 3.05055 356.37 4.66928 359.898 5.55097C359.185 5.07887 358.473 4.60676 357.761 4.13465C361.286 5.40897 361.927 4.21531 362.722 4.28074C365.929 4.54358 370.351 5.74888 373.355 5.64048C376.848 5.51579 376.855 3.33185 380.929 4.1833C379.963 3.70097 378.997 3.21865 378.031 2.73632C380.842 2.8537 383.658 2.97109 386.478 3.08849C379.95 5.97632 387.885 3.22708 388.41 3.1651C389.245 3.06028 388.045 4.24324 389.441 4.09653C389.586 4.07235 389.377 2.95771 391.53 2.83357C396.033 2.57801 395.307 3.97897 397.192 3.96403C397.365 3.95689 396.761 2.95253 400.012 2.71657C410.354 1.96543 399.959 3.48599 399.564 3.62459C399.045 3.8074 402.58 8.00512 393.811 6.51303C396.755 6.98811 397.051 8.84506 397.382 8.89131C397.675 8.92935 402.783 8.67028 403.066 8.60647C405.579 7.97717 403.368 6.70721 403.858 6.48006C404.258 6.29695 410.42 7.95357 411.869 4.13773C414.819 7.65952 410.167 7.33469 405.224 7.87337C404.501 8.5954 409.931 9.30051 410.218 9.29873C417.229 9.29577 413.347 6.39817 414.88 4.54792C415.683 3.57983 418.531 5.55679 415.902 2.95901C422.251 2.68811 418.4 4.19077 418.81 4.41365C419.428 4.7411 421.651 3.99806 421.929 4.09732C422.337 4.24427 420.917 5.14252 422.527 5.45998C422.795 5.50616 425.39 3.96051 422.045 3.21942C426.515 3.44158 426.148 2.12231 427.663 4.78139C430.745 -0.246254 429.896 7.75525 431.109 8.03766C434.334 8.78212 433.4 4.83306 433.571 4.64059C434.745 3.40727 443.669 4.76829 445.879 4.20039C445.006 7.04394 438.804 4.22778 437.417 4.7788C432.791 6.61202 443.934 6.20405 440.574 9.77573C441.982 8.79506 443.391 7.81438 444.799 6.83372C447.379 9.13262 443.717 10.1326 450.664 9.29659C451.801 7.31408 445.753 9.60724 446.966 8.04583C447.682 7.12944 451.71 6.93465 451.789 6.45137C451.869 5.86961 448.229 6.55721 448.803 5.66266C450.053 3.73222 463.34 5.57763 453.224 6.6262C456.043 6.59468 457.498 10.4364 459.945 9.24094C461.527 8.46498 452.632 3.15542 465.981 4.13534C466.264 5.94921 460.644 4.66806 460.498 4.80601C460.292 5.00682 461.308 9.1002 461.484 9.30231C462.114 9.96775 475.714 7.78347 478.614 9.8414C477.476 7.47525 488.92 9.42499 490.159 8.70494C490.49 8.50613 489.253 7.05646 489.608 6.90329C491.811 5.99171 497.796 8.58167 500.581 8.65028C503.691 8.728 503.297 7.47633 503.47 7.4788C504.838 7.54939 503.745 8.39715 504.581 8.39524C505.848 8.39189 514.497 8.57044 514.931 8.39368C515.058 8.3386 513.638 6.90818 515.537 6.63811C515.865 6.59132 515.662 8.28612 521.275 7.55731C528.029 6.68076 516.585 5.44678 519.392 3.67348C523.733 6.20332 523.59 3.69881 524.765 3.89616C525.172 3.96803 528.198 6.09916 531.472 5.96644C529.122 6.31065 526.766 6.65487 524.406 6.9991C526.727 7.37384 531.221 6.91442 533.121 7.33736C534.051 7.54325 533.273 9.29201 535.306 9.24599C535.747 9.22672 537.427 4.96606 532.145 6.87508C531.727 5.35312 534.224 6.34556 535.41 5.91586C535.588 5.84889 536.293 3.30713 537.794 4.88798C538.15 5.27692 534.238 12.6903 544.34 7.32912C544.665 7.15634 543.536 6.22691 543.854 6.03458C544.071 5.90434 546.643 6.28162 546.927 6.15003C547.217 6.00883 545.977 4.99415 546.322 4.79486C548.096 3.76793 550.416 7.7907 546.765 7.48201C547.986 7.97978 549.205 8.47755 550.423 8.97533C549.121 5.94378 552.338 8.1238 554.018 8.03152C564.931 7.44197 557.624 5.46615 559.501 4.44748C562.51 2.81192 560.214 7.99692 564.67 6.44138C565.077 6.29594 559.718 4.09085 570.193 5.33997C568.651 5.42473 567.105 5.5095 565.555 5.59426C566.449 8.52623 571.138 5.39684 571.495 5.35596C575.593 4.95618 572.833 6.0111 578.987 4.5057C579.536 4.37053 580.732 5.0948 581.904 4.73472C586.764 3.25129 575.489 3.82823 575.165 2.64125C575.036 2.05962 587.164 2.21426 587.558 2.49068C589.317 3.71588 582.087 3.02605 583.463 4.54656C583.946 5.08638 601.237 3.99019 604.681 4.58405C608.657 5.27501 610.424 9.25071 610.454 4.785C611.578 9.16933 612.596 6.17928 613.11 6.20985C619.333 6.6202 619.339 6.66445 624.611 6.24868C625.772 6.15832 626.748 7.48908 627.158 7.26481C627.396 7.12935 626.952 5.70568 628.118 5.26742C629.764 4.66787 639.683 6.13955 640.384 6.92693C641.115 7.71431 636.234 7.26487 637.107 8.55917C640.662 8.69273 643.975 8.37529 647.556 8.51453C649.056 8.57625 648.285 9.48103 648.932 9.49957C649.214 9.51092 654.356 8.71783 654.134 8.38368C653.609 7.60657 637.823 8.11589 641.982 6.53463C642.78 6.22908 645.578 8.31777 645.134 5.78029C659.372 6.36697 673.285 6.95412 687.496 7.54266C679.238 9.43255 670.342 7.7275 661.735 7.8981C660.593 7.91909 656.687 7.6711 657.159 8.95385C664.201 9.29171 673.461 8.63164 680.214 9.4735C680.44 9.50135 679.608 10.6527 680.455 10.8361C682.048 11.1783 687.144 9.32483 687.984 9.80614C688.132 9.91821 685.245 11.4344 686.122 12.4004C688.372 14.8796 688.945 9.39388 690.861 9.4607C692.266 9.51459 702.439 12.1772 704.9 10.5038C707.565 8.72011 697.494 9.4593 698.216 7.9995C705.13 6.5385 711.842 8.1128 718.375 7.93703C718.488 7.93249 717.509 6.78685 718.939 6.62826C721.421 6.35227 722.056 7.97651 723.247 8.23756C723.6 8.314 724.198 8.3522 724.888 8.37974C726.824 8.45244 729.415 8.45119 729.865 8.88084C729.944 8.95855 728.995 10.5678 728.85 10.6129C726.802 11.2742 726.062 9.18335 725.875 9.15631C725.542 9.11876 725.212 9.27481 724.887 9.44609C724.541 9.63997 724.202 9.85336 723.876 9.82767C722.863 9.74704 722.305 9.00578 720.955 8.93891C720.022 8.89002 720.922 10.3133 720.021 10.2473C719.696 10.2173 716.099 6.96571 715.751 10.2805C715.708 10.6683 719.797 11.1013 724.885 11.4502C733.972 12.042 746.189 12.3933 748.02 11.87C745.538 11.4682 743.007 11.0663 740.427 10.6645C745.714 11.6413 751.571 9.00027 752.125 12.9199C771.277 13.2659 790.083 13.6155 809.202 13.9763C812.459 14.3172 810.781 16.8317 816.33 16.1113C814.909 15.3058 813.455 14.5002 811.966 13.6947C814.964 14.2635 827.426 15.3933 829.619 14.8804C829.906 14.8131 830.182 12.5346 833.412 12.3479C836.287 12.1833 836.678 13.8923 838.143 14.2238C839.47 14.4978 840.893 14.055 841.263 14.1504C841.548 14.2268 841.66 15.2714 842.335 15.4558C844.447 16.0258 842.721 13.0798 844.928 16.4636C844.393 16.5904 843.824 16.7171 843.296 16.844C846.06 17.3419 849.525 18.8875 845.699 19.63C845.024 19.7582 845.608 18.75 845.103 18.7499C825.564 18.8755 841.192 20.8865 847.974 19.343C849.807 20.8454 859.653 19.9738 859.936 20.2716C860.389 20.7012 858.684 21.889 860.919 22.9332C861.332 23.1491 874.666 22.4006 869.876 24.3572C868.854 24.7586 862.51 24.2894 860.992 24.3414C864.574 27.5297 873.069 23.0433 874.053 23.1729C877.868 23.7025 866.601 25.8556 875.318 26.3038C882.118 26.6666 875.748 24.4711 878.384 23.5995C879.124 23.3546 881.535 23.8492 883.352 24.0207C885.201 24.1915 886.965 24.0353 886.878 22.5207C889.341 22.2183 887.887 23.8064 888.19 23.9241C888.477 24.0295 893.383 23.1522 895 23.7929C895.194 23.8727 894.575 25.4415 894.776 25.5707C895.161 25.7932 899.963 25.491 900.155 25.3575C900.276 25.2653 899.136 23.8878 899.606 23.5551C900.154 23.1722 904.786 23.5018 905.043 23.1084C905.402 22.5149 899.683 22.899 900.641 21.3621C903.271 21.7542 907.574 20.7308 909.321 19.4932C908.892 19.8471 906.331 19.8966 905.442 19.771C905.862 17.5193 911.363 17.5522 909.481 19.3343C910.679 18.3772 909.863 17.869 910.536 16.9656C910.712 16.7368 912.414 16.69 912.743 16.3C912.785 16.2223 911.03 15.3722 911.381 14.9147C912.016 14.0883 917.184 14.2745 917.608 14.4913C918.8 15.106 914.582 15.8497 914.232 16.7997C914.181 16.9456 917.767 18.8075 917.822 18.972C918.031 20.7362 914.041 19.4648 914.497 21.0533C915.484 21.3889 916.471 21.7244 917.458 22.06C913.648 23.669 906.623 22.84 904.818 24.6673C910.436 24.1278 916.343 24.1908 916.33 28.3117C916.326 30.0471 913.892 31.0643 913.986 31.5056C914.344 33.0844 917.725 31.3693 917.85 31.4527C917.953 31.5489 918 31.6426 918 31.7338C918 31.7338 918 31.7338 918 31.7339C917.998 32.6583 913.18 33.3238 912.94 33.7458C912.535 34.4955 914.678 37.5818 914.675 38.2644C914.601 38.4016 911.169 39.1315 912.327 40.3228C913.497 41.5263 916.501 41.5529 916.607 41.6779C917.18 42.3977 911.927 43.054 911.771 43.4789C911.686 43.6938 914.51 45.0145 914.59 45.3941C914.661 45.775 912.516 46.606 911.672 47.8081C911.043 48.7013 912.875 49.3864 912.553 49.5263C912.323 49.6193 907.36 49.6025 907.116 49.7591C906.753 49.9912 907.916 51.0594 907.746 51.3262C907.504 51.71 905.905 51.3236 906.112 51.7187C906.266 52.0137 912.481 55.696 912.44 56.6787C912.37 58.3555 905.786 54.4959 911.911 61.1138C911.953 61.1573 913.445 60.6873 913.486 60.7281C914.406 61.9454 909.626 63.8176 915.472 63.4907C904.594 65.6036 914.118 66.0111 912.508 68.834C911.889 69.9191 907.665 70.3652 907.648 70.5278C908.056 71.9046 909.402 70.8375 909.859 71.5127C910.11 71.8901 906.333 73.3437 907.182 74.2891C907.623 74.7767 911.63 74.6046 911.796 74.6995C913.382 75.5959 911.437 76.5607 911.785 77.1972C912.016 77.624 914.436 77.6581 914.497 77.7349C914.6 77.8948 911.317 79.6186 910.631 80.2244C910.11 80.6906 912.064 81.4216 911.7 81.6248C909.512 82.8403 904.858 79.7372 909.342 84.084C909.616 84.3506 911.313 84.2434 911.363 84.2965C912.413 85.5284 909.286 85.6341 908.727 86.642C907.767 88.379 912.26 87.412 908.523 88.6324C911.326 89.7697 912.888 89.7224 916.161 89.4058C907.092 90.2887 903.877 94.7841 913.96 94.6735C910.755 94.603 911.109 97.1413 910.153 97.1856C909.558 97.2105 904.903 94.684 907.034 100.348C907.304 101.056 910.13 100.158 909.245 101.605C902.454 101.232 909.1 102.527 909.108 102.718C909.035 106.057 892.385 103.306 889.416 103.655C886.117 104.066 883.038 106.538 882.145 106.653C882.122 106.656 882.101 106.657 882.081 106.657C879.575 106.619 881.668 105.317 881.119 104.818C880.461 104.315 874.201 106.788 873.802 106.649C872.604 106.074 873.846 104.504 873.719 104.423C872.245 103.435 863.294 104.614 860.809 104.236C860.897 105.262 865.91 105.371 862.732 107.001C859.117 108.903 858.901 104.38 858.819 104.181C842.078 104.145 825.232 104.149 808.398 104.155C808.521 106.561 819.552 104.771 819.84 105.089C821.255 106.967 802.744 106.892 800.45 106.039C802.112 106.562 803.9 107.085 805.658 107.608C802.526 110.368 796.168 106.762 791.849 107.975C790.494 108.369 793.09 109.441 793.031 109.514C791.529 110.586 789.052 109.754 790.9 108.314C787.132 109.69 787.678 108.166 784.694 108.046C784.552 108.041 785.782 109.159 783.489 109.618C782.473 109.833 776.734 109.827 775.916 110.802C775.597 111.212 778.553 115.546 778.911 111.821C785.111 113.647 780.901 110.126 783.284 110.216C783.649 110.236 782.775 112.314 788.984 111.346C787.792 115.094 780.728 112.278 779.553 112.73C777.077 113.66 787.269 115.613 789.219 112.694C788.33 115.618 789.963 113.089 792.198 113.214C794.624 113.348 793.58 114.218 794.96 114.225C798.74 114.254 797.188 112.186 800.218 114.054C797.265 108.283 805.446 113.303 807.854 114.818C803.92 115.103 800.097 115.388 796.156 115.673C796.382 115.976 796.607 116.279 796.832 116.583C795.794 116.538 794.74 116.493 793.678 116.448C793.846 116.158 794.019 115.868 794.189 115.579C789.003 117.456 787.665 115.333 787.233 115.309C781.646 115.053 775.086 115.061 769.654 115.046C768.798 115.044 769.461 116.931 763.171 115.445C761.212 114.972 763.054 113.506 760.88 113.724C758.15 117.709 758.191 114.527 757.371 114.521C755.006 114.518 753.518 115.504 753.296 115.515C750.181 115.665 746.195 115.494 742.889 115.637C742.828 115.652 744.515 116.88 742.407 116.515C741.606 116.384 735.126 111.145 729.341 112.843C730.854 113.198 732.35 113.553 733.831 113.908C732.799 113.611 727.953 113.96 724.769 114.588C722.765 115.01 721.515 115.557 722.705 116.121C723.229 116.369 723.971 116.263 724.767 116.067C726.847 115.584 729.258 114.55 729.609 116.855C728.73 116.648 727.002 116.549 724.767 116.515C716.935 116.387 702.417 117.147 701.055 116.552C700.81 116.444 702.321 115.393 701.982 115.259C701.73 115.156 696.472 115.4 695.756 114.995C695.338 114.755 697.681 114.112 697.49 113.733C697.262 113.462 690.879 113.006 690.501 114.324C692.09 113.796 696.478 114.263 694.174 115.372C693.878 115.51 692.338 114.658 691.974 114.833C688.595 116.445 698.687 116.067 700.336 116.082C693.779 117.755 684.078 115.766 676.626 116.854C673.673 115.754 681.001 115.179 677.665 114.267C670.717 112.376 675.817 115.783 675.602 115.922C673.885 117.028 667.932 111.088 667.916 115.605C665.353 114.923 666.155 114.354 662.551 114.942C663.014 115.255 663.485 115.569 663.969 115.882C660.022 118.495 651.607 111.887 652.225 111.384C653.943 110.038 658.323 112.143 658.692 112.093C659.279 112.019 660.656 107.436 666.863 111.54C669.352 108.468 657.212 109.457 662.702 107.366C659.12 107.707 643.56 105.554 641.471 106.902C641.207 107.078 642.432 110.142 638.656 108.58C636.861 107.836 641.188 107.804 640.367 107.106C637.823 104.962 603.363 106.306 596.819 106.415C596.392 106.418 596.55 105.467 596.13 105.476C594.83 105.501 590.145 106.916 587.877 106.477C592.603 108.239 583.425 108.37 581.059 108.175C577.485 107.878 577.704 106.205 576.155 105.848C570.185 104.473 561.066 108.439 556.403 104.723C556.627 108.408 548.447 102.911 544.701 102.876C541.77 102.848 537.498 105.284 541.467 106.772C536.379 106.599 531.063 107.283 526.324 107.504C525.54 107.541 526.62 106.452 525.282 106.55C525.16 106.567 524.992 107.635 523.842 107.745C514.332 108.67 518.957 106.404 517.178 105.735C516.18 105.361 515.443 105.175 514.902 105.113C520.466 104.908 526.845 104.492 528.546 104.463C527.108 102.104 516.261 104.909 513.101 104.272C512.992 104.249 513.373 102.95 513.262 102.94C513.26 102.94 513.257 102.94 513.255 102.94C512.077 102.84 504.531 103.315 506.083 104.866C506.5 105.28 509.977 105.282 514.084 105.143C512.972 105.433 513.801 106.89 513.605 106.952C511.227 107.67 505.384 106.246 503.305 106.053C502.831 106.01 502.864 106.943 502.786 106.946C500.896 106.733 501.673 104.069 499.732 106.815C496.309 103.493 506.148 106.326 505.453 104.169C504.921 102.509 483.088 103.388 483.153 106.004C483.078 105.724 482.778 105.376 482.162 104.981C480.799 104.103 474.707 104.374 473.662 104.855C473.486 104.95 473.555 107.489 473.336 107.512C472.789 107.57 465.371 105.576 462.595 107.075C464.092 107.431 465.59 107.788 467.087 108.144C458.043 108.161 459.438 108.918 462.453 109.678C462.604 109.685 462.75 109.782 462.894 109.792C465.231 110.354 468.223 110.896 468.268 111.097C468.443 111.861 453.089 112.278 456.043 109.925C456.456 109.603 463.559 110.655 460.043 108.973C459.428 108.678 454.863 109.156 454.623 108.97C453.02 107.738 462.987 106.107 461.769 104.357C459.351 106.022 456.245 105.143 453.473 105.571C452.212 105.765 451.902 107.037 451.747 107.061C449.422 107.392 450.727 106.059 449.951 106.092C449.535 106.114 444.952 108.952 445.82 105.037C430.72 107.91 441.643 107.912 450.903 107.697C447.977 109.121 442.239 108.428 439.664 108.758C438.741 108.878 439.287 110.184 437.727 110.445C434.516 110.981 419.174 109.472 415.188 109.117C417.639 108.656 416.923 107.233 415.031 107.33C413.14 107.428 414.728 109.328 414.359 109.532C413.963 109.744 405.066 108.843 403.591 109.088C410.282 108.403 408.772 106.984 403.095 106.832C403.915 106.424 404.736 106.016 405.557 105.607C402.226 106.18 395.244 104.012 393.322 104.655C393.019 104.759 394.105 105.952 393.935 106.011C392.243 106.517 386.491 105.297 386.225 105.704C385.998 106.043 388.449 107.044 387.539 107.536C387.349 107.64 384.986 106.026 382.662 106.421C381.8 106.567 382.319 107.695 382.102 107.761C380.292 108.303 381.36 106.403 378.056 106.707C375.634 106.932 373.843 108.788 370.473 108.172C381.487 110.545 372.238 109.551 367.618 110.267C366.88 110.381 367.509 112.43 363.103 111.43C372.487 107.731 360.424 109.471 357.974 109.43C357.84 109.417 357.794 108.066 356.589 108.044C356.487 108.045 356.633 108.958 355.514 109.028C344.842 109.683 351.665 108.654 349.637 107.753C348.771 107.369 343.581 108.658 342.189 108.688C341.869 108.692 342.016 107.743 340.777 107.78C338.585 107.847 336.626 108.856 335.184 108.935C335.011 108.94 335.027 107.443 332.255 107.927C331.477 108.062 330.605 108.594 331.708 109.024C335.383 110.441 342.217 107.995 346.35 109.409C350.103 110.698 338.27 110.814 337.668 110.821C337.443 110.825 339.745 110.083 337.407 109.935C335.423 109.812 331.741 112.395 328.742 111.831C328.513 111.789 326.122 109.596 326.233 109.468C326.331 109.375 330.007 108.901 329.474 108.266C329.41 108.194 327.074 108.208 326.77 107.735C326.397 107.16 325.395 101.519 324.897 101.377C323.621 101.027 324.451 102.314 323.625 102.224C321.852 102.035 315.742 100.364 315.546 102.319C316.553 102.435 317.561 102.552 318.571 102.668C312.958 102.867 315.356 103.7 314.555 104.067C313.687 104.463 313.931 102.745 312.015 102.582C311.591 102.547 303.613 102.902 303.764 103.623C308.165 102.477 306.535 104.601 306.737 104.639C307.509 104.777 308.497 103.586 309.536 103.611C316.856 103.8 309.472 105.678 311.2 106.162C311.794 106.325 312.981 105.308 313.234 105.361C314.056 105.529 314.069 106.861 314.617 106.754C315.881 106.504 314.41 104.619 314.505 104.521C315.637 103.342 320.053 104.811 317.301 106.861C318.953 107.601 319.148 105.108 320.46 106.105C323.071 108.08 319.158 107.571 318.102 107.898C314.326 109.078 313.153 108.121 307.742 108.446C305.793 108.561 303.493 109.771 302.593 109.837C302.023 109.878 296.691 105.664 296.535 112.256C294.463 111.617 291.144 107.272 288.996 107.469C287.062 107.65 287.676 109.982 287.496 110.072C287.219 110.214 284.886 110.029 284.1 110.359C283.178 110.748 283.637 111.638 282.177 112C278.546 112.899 278.648 110.518 278.275 110.364C273.932 108.574 275.819 111.96 274.852 112.232C273.92 112.481 261.306 111.172 258.716 112.028C259.782 111.552 260.851 111.075 261.923 110.599C260.008 109.113 257.981 111.534 257.931 108.872C257.529 113.17 253.504 110.295 252.304 110.406C251.83 110.451 251.867 111.184 251.275 111.215C248.954 111.343 243.78 110.758 242.548 111.128C237.187 112.726 250.899 115.391 252.032 115.552C249.809 115.504 237.592 116.462 243.206 118.531C244.074 118.85 245.617 116.927 246.108 116.852C249.428 116.358 246.816 118.081 247.076 118.245C247.518 118.51 249.709 116.844 250.29 117.043C250.484 117.106 249.234 118.667 252.424 118.701C250.835 120.214 241.947 118.977 240.804 119.332C240.387 119.459 243.014 122.694 235.297 119.549C235.386 119.85 235.475 120.15 235.564 120.45C231.269 120.572 227.068 120.694 222.831 120.816C223.316 120.125 225.693 118.736 222.672 119.03C220.911 119.2 222.213 120.741 222.052 120.785C220.392 121.209 192.926 120.685 187.583 120.855C185.731 120.91 180.673 122.146 180.298 122.169C178.075 122.292 169.794 121.483 168.172 121.657C167.154 121.769 168.121 123.058 167.213 122.997C166.37 122.939 167.244 121.694 166.994 121.642C165.221 121.233 151.865 122.526 146.834 121.905C146.264 121.839 145.786 121.753 145.42 121.641C145.737 121.689 146.225 121.685 146.834 121.64C150.465 121.354 159.097 119.394 158.919 118.634C158.865 118.514 156.039 117.566 155.466 118.027C154.506 116.949 151.256 120.229 149.524 119.584C149.331 119.511 150.091 117.671 147.014 117.335C146.959 117.329 146.899 117.328 146.835 117.329C145.595 117.361 142.826 118.571 140.112 117.045C136.187 117.816 114.056 115.421 112.673 117.398C112.625 117.502 115.666 118.184 113.611 118.995C110.898 120.073 113.321 116.44 110.192 116.125C109.648 116.077 100.652 116.442 100.433 116.667C97.7794 118.705 105.443 119.535 105.377 119.772C105.049 120.368 98.7539 120.727 98.4034 120.586C98.1838 120.44 103.493 117.74 97.0511 118.762C97.7952 119.085 98.545 119.408 99.3007 119.731C96.2086 120.359 95.9459 118.49 95.2092 118.375C92.8864 118.013 90.7037 120.851 86.9207 117.343C85.9488 116.411 87.5638 115.378 87.4433 115.239C86.2699 113.985 84.7865 117.336 83.0823 114.836C82.9686 114.649 86.8804 113.153 80.0254 113.147C80.4916 113.387 80.9591 113.627 81.43 113.866C80.5612 114.401 73.2172 114.716 72.385 114.59C69.6408 114.219 72.0471 112.499 69.1906 112.704C70.9558 115.062 62.5172 115.367 62.9886 113.337C61.6884 115.886 54.5188 113.917 51.0923 113.855C49.0813 113.818 44.4721 114.929 43.8957 114.798C43.0987 114.639 43.3382 112.9 41.7916 112.512C41.335 112.401 36.8544 113.674 32.9838 111.873C32.2768 111.526 30.5602 108.575 32.0411 107.838C34.3688 106.578 39.0901 108.956 38.9603 107.213C38.9571 105.348 32.761 106.455 31.0557 106.211C23.4473 105.082 27.801 103.102 27.657 102.501C27.0436 101.042 23.0192 101.086 22.7498 100.955C22.0211 100.372 25.0177 99.2194 25.0339 98.3294C25.1344 97.1707 21.0285 95.078 21.9632 94.6878C23.369 94.1336 26.9435 95.8779 27.2501 95.7948C30.3519 94.6717 26.0611 91.9931 24.9408 90.6775C24.5947 90.2728 25.974 89.6083 25.6879 89.4895C21.3633 87.6872 24.7647 93.2515 21.7993 92.8788C19.2137 92.5467 22.5343 90.7887 22.4599 90.6917C22.2989 90.5851 19.2348 90.488 18.6848 89.8653C18.5401 89.5536 26.5985 86.1347 26.2881 84.6004C23.7131 84.9375 21.1259 85.2746 18.4504 85.6117C18.2614 83.6111 21.9948 85.0851 22.3944 84.879C23.1844 84.4654 20.9876 83.4523 21.0952 82.8198C21.13 82.4175 23.702 80.983 21.3876 80.3904C20.6512 80.1857 18.8962 81.5877 16.0398 80.1538C26.0991 78.3274 19.2249 77.2004 18.8281 76.4916C18.5369 75.7829 23.4382 74.117 17.5209 74.4097C17.2878 70.5165 17.6061 73.1792 19.3068 72.4955C21.4001 71.6552 16.6356 70.3715 24.0927 71.3469C23.6376 69.524 17.6396 69.6507 17.3675 69.5052C17.1005 69.3733 18.3947 68.4772 17.9324 68.1733C12.3331 64.6493 16.1709 66.259 14.5708 64.0093C14.4684 63.8083 9.16159 62.9725 13.1602 62.6464C20.4569 62.0536 23.6452 64.6378 24.799 59.1162C19.414 56.7155 12.7652 60.2774 11.1646 60.3373C8.58864 60.4233 11.2403 59.2981 10.9332 58.9824C10.7826 58.8804 8.69242 58.9727 8.61311 58.8832C7.10169 54.6709 18.278 58.8168 21.8262 58.0857C20.8757 57.4547 20.0007 56.8236 18.989 56.1925C20.389 56.1678 21.4998 56.143 22.8565 56.1183C16.8143 54.8482 22.5687 55.6381 24.1901 52.2285C24.5817 51.4624 20.4865 52.775 25.0723 50.647C21.7551 50.1541 22.7112 49.4577 19.7232 50.4179C19.7697 49.051 26.6947 47.5117 29.4019 46.8113C19.8281 45.2716 25.2307 50.2875 16.9886 47.6317C15.4778 49.3237 19.3448 48.9956 19.0596 49.2748C17.8745 50.2789 15.2235 48.6829 11.9015 52.2013C11.3617 52.7789 13.6468 54.5584 10.2666 54.4713C9.92688 54.4589 7.74849 52.9382 7.80445 52.828C7.93913 52.2328 8.52054 52.0469 9.13983 51.9477C9.69743 51.8485 10.2259 51.836 10.2746 51.5876C10.314 51.3524 9.74996 51.3053 9.20472 51.3008C8.57633 51.2962 8.00186 51.3341 7.99812 51.2689C7.9069 49.7775 9.99779 50.6996 9.67607 50.2326C9.02153 49.2169 0.534916 46.0045 11.637 46.9485C2.45216 48.6314 10.4109 48.5948 14.0464 47.9485C14.9158 47.7864 15.1268 46.8957 16.4788 46.587C18.0717 46.1872 20.1939 46.6156 20.9554 46.4524C21.8964 46.2726 16.6053 44.1649 24.2633 44.7961C20.3514 42.7001 13.4608 44.9307 9.66511 43.4587C1.99237 40.4841 15.057 39.8507 16.4153 39.5633C16.7925 39.4854 15.5299 38.2818 15.7823 38.2082C16.2412 38.0954 23.5763 38.6542 24.36 37.6589C25.12 36.6645 21.5887 37.7037 21.3866 36.6663C21.2361 35.9679 30.211 34.7325 25.3402 34.2534C21.9823 33.9249 15.8941 36.7296 14.8027 33.7121C19.7057 33.4641 24.6249 33.2162 29.5483 32.9683C26.9215 31.8194 24.2354 30.6705 21.4755 29.5215C26.9743 29.1595 31.8062 30.4573 37.043 28.8159C24.494 25.1329 41.1076 25.8819 41.2853 25.4343C41.3043 25.1666 36.4679 22.1792 35.5885 21.6327C39.9601 20.4858 53.3786 19.9296 45.5238 16.24C46.905 17.073 50.4737 15.0195 50.3621 14.8644C49.9795 13.2355 42.4015 14.2888 43.6745 12.8183C45.0353 11.1118 46.9899 13.4283 49.2645 13.2442C60.3912 12.2843 57.3883 3.78076 68.5208 5.13039C68.2955 4.82756 68.0709 4.52473 67.8471 4.22189C80.0406 4.7084 92.2059 5.1949 104.382 5.68142C109.271 3.08681 121.955 1.51057 128.061 1.80017C129.298 1.85659 135.607 3.22169 135.981 3.46074C136.817 3.91891 132.209 4.09185 134.29 4.95111C134.663 5.12746 145.082 5.70401 144.377 4.25108C143.176 4.0822 139.503 4.811 138.917 4.46849C137.286 3.50552 141.17 3.22656 146.879 3.18213C155.174 3.11359 167.551 3.60031 168.46 3.00392C167.747 2.53186 167.036 2.05981 166.329 1.58776C168.346 1.82064 170.384 2.05353 172.444 2.28643ZM79.2076 118.921C77.9416 120.379 74.8606 119.283 73.1094 119.691C70.7417 120.263 66.3031 125.874 68.1836 120.249C72.0236 119.807 75.382 119.364 79.2076 118.921ZM132.67 121.114C130.153 120.33 132.125 117.189 134.151 118.496C134.347 118.644 136.024 122.169 132.67 121.114ZM106.909 119.613C107.01 119.572 109.177 119.656 109.257 119.705C111.201 120.967 104.672 120.707 106.909 119.613ZM231.153 118.049C228.458 118.184 230.406 121.041 232.086 119.866C232.192 119.791 231.33 118.043 231.153 118.049ZM229.237 117.973C227.146 115.414 222.975 120.596 226.294 120.076C226.615 120.023 229.332 118.097 229.237 117.973ZM123.895 119.862C124.162 118.882 126.659 119.356 127.746 119.591C127.712 120.486 124.927 119.753 123.895 119.862ZM188.066 119.614C188.15 118.843 179.33 118.883 178.768 119.898C180.113 119.468 187.943 120.307 188.066 119.614ZM210.619 118.541C210.395 118.407 207.399 118.609 207.488 119.289C208.943 120.181 211.613 119.144 210.619 118.541ZM255.467 118.604C255.634 118.433 253.334 114.105 258.783 116.955C259.581 117.373 256.726 118.502 257.009 118.658C257.605 118.961 258.076 119.102 258.455 119.127C255.909 119.485 253.286 119.653 253.033 119.39C251.841 118.15 255.391 118.675 255.467 118.604ZM279.02 115.39C279.531 114.684 282.816 115.063 283.567 115.354C283.696 115.408 283.133 117.263 284.618 117.125C285.811 117.011 284.029 115.11 286.354 115.415C288.707 115.721 285.563 117.074 285.769 117.171C286.042 117.298 289.687 116.446 289.575 117.551C289.488 118.369 285.584 117.814 284.625 117.988C283.394 118.211 284.885 119.575 282.829 119.281C281.539 119.098 282.255 116.7 281.983 116.579C281.752 116.481 277.258 117.859 279.027 115.397C279.024 115.395 279.022 115.392 279.02 115.39ZM259.132 119.022C258.943 119.103 258.731 119.146 258.455 119.127C258.689 119.095 258.909 119.057 259.132 119.022ZM86.2482 117.872C87.5377 118.612 83.7048 119.559 82.3153 118.59C82.2783 117.808 86.0282 117.757 86.2482 117.872ZM261.437 117.07C265.142 117.672 262.409 118.497 259.132 119.022C260.172 118.571 260.196 116.869 261.437 117.07ZM155.466 118.027C155.624 118.206 155.725 118.485 155.737 118.943C155.32 118.442 155.284 118.173 155.466 118.027ZM164.192 118.848C167.137 117.454 161.158 117.508 161.21 118.506C161.224 118.883 164.07 118.903 164.192 118.848ZM234.625 118.187C234.352 118.05 238.608 113.838 232.431 116.998C235.722 117.496 232.248 117.953 232.301 118.322C232.428 119.383 237.975 118.366 239.22 118.824C240.188 116.927 235.524 118.637 234.632 118.187C234.63 118.187 234.627 118.187 234.625 118.187ZM321.423 116.429C320.676 117.541 318.312 117.182 316.722 117.116C317.465 116.005 319.825 116.363 321.423 116.429ZM740.343 116.868C729.418 117.883 728.108 113.353 737.946 115.154C738.114 115.192 741.032 116.41 740.343 116.868ZM646.181 115.602C645.136 113.628 648.607 113.313 650.87 114.13C651.382 114.314 653.271 116.315 651.111 116.704C651.185 114.312 647.832 113.395 646.181 115.602ZM263.531 115.807C264.61 114.491 267.945 115.429 269.713 115.628C268.633 116.711 265.077 116.22 263.531 115.807ZM704.349 114.466C703.198 114.316 702.413 116.032 702.613 116.175C703.509 116.831 705.658 115.445 704.349 114.466ZM252.728 115.598C252.571 114.812 257.035 114.056 257.35 116.001C256.389 115.86 252.836 116.092 252.728 115.598ZM318.415 115.838C317.731 115.438 321.277 114.723 322.353 115.121C322.265 115.958 318.862 116.098 318.415 115.838ZM685.731 115.031C684.693 114.881 682.075 114.833 681.781 115.527C681.423 116.394 685.261 116.102 685.731 115.031ZM877.625 113.998C877.759 114.309 873.946 116.511 872.213 115.929C869.003 114.811 877.523 113.768 877.625 113.998ZM715.288 113.592C718.571 115.229 714.927 113.643 715.067 115.363C717.299 115.427 722.707 115.518 718.982 113.823C718.256 113.495 716.323 113.704 715.288 113.592ZM712.232 113.014C711.876 113.57 709.462 115.324 711.547 115.2C712.509 115.14 714.052 113.191 712.232 113.014ZM853.33 114.593C850.452 113.058 863.752 113.935 864.124 114.207C864.327 114.349 864.457 114.483 864.531 114.595C864.977 114.115 867.546 114.045 867.778 115.267C867.084 115.161 864.961 115.255 864.767 115.119C864.666 115.061 864.591 115.006 864.539 114.951C863.607 116.003 853.916 114.883 853.33 114.593ZM831.17 112.952C834.541 110.716 835.143 114.536 834.848 114.658C831.156 116.21 833.568 113.401 833.46 113.269C833.184 113.049 830.589 114.348 831.18 112.952C831.177 112.952 831.174 112.952 831.17 112.952ZM848.793 113.947C848.958 113.898 851.744 114.027 851.832 114.088C854.11 115.38 846.197 115.02 848.793 113.947ZM296.771 112.725C298.767 113.106 296.811 114.51 295.48 114.004C295.364 113.954 295.015 112.389 296.771 112.725ZM710.587 113.39C710.179 113.124 698.29 112.111 698.964 114.234C700.07 113.984 713.44 115.09 710.587 113.39ZM621.453 112.798C623.55 112.816 621.263 114.815 620.14 114.068C619.724 113.791 620.924 112.794 621.453 112.798ZM246.757 113.779C244.583 114.878 245.033 111.19 246.918 112.455C246.992 112.504 246.842 113.736 246.757 113.779ZM638.274 113.961C630.988 115.168 632.763 108.826 642.156 110.975C641.863 111.257 641.569 111.539 641.276 111.822C652.047 112.782 642.034 112.269 639.362 112.622C638.351 112.756 639.198 113.816 638.281 113.969C638.278 113.966 638.276 113.964 638.274 113.961ZM610.331 112.668C603.371 108.161 616.734 111.103 620.57 110.519C616.862 112.376 611.997 112.091 618.595 113.999C608.941 114.36 612.948 112.57 612.569 112.42C612.114 112.253 610.616 112.862 610.331 112.668ZM628.767 112.652C629.178 112.521 632.259 113.44 633.361 113.291C631.808 114.828 626.087 113.543 628.767 112.652ZM807.946 113.941C808.202 112.736 808.809 111.849 811.164 112.305C810.405 112.909 808.95 113.427 807.946 113.941ZM76.85 112.578C75.1629 112.491 71.9509 112.036 72.9375 113.303C73.0295 113.411 76.8293 113.289 76.85 112.578ZM675.979 112.381C675.655 112.232 666.538 112.125 669.687 113.457C670.66 113.859 678.872 113.696 675.979 112.381ZM723.09 112.579C722.35 112.565 719.29 112.789 719.22 113.074C719.017 114.059 722.77 113.522 723.09 112.579ZM68.5052 111.341C68.2527 111.216 63.2862 111.436 63.846 112.021C64.834 113.127 69.2462 111.772 68.5052 111.341ZM304.062 109.905C304.484 109.861 305.042 111.17 305.188 111.185C305.525 111.204 313.293 110.704 310.324 112.383C309.815 112.664 298.692 112.014 297.272 111.848C296.715 110.05 301.439 111.762 302.596 111.577C302.8 111.542 302.93 110.039 304.058 109.913C304.059 109.91 304.061 109.908 304.062 109.905ZM820.437 112.697C820.813 111.555 829.872 110.822 829.756 112.206C826.632 112.369 823.575 112.533 820.437 112.697ZM815.836 112.497C813.957 111.685 818.301 111.427 819.748 111.787C819.709 112.556 816.119 112.616 815.836 112.497ZM705.889 108.292C704.985 108.57 707.762 110.24 707.14 110.564C706.744 110.765 704.721 110.138 704.07 110.659C703.887 110.824 705.957 112.394 706.55 112.327C707.395 112.237 706.577 111.003 707.498 110.995C710.487 110.972 713.379 111.855 716.284 111.837C716.548 111.833 714.502 110.96 716.753 110.975C717.099 110.975 719.188 112.275 721.822 112.085C722.852 111.376 723.827 110.916 724.773 110.631C729.464 109.303 733.42 111.77 739.551 110.585C739.165 110.206 733.75 109.185 733.39 109.147C731.089 108.9 728.071 108.732 724.776 108.618C719.523 108.425 713.382 108.388 709.245 108.378C707.592 108.373 708.393 109.224 707.68 109.255C707.113 109.277 707.791 107.704 705.889 108.292ZM77.7421 111.708C76.9324 110.135 74.1543 111.129 72.4476 111.048C73.0432 112.466 75.9719 111.359 77.7421 111.708ZM775.016 111.202C774.045 111.261 771.432 110.783 771.19 111.256C770.911 111.874 774.759 112.27 775.016 111.202ZM347.69 110.371C347.776 110.328 349.914 110.413 349.995 110.463C351.904 111.726 345.493 111.464 347.69 110.371ZM398.683 110.698C400.297 110.504 401.927 110.014 402.469 111.29C401.439 111.094 398.493 111.586 398.683 110.698ZM469.025 110.696C468.693 109.025 473.551 110.11 474.467 110.26C474.127 111.002 469.269 111.9 469.025 110.696ZM807.611 108.695C810.562 108.8 809.84 106.267 811.797 107.417C812.135 107.611 813.056 112.884 809.831 110.902C809.254 110.546 811.522 109.298 807.611 108.695ZM643.679 111.029C644.429 109.924 646.754 110.254 648.393 110.344C648.018 111.165 644.79 110.951 643.679 111.029ZM59.3738 110.074C58.0445 108.513 51.5209 109.668 53.1335 110.7C53.3785 110.834 58.4985 110.014 59.3738 110.074ZM271.09 110.769C273.754 109.542 268.235 109.159 266.51 110.359C267.291 110.28 270.908 110.85 271.09 110.769ZM452.127 109.779C452.254 109.728 455.064 109.848 455.191 109.909C457.495 111.193 449.54 110.861 452.127 109.779ZM381.912 108.661C382.923 107.651 389.588 108.47 391.086 109.483C389.641 110.961 380.653 109.924 381.912 108.661ZM795.356 109.39C797.528 109.341 799.53 109.657 801.423 110.098C801.055 110.948 795.616 110.026 795.356 109.39ZM462.453 109.678C462.604 109.685 462.75 109.782 462.894 109.792C462.744 109.756 462.597 109.715 462.453 109.678ZM747.926 108.718C746.175 108.38 746.533 109.94 746.643 109.988C747.967 110.495 749.897 109.1 747.926 108.718ZM75.6927 109.391C75.0434 107.983 72.203 109.074 70.4153 108.738C71.0126 109.85 74.2744 109.538 75.6927 109.391ZM602.894 109.779C600.679 108.251 609.701 106.485 611.624 107.47C611.724 108.413 603.24 109.989 602.894 109.779ZM262.866 108.654C262.686 107.551 258.907 108.881 259.71 109.402C260.216 109.734 262.97 109.34 262.866 108.654ZM616.231 108.116C617.09 107.78 619.084 108.87 618.381 109.533C617.48 110.383 616.01 108.213 616.231 108.116ZM692.824 107.295C692.465 107.126 687.474 108.254 689.535 109.381C690.965 110.164 691.191 108.57 691.527 108.565C691.907 108.571 699.834 110.53 692.824 107.295ZM551.963 108.784C553.833 108.361 556.154 108.855 558.143 108.826C557.332 109.508 552.748 109.691 551.963 108.784ZM277.614 108.365C277.159 107.919 264.549 107.645 271.703 109.021C272.115 109.099 279.032 109.717 277.614 108.365ZM807.611 108.695C807.239 108.682 806.808 108.628 806.305 108.518C806.805 108.562 807.237 108.638 807.611 108.695ZM773.786 108.467C774.452 107.665 771.109 107.446 770.092 107.871C769.79 108.852 773.707 108.58 773.786 108.467ZM558.295 107.706C559.443 107.247 561.522 107.739 562.937 107.686C562.699 108.432 558.793 108.464 558.295 107.706ZM478.069 106.818C480.342 107.263 483.134 107.061 483.178 106.147C483.225 106.29 483.335 106.442 483.517 106.594C483.702 106.745 486.132 106.322 487.187 106.634C493.518 108.489 462.749 107.708 480.588 105.139C479.749 105.699 478.909 106.259 478.069 106.818ZM372.917 106.508C371.624 105.395 368.008 106.787 368.946 107.225C369.598 107.525 374.21 107.627 372.917 106.508ZM422.452 105.873C422.067 105.675 418.548 106.451 418.457 107.037C420.479 107.655 424.205 106.796 422.452 105.873ZM363.001 105.201C362.193 105.033 361.163 106.825 361.257 106.903C362.077 107.558 364.357 106.2 363.001 105.201ZM801.429 103.853C800.279 103.338 796.446 104.628 795.574 105.81C795.416 105.581 794.99 105.282 794.198 104.922C794.2 104.922 794.203 104.922 794.205 104.922C793.331 104.441 762.238 103.868 782.995 106.181C783.653 106.256 782.679 105.191 785.408 105.383C785.588 105.397 785.676 106.265 786.227 106.308C787.581 106.402 793.932 106.959 795.409 106.264C795.42 106.425 795.508 106.578 795.694 106.719C797.391 107.973 802.348 104.251 801.429 103.853ZM429.433 105.718C428.725 105.396 426.481 105.7 426.249 106.465C427.361 106.841 431.078 106.468 429.433 105.718ZM277.23 105.224C275.781 104.594 272.086 105.769 273.202 106.396C273.887 106.781 278.9 105.948 277.23 105.224ZM406.966 106.115C415.251 107.024 408.943 106.043 410.213 104.921C409.13 105.319 408.048 105.717 406.966 106.115ZM839.691 106.847C838.345 106.584 839.953 104.374 841.374 105.581C841.821 105.964 840.443 106.989 839.691 106.847ZM899.277 106.552C898.143 104.586 903.692 105.75 901.53 107.094C901.427 107.139 899.356 106.627 899.277 106.552ZM857.57 105.424C856.625 106.757 856.109 106.913 853.582 106.572C857.316 106.211 853.798 105.013 857.57 105.424ZM483.153 106.004C483.168 106.058 483.18 106.098 483.178 106.147C483.162 106.098 483.155 106.052 483.153 106.004ZM355.237 105.546C354.216 104.412 351.29 104.494 352.16 105.635C352.246 105.741 354.819 106.383 355.237 105.546ZM795.574 105.81C795.715 106.013 795.643 106.144 795.409 106.264C795.398 106.112 795.459 105.97 795.574 105.81ZM370.823 104.63C370.719 105.475 375.152 105.806 375.321 105.706C377.85 104.242 372.664 104.58 370.823 104.63ZM247.954 104.024C247.727 104.112 249.192 106.294 250.095 105.44C250.793 104.777 248.805 103.688 247.954 104.024ZM866.045 104.924C867.477 104.934 869.388 104.947 869.733 105.986C868.801 105.82 866.051 105.685 866.045 104.924ZM897.099 105.125C895.423 106.339 891.58 106.322 889.089 106.105C889.068 104.504 895.534 105.5 897.099 105.125ZM805.249 104.459C805.141 104.394 801.539 103.908 802.058 104.982C802.705 106.558 806.273 105.045 805.249 104.459ZM254.787 105.185C256.369 104.446 252.728 102.172 251.07 103.927C250.216 104.825 254.517 105.308 254.787 105.185ZM346.149 104.058C344.075 104.679 349.215 105.788 349.938 104.665C348.98 104.575 346.886 103.839 346.149 104.058ZM416.636 102.956C410.115 99.7155 413.666 105.624 414.823 105.105C414.986 105.031 416.795 103.033 416.636 102.956ZM43.2577 103.596C42.3653 104.046 45.6863 105.677 46.1551 104.604C46.4213 103.933 43.8074 103.31 43.2577 103.596ZM514.902 105.113C514.624 105.124 514.354 105.134 514.084 105.143C514.287 105.09 514.549 105.073 514.902 105.113ZM327.349 99.713C331.955 104.286 331.477 100.763 331.877 100.782C332.747 100.832 334.761 102.069 336.372 101.866C334.527 102.38 332.649 102.894 330.778 103.408C332.3 103.739 344.993 105.427 345.283 104.686C345.667 103.631 341.646 103.96 341.53 103.867C341.362 103.734 340.736 100.799 340.364 100.688C339.762 100.509 329.077 100.443 327.349 99.713ZM402.981 103.457C404.03 103.806 404.328 104.969 404.815 104.691C404.981 104.596 405.009 103.487 405.576 103.201C404.711 103.286 403.846 103.371 402.981 103.457ZM319.128 103.819C317.832 102.463 323.645 102.981 323.835 103.132C324.831 104.051 320.184 104.927 319.128 103.819ZM368.611 103.645C368.396 103.565 363.914 103.14 363.951 103.892C365.133 104.466 371.133 104.636 368.611 103.645ZM406.277 103.125C407.851 103.255 410.828 104.374 410.487 102.704C410.485 102.704 410.483 102.704 410.48 102.704C409.079 102.844 407.678 102.985 406.277 103.125ZM260.184 101.66C257.304 98.9988 258.665 102.36 261.221 103.219C261.996 102.026 260.657 102.093 260.184 101.66ZM250.812 99.6729C249.985 99.194 241.683 99.715 242.954 101.123C243.397 101.625 248.174 100.362 248.399 100.459C248.735 100.603 247.202 102.16 249.763 101.852C249.613 101.325 251.09 99.8329 250.812 99.6729ZM257.778 99.9558C254.849 97.9319 254.194 101.662 256.393 101.673C257.253 101.68 258.197 100.248 257.778 99.9558ZM269.569 100.279C268.523 99.9243 265.747 99.4071 263.844 100.647C266.391 100.754 268.953 100.861 271.527 100.968C271.824 100.265 270.483 100.59 269.562 100.279C269.564 100.279 269.567 100.279 269.569 100.279ZM914.616 95.5818C912.313 94.5237 917.619 94.1185 917.843 94.3784C918.509 95.2413 915.647 96.0543 914.616 95.5818ZM25.2407 69.6973C24.5873 69.2753 24.2928 67.8877 22.787 68.6141C24.3129 69.639 25.541 70.6637 27.0379 71.6885C28.179 69.342 25.9112 70.1628 25.2407 69.6973ZM19.8776 61.1201C20.0594 61.0633 19.0397 57.454 21.5299 59.8643C23.2893 61.4918 13.8057 63.0737 12.0837 61.4729C14.0824 60.73 18.041 61.5827 19.8776 61.1201ZM3.2522 45.4924C3.12409 45.2045 6.71317 44.7836 7.16478 44.9866C9.3505 46.0569 3.86639 47.0345 3.2522 45.4924ZM14.7333 46.1852C13.0469 45.4838 16.8726 45.0334 17.8996 45.4371C18.042 46.1089 14.9649 46.2874 14.7333 46.1852ZM891.407 43.2748C889.612 40.8126 887.964 46.0819 890.755 45.0349C890.886 44.9856 891.484 43.3953 891.407 43.2748ZM6.76022 41.8531C8.49182 42.5545 4.69612 43.0049 3.60053 42.6013C3.47541 41.9302 6.52233 41.7505 6.76022 41.8531ZM890.168 37.4249C887.799 35.645 888.593 41.5733 888.892 41.8143C890.11 42.7669 894.372 40.4609 895.242 39.8847C888.881 40.7489 891.296 38.2616 890.168 37.4249ZM879.137 40.8531C877.105 41.3734 881.385 42.4263 883.095 41.6091C883.349 41.4875 883.563 41.3249 883.704 41.1136C883.535 41.1236 883.328 41.1203 883.103 41.1081C881.864 41.0412 879.708 40.7059 879.137 40.8531ZM865.299 38.829C864.064 38.6091 860.465 38.0821 859.83 39.0113C861.205 38.849 864.777 39.7846 865.299 38.829ZM862.554 36.0206C860.674 34.7441 860.181 38.4317 862.385 37.3442C862.469 37.3021 862.621 36.0913 862.554 36.0206ZM851.865 34.6391C850.662 33.1668 849.211 36.7349 851.223 36.8391C851.811 36.8634 851.991 34.8079 851.865 34.6391ZM887.244 31.0313C885.528 30.3863 883.301 32.9218 886.961 33.239C885.69 33.6106 884.426 33.9798 883.202 34.3446C883.174 34.3526 883.147 34.3606 883.119 34.3686C883.146 34.3774 883.174 34.3859 883.201 34.3943C887.823 35.822 887.58 32.3015 888.949 32.4596C890.896 32.6808 890.736 35.6076 890.332 36.5252C891.944 34.7431 898.829 34.7373 902.838 34.3985C899.316 33.6419 893.632 32.3228 890.222 31.8243C889.247 31.6805 888.302 32.4771 887.475 32.3805C886.158 32.221 887.343 31.0746 887.25 31.0313C887.248 31.0313 887.246 31.0313 887.244 31.0313ZM837.806 34.5371C834.263 32.8641 836.47 36.4597 838.537 35.8261C838.633 35.7771 837.873 34.578 837.806 34.5371ZM1.93503 30.945C6.84395 32.4468 3.22206 34.4338 13.473 31.4183C9.22199 33.5542 13.2028 32.9553 12.3811 33.8172C11.7818 34.4991 9.1645 33.9332 10.6594 35.3076C8.72673 33.8116 0.400833 34.2221 0.0360038 33.9797C0.0394338 33.9797 0.0428706 33.9797 0.0463159 33.9797C-0.175498 33.8358 0.37638 30.4674 1.93503 30.945ZM865.338 29.4439C864.149 25.0821 863.594 31.9907 861.225 28.3691C858.014 33.5925 870.021 28.4176 871.544 32.8622C858.391 32.2518 880.221 37.3167 871.047 30.6179C878.656 33.0894 873.562 29.8192 874.747 28.985C876.003 28.0948 880.424 29.1322 880.226 27.5094C880.224 27.5093 880.222 27.5093 880.219 27.5092C877.511 27.5801 874.819 27.6669 872.199 27.7585C874.688 31.2785 869.385 30.1847 867.59 27.3236C866.841 28.0301 866.041 28.7366 865.338 29.4439ZM880.258 32.8691C879.986 32.7797 874.207 33.2017 874.531 33.9103C875.3 34.3565 883.574 33.9431 880.258 32.8691ZM904.637 32.2585C902.622 32.2484 899.51 31.5606 898.414 32.8772C900.422 32.8909 903.537 33.5777 904.637 32.2585ZM800.434 31.5102C797.88 32.5879 805.742 32.9241 803.461 31.6373C803.284 31.5766 800.573 31.4599 800.434 31.5102ZM859.424 30.0706C856.808 28.7273 858.069 32.9693 859.956 31.8746C860.064 31.8101 859.543 30.1319 859.424 30.0706ZM5.89818 30.4317C6.0738 29.3939 13.0937 30.1254 14.3982 30.1169C13.6392 31.0813 5.68397 31.6214 5.89818 30.4317ZM908.19 28.3783C904.174 24.6453 898.746 28.9464 898.154 28.8501C897.561 28.7527 898.494 27.1236 898.358 27.0795C898.046 26.989 891.784 27.1046 891.489 27.2143C891.272 27.3018 892.393 29.6 891.099 30.3155C893.589 29.0328 905.115 29.8665 905.723 29.6104C906.189 29.4078 902.686 26.9983 908.183 28.3783C908.185 28.3783 908.188 28.3783 908.19 28.3783ZM896.671 28.3468C898.24 29.3122 893.834 29.42 892.785 29.0597C890.43 28.2562 896.465 28.2341 896.671 28.3468ZM886.215 27.4041C885.95 27.2851 884.545 27.1608 883.305 27.2341C882.255 27.2965 881.148 27.5014 880.967 27.9905C881.638 28.4234 882.488 28.5891 883.286 28.5924C885.11 28.5998 886.987 27.7604 886.215 27.4041ZM835.017 27.2023C833.806 27.3357 830.504 26.5044 830.346 27.4388C831.452 27.3054 834.849 28.1366 835.017 27.2023ZM30.0243 22.2815C28.0055 21.4986 32.7747 21.1808 33.9753 21.5564C34.0885 22.1801 30.1833 22.3488 30.0243 22.2815ZM859.03 21.1301C858.238 20.8393 843.918 21.4924 841.861 21.9254C843.864 22.637 858.072 22.747 858.795 22.408C858.983 22.3056 859.119 21.1752 859.03 21.1301ZM890.146 20.9854C891.437 19.6164 892.269 21.271 892.433 21.2926C894.031 21.5112 897.361 21.2102 896.628 22.5339C893.777 21.9941 887.577 23.7038 890.146 20.9854ZM834.001 20.9703C828.997 21.4668 838.548 22.9447 837.248 21.5022C837.184 21.4149 834.532 20.9182 834.001 20.9703ZM860.622 20.7368C861.662 19.6252 876.247 20.6754 878.756 20.7282C876.557 22.7505 874.863 21.1745 872.026 21.2554C871.254 21.2798 871.446 22.135 871.364 22.1357C870.03 22.1649 871.037 21.1868 870.237 21.1658C869.673 21.1511 859.146 22.2948 860.622 20.7368ZM890.886 20.036C891.652 19.2557 900.507 18.9448 900.873 19.1524C903.544 20.719 891.525 20.3218 890.886 20.036ZM859.324 18.9063C860.878 16.5282 868.13 18.1666 863.13 19.327C862.731 19.4329 860.6 18.388 859.324 18.9063ZM834.537 18.7013C834.256 18.6302 829.203 18.1395 829.109 18.898C829.797 19.1944 837.295 19.4805 834.537 18.7013ZM837.162 16.1433C837.038 16.1611 838.212 17.6258 835.867 17.4336C835.657 17.4156 835.352 15.7705 832.23 16.3635C831.636 16.4858 830.721 17.5708 830.785 17.6386C833.93 20.2268 843.348 15.3148 837.162 16.1433ZM891.052 18.7048C890.587 18.0083 891.729 15.9551 892.755 17.0026C893.196 17.4548 892.364 18.6877 891.052 18.7048ZM818.314 17.9929C821.215 16.7505 812.109 16.4933 811.503 16.812C811.862 17.5907 818.079 18.1143 818.314 17.9929ZM34.6588 12.6408C34.6565 12.6408 34.6542 12.6408 34.6519 12.6408C37.1524 12.9248 35.6048 13.9633 35.719 13.996C41.0809 15.5243 39.5893 13.1702 40.4393 12.8928C42.1897 12.2927 42.0856 15.1548 44.942 13.9692C40.0606 15.7197 44.5286 14.9868 44.6433 16.0051C45.237 20.1606 38.1034 14.0569 35.5557 14.9269C35.1961 15.0474 37.8119 16.3745 36.9022 16.7514C33.9872 17.9728 25.1134 11.5549 34.6588 12.6408ZM893.549 16.8243C894.668 15.6116 903.329 16.8122 901.031 17.813C900.65 17.9765 891.869 18.599 893.549 16.8243ZM483.999 14.2569C486.107 13.2018 481.224 11.9573 480.317 12.779C479.867 13.1883 483.074 14.7199 483.999 14.2569ZM449.76 9.71996C447.257 9.93307 444.616 14.3365 447.73 13.6546C448.061 13.5801 450.047 10.3311 449.76 9.71996ZM614.155 12.0839C611.519 10.5078 611.673 13.4327 613.61 13.3929C614.294 13.3793 614.238 12.1338 614.155 12.0839ZM514.365 12.3972C514.105 12.2949 511.093 12.4799 511.203 13.1522C512.317 13.5561 516.049 13.099 514.365 12.3972ZM614.992 11.6682C613.43 12.1942 616.118 14.3116 618.018 12.2457C617.054 12.4145 615.153 11.6145 614.992 11.6682ZM853.927 12.4183C852.559 13.6134 848.87 13.236 846.824 13.4352C846.563 11.8781 852.382 12.6935 853.927 12.4183ZM460.389 11.4966C458.017 12.592 463.097 13.4925 462.631 12.0428C462.567 11.964 460.483 11.4499 460.389 11.4966ZM698.508 11.5798C696.764 12.5062 702.296 13.7598 700.775 12.1269C700.702 12.0603 698.606 11.5282 698.508 11.5798ZM722.394 12.142C721.128 11.8275 715.554 11.9178 717.722 12.8257C718.068 12.9652 722.306 12.992 722.394 12.142ZM40.5871 11.7727C39.8491 10.174 44.0809 10.5561 44.5735 10.8356C44.8319 10.9519 41.5182 13.8526 40.5871 11.7727ZM597.185 11.8219C595.831 12.021 592.274 11.6385 591.672 12.4766C593.324 12.3041 597.637 13.4926 597.185 11.8219ZM471.192 11.4949C469.132 9.75694 465.607 9.92646 466.477 12.1962C470.37 12.0462 465.998 10.1562 471.192 11.4949ZM623.71 9.80526C622.632 9.67196 621.801 11.8507 621.923 11.9534C623.094 12.9311 624.78 10.654 623.71 9.80526ZM542.311 11.5436C542.25 10.6122 538.764 11.0328 539.228 11.6325C539.382 11.8339 542.362 12.2973 542.311 11.5436ZM808.327 11.7569C806.787 10.9035 811.46 10.0823 813.03 11.0783C813.707 12.5097 808.504 11.8548 808.327 11.7569ZM653.806 10.374C653.976 8.99197 648.501 9.76891 650.658 10.9163C651.2 11.2034 653.75 10.8361 653.806 10.374ZM705.841 8.76398C702.199 10.4084 717.473 11.5944 713.461 9.53632C713.112 9.38958 706.153 8.62508 705.841 8.76398ZM730.865 9.82051C730.23 9.63817 730.564 4.99421 733.153 6.78817C733.493 7.02083 731.9 8.24667 732.177 8.52781C732.359 8.68803 737.928 9.34696 738.163 9.23885C738.436 9.11607 738.116 7.62712 738.395 7.4605C738.732 7.27429 742.302 8.58631 744.123 8.60291C747.564 8.6318 747.906 7.39331 748.188 7.38956C749.016 7.38243 750.276 8.26377 752.012 8.26499C760.605 8.26638 773.058 7.23458 779.961 9.87283C773.901 8.80811 768.509 9.91912 762.425 10.2548C764.144 7.67098 753.889 12.2354 759.898 9.2597C757.129 9.90242 732.834 10.3893 730.872 9.82052C730.869 9.82052 730.867 9.82051 730.865 9.82051ZM439.881 8.41302C441.419 6.82808 433.529 7.18072 432.857 9.01491C433.9 9.27003 439.69 8.59265 439.881 8.41302ZM476.287 4.56477C477.021 4.29146 477.721 1.19225 481.567 2.76634C481.57 2.76634 481.574 2.76634 481.577 2.76634C482.702 3.22604 481.42 3.98059 481.626 4.24982C481.701 4.35976 485.206 5.90357 482.294 6.14993C477.851 6.5279 481.877 3.8438 479.508 3.80967C479.219 3.80698 474.73 5.4823 474.99 5.85073C475.018 5.89365 476.368 5.53946 476.591 5.69267C477.433 6.26856 477.023 7.23625 477.141 7.28239C477.531 7.40063 484.622 5.75554 485.65 7.19626C485.989 7.66082 474.344 8.72569 473.893 8.48402C473.607 8.33172 473.729 5.64503 473.433 5.38063C473.281 5.24892 468.61 6.2532 468.003 6.00588C467.827 5.93435 467.692 5.85727 467.594 5.79374C468.301 6.62537 464.067 6.56324 464.197 5.6254C464.271 5.25681 467.185 5.47175 467.289 5.53624C467.335 5.56355 467.375 5.60117 467.412 5.62713C466.811 4.61378 476.666 4.66482 474.539 3.15605C477.406 2.33172 474.131 5.36745 476.287 4.56477ZM490.043 2.91486C489.748 3.19725 489.453 3.47965 489.158 3.76205C494.144 3.07323 499.957 4.43674 505.721 4.42993C507.184 4.43026 505.502 2.70118 507.419 3.17451C508.954 3.55384 510.651 5.15771 509.817 5.51461C509.613 5.60366 506.49 4.55785 504.922 4.6641C500.296 4.97863 501.462 6.46126 501.192 6.50114C500.894 6.54309 497.978 5.49924 496.383 5.54475C492.376 5.66243 490.572 6.57127 485.111 5.37948C488.261 4.40454 486.538 2.28177 490.043 2.91486ZM676.739 6.2007C676.939 5.26809 680.126 6.09856 681.38 5.96271C681.165 6.89759 677.908 6.06467 676.739 6.2007ZM188.324 4.72211C187.336 6.25241 194.868 6.63435 192.882 5.35965C192.465 5.07675 189.303 4.73338 188.324 4.72211ZM222.237 5.66637C223.259 5.24358 219.143 4.13987 219.154 5.32456C219.158 5.70445 222.103 5.72136 222.237 5.66637ZM554.767 4.45959C554.961 4.41179 557.754 4.75449 557.84 4.83242C559.688 6.45889 550.506 5.51366 554.767 4.45959ZM263.414 3.79846C259.91 4.80031 270.461 5.23952 267.236 3.95898C267.073 3.8966 263.58 3.74977 263.414 3.79846ZM278.161 3.52455C277.354 3.57798 273.543 3.07824 273.502 3.54531C273.42 4.29882 277.767 4.81553 278.161 3.52455ZM624.442 4.02337C624.057 2.29839 628.885 3.60815 630.671 3.39235C631.061 5.11853 626.137 3.80684 624.442 4.02337ZM593.242 2.72923C614.12 1.38439 609.555 5.06597 591.994 3.56849C591.972 2.46203 591.912 2.81393 593.242 2.72923ZM619.947 2.95281C619.19 4.05714 616.822 3.72775 615.213 3.63805C615.504 2.87008 618.797 3.15053 619.947 2.95281ZM179.322 2.34963C180.599 0.954388 186.396 2.67734 185.367 3.25264C185.112 3.37687 178.835 3.117 179.322 2.34963ZM556.524 2.98483C556.041 1.30721 562.317 1.99541 562.791 2.36823C564.724 3.86778 557.04 2.61494 556.524 2.98483ZM654.016 2.57086C655.125 1.25797 658.253 1.93632 660.245 1.95545C659.339 3.07808 655.734 2.59592 654.016 2.57086ZM639.453 1.52975C639.581 1.47942 642.377 1.60025 642.5 1.66083C644.79 2.94588 636.878 2.61097 639.453 1.52975ZM31.2243 0.0225983C31.3312 -0.0196991 33.4836 0.0648804 33.5294 0.114285C35.429 1.37638 29.014 1.11623 31.2243 0.0225983Z" fill="#B3F4FF" fill-opacity="0.5"/>
</svg>
