<svg id="paint-mobile" width="248" height="107" viewBox="0 0 248 107" fill="none" xmlns="http://www.w3.org/2000/svg">
<path d="M15.0601 99.8753C15.1847 99.7711 15.5809 100.045 15.8249 100.076C15.8508 100.08 15.8748 100.08 15.8963 100.077C15.8679 100.181 15.8358 100.269 15.8011 100.345C15.3871 101.221 14.6097 100.263 15.0601 99.8753ZM56.4596 8.46289C56.0422 8.71199 55.6181 8.96118 55.1875 9.21079C56.1828 9.6355 57.5049 9.68118 58.238 10.175C58.3579 10.2571 57.7996 11.1133 58.1009 11.2272C58.3989 11.3404 58.6409 10.0491 59.1115 10.016C59.6767 9.98927 61.482 11.3732 62.0528 11.4943C64.354 11.9798 66.114 11.6401 66.8609 12.3505C65.6249 13.0755 66.519 14.2838 66.7939 13.907C66.8155 13.8115 67.5064 11.4645 67.6402 12.1087C67.6416 12.1253 67.6413 12.1469 67.6397 12.1731C68.3258 12.8942 66.1752 15.7329 65.5723 14.0279C66.6318 11.659 65.0428 11.7244 66.1262 11.7018C66.1788 11.6923 67.6112 12.1058 68.3971 12.013C68.6549 11.9812 69.0696 10.7118 69.4345 10.685C69.6703 10.6672 69.849 11.3692 70.2201 11.3397C71.5812 11.2376 73.0032 11.1942 74.4453 11.3043C74.8181 11.3334 75.2147 11.3736 75.6082 11.4263C74.4862 14.701 76.4454 12.8327 76.5443 12.9901C76.9819 13.8851 74.9629 14.1232 75.7522 14.687C76.8833 14.5942 77.9889 14.4999 79.1373 14.405C78.2062 13.9963 80.3851 11.6471 80.7762 12.7234C80.6121 9.82183 85.9676 15.2734 86.8029 14.3067C86.9752 14.1027 85.8578 12.6646 88.4617 13.3302C88.7445 13.4041 88.6343 14.2791 88.7833 14.1981C88.8744 14.1493 89.4184 11.3687 89.9861 12.9082C90.1933 13.4701 88.8486 15.2932 91.7923 14.5684C90.629 11.7327 95.8816 13.0477 96.8503 13.7602C96.6577 13.3792 96.4652 12.9981 96.2727 12.617C97.2281 13.6463 97.4038 12.684 97.6196 12.7371C98.489 12.9505 99.6837 13.9246 100.496 13.8385C101.448 13.7396 101.453 11.9784 102.562 12.667C102.301 12.2776 102.038 11.8881 101.776 11.4987C102.544 11.5947 103.304 11.6907 104.075 11.7869C102.288 14.1124 104.459 11.8994 104.599 11.8497C104.826 11.7656 104.498 12.7189 104.876 12.6014C104.916 12.5819 104.86 11.6829 105.448 11.584C106.674 11.3804 106.471 12.5098 106.989 12.4989C107.036 12.4932 106.876 11.6829 107.763 11.4946C110.595 10.8955 107.74 12.115 107.638 12.2266C107.495 12.3737 108.451 15.761 106.059 14.5525C106.857 14.9373 106.938 16.4351 107.027 16.4726C107.11 16.5034 108.499 16.2976 108.58 16.2464C109.269 15.7406 108.669 14.715 108.803 14.5321C108.912 14.3847 110.593 15.725 110.997 12.6489C111.787 15.4913 110.525 15.2256 109.172 15.6567C108.971 16.2384 110.453 16.8109 110.531 16.8097C112.443 16.8127 111.397 14.473 111.822 12.9821C112.047 12.202 112.817 13.7987 112.108 11.7015C113.849 11.4886 112.79 12.6971 112.899 12.8771C113.07 13.1418 113.684 12.5446 113.759 12.6249C113.87 12.7438 113.479 13.4669 113.917 13.7244C113.988 13.7619 114.705 12.5179 113.794 11.9171C115.022 12.1006 114.931 11.0365 115.333 13.1824C116.204 9.13139 115.939 15.5832 116.271 15.8124C117.151 16.4166 116.914 13.2309 116.961 13.0759C117.305 12.0825 119.755 13.193 120.395 12.7397C120.132 15.031 118.417 12.7499 118.029 13.1925C116.741 14.6643 119.835 14.3515 118.882 17.2269C119.277 16.4382 119.672 15.6497 120.077 14.8613C120.613 16.2744 120.151 17.0755 120.743 17.0875C120.938 17.0914 121.242 17.0169 121.705 16.8588C121.947 15.6866 121.098 16.3655 120.749 16.3116C120.631 16.2921 120.58 16.1767 120.671 15.8427C120.691 15.7703 120.72 15.7035 120.755 15.6417C121.104 15.0735 122.01 14.918 122.04 14.5668C122.061 14.0977 121.045 14.6447 121.209 13.9245C121.553 12.3689 125.326 13.8907 122.449 14.7111C123.234 14.6922 123.627 17.7942 124.326 16.837C124.783 16.2163 122.292 11.9068 126.094 12.7388C126.161 14.2022 124.567 13.1511 124.525 13.2623C124.465 13.4236 124.716 16.7275 124.763 16.891C124.925 17.4274 128.852 15.7156 129.647 17.3912C129.364 15.4769 132.597 17.1074 132.946 16.535C133.043 16.3766 132.719 15.2009 132.822 15.0793C133.464 14.3566 135.065 16.479 135.796 16.5493C136.62 16.6288 136.536 15.6173 136.582 15.6203C136.938 15.6843 136.638 16.3622 136.856 16.365C137.195 16.3697 139.421 16.5543 139.529 16.4127C139.562 16.3688 139.223 15.2095 139.708 14.9997C139.793 14.9631 139.714 16.3299 141.15 15.763C142.875 15.0801 139.993 14.0444 140.727 12.6245C141.79 14.6803 141.784 12.6597 142.083 12.8229C142.192 12.8823 142.931 14.6106 143.775 14.5124C143.164 14.7835 142.562 15.0541 141.954 15.3238C142.54 15.6339 143.699 15.2765 144.186 15.6223C144.423 15.7907 144.204 17.199 144.735 17.1669C144.853 17.1523 145.314 13.7211 143.943 15.247C143.85 14.0186 144.476 14.8254 144.792 14.4817C144.844 14.4282 145.034 12.3801 145.407 13.6583C145.495 13.9621 144.489 19.5562 146.836 16.0326C146.914 15.9125 146.996 15.7819 147.082 15.6401C147.166 15.5013 146.884 14.7498 146.967 14.5952C147.02 14.4906 147.687 14.7993 147.766 14.6937C147.844 14.5803 147.522 13.7599 147.615 13.5998C148.097 12.7747 148.666 16.0223 147.715 15.7675C148.041 16.1711 148.341 16.5743 148.665 16.9775C148.337 14.5308 149.182 16.2938 149.622 16.2214C152.492 15.7589 150.582 14.1568 151.08 13.3376C151.891 12.0217 151.248 16.2009 152.439 14.9505C152.548 14.8334 151.129 13.0512 153.916 14.0667C153.499 14.134 153.093 14.2011 152.68 14.2682C152.903 16.6335 154.17 14.1133 154.266 14.0805C155.357 13.7606 154.625 14.61 156.255 13.3989C156.4 13.2902 156.721 13.8748 157.033 13.5848C158.327 12.3903 155.328 12.8513 155.25 11.8935C155.213 11.4248 158.435 11.5542 158.549 11.7768C159.019 12.7654 157.081 12.207 157.447 13.4336C157.585 13.87 162.191 12.9881 163.12 13.4655C164.187 14.0221 164.668 17.2277 164.678 13.6264C164.975 17.1618 165.245 14.7501 165.382 14.7746C167.036 15.1033 167.04 15.1389 168.46 14.8007C168.773 14.7272 169.038 15.7998 169.149 15.6187C169.213 15.5093 169.092 14.3615 169.409 14.0073C169.847 13.523 172.485 14.7021 172.683 15.3362C172.88 15.9706 171.567 15.6123 171.804 16.6553C172.754 16.7601 173.663 16.501 174.617 16.6096C175.013 16.6578 174.811 17.3882 174.981 17.4025C175.057 17.4114 176.424 16.766 176.364 16.4967C176.231 15.8713 172 16.2978 173.113 15.0184C173.326 14.7713 174.089 16.4529 173.965 14.407C177.741 14.8659 181.514 15.3196 185.262 15.7642C183.11 17.3058 180.683 15.946 178.411 16.0953C178.095 16.1139 177.049 15.9189 177.178 16.9528C179.111 17.2164 181.506 16.67 183.352 17.3358C183.411 17.3579 183.2 18.2879 183.42 18.4342C183.84 18.7073 185.169 17.2023 185.403 17.5885C185.443 17.6786 184.677 18.9074 184.915 19.6846C185.531 21.6791 185.658 17.2539 186.163 17.3035C186.57 17.3442 189.234 19.466 189.868 18.1085C190.554 16.6626 187.92 17.287 188.11 16.1073C188.989 15.5116 189.9 15.5224 190.758 15.6627C191.656 15.8038 192.487 16.0767 193.324 15.9925C193.352 15.9884 193.095 15.0684 193.452 14.9349C194.091 14.7021 194.253 16.0091 194.572 16.2141C194.911 16.4326 196.046 16.2267 196.212 16.7008C196.233 16.7631 196.023 18.0656 195.987 18.1027C195.501 18.6463 195.289 16.9636 195.242 16.9428C195.066 16.8816 194.915 17.5295 194.754 17.4934C194.489 17.4331 194.338 16.8379 193.995 16.7897C193.754 16.7543 194.002 17.8981 193.767 17.8487C193.672 17.8262 192.739 15.2181 192.674 17.8924C192.735 18.7455 200.034 19.7032 200.545 18.9881C199.957 18.686 199.376 18.3812 198.779 18.0749C199.997 18.8278 201.298 16.6427 201.536 19.796C203.03 19.8303 205.366 19.8198 207.547 19.8663C207.649 19.8227 207.999 19.9003 208.101 19.8582C211.398 20.0011 214.683 20.1371 217.936 20.2608C218.825 20.5175 218.375 22.5555 219.823 21.9425C219.431 21.3015 219.054 20.66 218.661 20.0186C219.42 20.4632 222.731 21.2944 223.245 20.8635C223.307 20.8073 223.38 18.9679 224.174 18.7934C224.893 18.6386 225.025 20.0129 225.416 20.2678C225.737 20.4781 226.084 20.1086 226.179 20.1823C226.252 20.2414 226.302 21.0825 226.476 21.225C227.029 21.6649 226.531 19.306 227.138 22.0136C227.012 22.1208 226.883 22.228 226.753 22.3352C227.416 22.7123 228.341 23.9219 227.395 24.5589C227.236 24.6686 227.353 23.8503 227.232 23.8551C222.316 24.1256 226.326 25.6192 227.959 24.3047C228.452 25.501 230.713 24.6829 230.754 24.9157C230.866 25.2558 230.548 26.2352 231.054 27.0472C231.109 27.1332 231.842 26.9749 232.246 27.0031C232.662 27.0305 232.653 27.2608 232.61 28.0692C232.593 28.2365 232.383 28.2475 232.039 28.2267C231.701 28.2058 231.287 28.1496 231.121 28.1806C231.791 30.131 232.955 28.322 232.592 27.4925C232.896 27.336 233.983 27.5194 234.295 27.3796C234.631 27.1141 234.856 26.9319 234.94 26.9506C235.761 27.1557 234.773 27.8876 234.34 28.5166C234.039 28.6513 232.991 28.4746 232.698 28.6254C232.749 28.8771 232.774 29.115 232.761 29.2987C233.047 29.1512 234.072 29.3241 234.366 29.1923C234.554 29.3218 234.928 29.4118 235.481 29.45C237.726 29.6227 235.599 27.965 236.433 27.2161C236.94 26.7926 239.236 28.6455 239.138 26.2107C239.899 25.9432 239.463 27.238 239.558 27.3299C239.656 27.41 241.117 26.67 241.582 27.1823C241.639 27.2459 241.466 28.5135 241.525 28.6169C241.642 28.7935 243.013 28.5355 243.065 28.4283C243.1 28.3536 242.772 27.2454 242.905 26.976C243.061 26.6652 244.367 26.9237 244.436 26.6067C244.539 26.127 242.928 26.4459 243.193 25.2052C243.943 25.5155 245.141 24.6868 245.623 23.6881C245.504 23.9736 244.794 24.0151 244.543 23.9149C244.661 22.098 246.189 22.1218 245.667 23.5599C245.997 22.7876 245.772 22.3781 245.958 21.6493C246.007 21.4647 246.475 21.4265 246.566 21.112C246.577 21.0493 246.094 20.364 246.19 19.9951C246.368 19.3282 247.781 19.4781 247.894 19.6531C248.218 20.1487 247.071 20.7485 246.974 21.5147C246.961 21.6324 247.938 23.1339 247.952 23.2665C248.009 24.6893 246.923 23.664 247.047 24.945C247.316 25.2156 247.585 25.4862 247.853 25.7568C246.823 27.0539 244.881 26.3876 244.375 27.8642C245.945 27.423 247.55 27.4755 247.547 30.7985C247.546 32.198 246.883 33.0185 246.908 33.3743C247.007 34.6475 247.926 33.2643 247.959 33.3316C247.987 33.4092 248 33.4847 248 33.5582C248 33.5583 248 33.5583 248 33.5583C248.001 34.3038 246.689 34.8407 246.623 35.1811C246.512 35.7857 247.098 38.2745 247.097 38.825C247.076 38.9355 246.141 39.5247 246.457 40.4853C246.777 41.4555 247.594 41.4769 247.622 41.5777C247.778 42.1582 246.349 42.6877 246.306 43.0306C246.283 43.2039 247.052 44.2686 247.074 44.5747C247.093 44.8819 246.51 45.5522 246.28 46.5219C246.109 47.2423 246.608 47.7945 246.52 47.9074C246.458 47.9822 245.105 47.9706 245.038 48.0974C244.938 48.2848 245.257 49.1454 245.211 49.3607C245.145 49.6704 244.708 49.36 244.765 49.6785C244.809 49.9157 246.503 52.8826 246.491 53.6755C246.472 55.0275 244.683 51.9173 246.349 57.2523C246.36 57.2873 246.765 56.908 246.776 56.9409C247.025 57.9226 245.73 59.4329 247.315 59.1687C244.367 60.8744 246.948 61.2013 246.512 63.4781C246.344 64.3531 245.204 64.7146 245.199 64.8459C245.311 65.956 245.673 65.0948 245.797 65.6391C245.865 65.9431 244.847 67.1176 245.077 67.8796C245.196 68.2722 246.277 68.1319 246.321 68.2085C246.75 68.931 246.225 69.7095 246.319 70.2228C246.381 70.5669 247.034 70.594 247.052 70.656C247.079 70.7849 246.193 72.1755 246.009 72.6644C245.869 73.0405 246.395 73.6295 246.297 73.7935C245.708 74.7739 244.459 72.2746 245.665 75.7774C245.738 75.9923 246.194 75.9053 246.207 75.9481C246.489 76.9413 245.65 77.0274 245.501 77.8406C245.245 79.2418 246.448 78.46 245.447 79.4459C246.198 80.3617 246.617 80.3234 247.502 80.068C245.055 80.7807 244.209 84.4086 246.908 84.3162C246.046 84.2598 246.144 86.3069 245.888 86.3429C245.728 86.3629 244.49 84.3287 245.06 88.8948C245.132 89.4652 245.883 88.7399 245.648 89.9076C243.848 89.6111 245.609 90.6505 245.612 90.8049C245.572 93.4934 241.235 91.2984 240.567 91.6145C239.747 91.9763 239.09 94.1048 238.929 94.1099C238.396 94.1186 238.822 93.036 238.697 92.6421C238.532 92.2505 237.204 94.3413 237.215 94.2305C237 93.7823 237.164 92.5011 237.142 92.4374C237.077 92.2592 236.947 92.1777 236.829 92.1537L238.628 92.0345C236.519 92.1323 234.741 92.7395 234.051 92.5451C234.095 93.3732 235.888 93.3495 234.833 94.7327C233.62 96.3412 233.439 92.6947 233.392 92.5368C228.071 92.7794 223.495 92.8783 218.761 92.9824C218.844 94.9228 221.906 93.4136 221.981 93.6667C222.416 95.1748 217.206 95.223 216.571 94.5426C217.059 94.9559 217.544 95.369 218.035 95.7817C217.233 98.0234 215.377 95.147 214.204 96.144C213.823 96.4673 214.571 97.3205 214.556 97.3794C214.134 98.2504 213.43 97.59 213.938 96.4214C212.902 97.5466 213.036 96.3154 212.233 96.2307C212.191 96.2272 212.546 97.1242 211.913 97.5033C211.612 97.6804 210.022 97.697 209.816 98.4859C209.728 98.8182 210.57 102.302 210.643 99.2969C212.386 100.746 211.185 97.923 211.859 97.986C211.964 98.0006 211.734 99.6805 213.43 98.8743C213.138 101.902 211.151 99.6589 210.828 100.028C210.143 100.787 213.003 102.323 213.507 99.9601C213.289 102.322 213.707 100.276 214.351 100.366C215.049 100.464 214.751 101.17 215.128 101.17C216.17 101.176 215.711 99.5151 216.587 101.007C215.697 96.3677 218.043 100.376 218.729 101.584C217.646 101.834 216.546 102.084 215.47 102.332C215.535 102.575 215.6 102.819 215.665 103.062C215.379 103.031 215.087 103 214.805 102.968C214.848 102.734 214.891 102.499 214.933 102.265C213.474 103.802 213.103 102.095 212.981 102.077C211.641 101.918 210.125 101.92 208.731 101.927L209.324 101.918C209.156 101.921 209.007 101.924 208.848 101.927C208.669 101.932 208.852 103.445 207.534 102.296C207.092 101.933 207.463 100.734 206.964 100.931C206.43 104.17 206.32 101.607 206.107 101.611C205.476 101.636 205.054 102.45 204.994 102.461C204.123 102.619 202.737 102.533 201.735 102.679C201.716 102.692 202.275 103.665 201.603 103.391C201.367 103.294 199.217 99.1285 197.573 100.531C198.014 100.808 198.473 101.084 198.921 101.36C198.362 100.977 194.792 102.094 195.683 103.21C196.241 103.893 197.503 101.153 197.709 103.764C196.868 103.258 193.694 103.651 191.551 103.776C190.502 103.84 189.686 103.84 189.519 103.639C189.45 103.553 189.866 102.702 189.77 102.594C189.69 102.512 188.253 102.723 188.05 102.398C187.934 102.205 188.576 101.681 188.521 101.376C188.468 101.158 186.671 100.806 186.57 101.87C187.017 101.441 188.251 101.806 187.61 102.706C187.528 102.818 187.09 102.135 186.988 102.277C186.045 103.585 188.881 103.256 189.314 103.263C187.533 104.631 184.796 103.048 182.754 103.939C181.92 103.057 183.977 102.58 183.037 101.85C181.096 100.338 182.526 103.076 182.464 103.189C181.993 104.084 180.336 99.3038 180.349 102.946C179.646 102.4 179.869 101.94 178.886 102.42C179.017 102.672 179.147 102.924 179.277 103.175C178.182 105.289 175.856 99.9699 176.03 99.5634C176.49 98.4758 177.706 100.168 177.807 100.127C177.957 100.067 178.373 96.3695 180.051 99.6697C180.726 97.1886 177.399 98.0036 178.911 96.3097C177.886 96.5905 173.683 94.8721 173.08 95.9603C173.008 96.1024 173.347 98.5724 172.307 97.316C171.814 96.7177 173.003 96.6879 172.776 96.1254C172.081 94.4016 162.655 95.5032 160.861 95.5874C160.744 95.5899 160.788 94.8233 160.674 94.8301C160.322 94.8508 159.037 95.9909 158.411 95.6361C159.71 97.0589 157.174 97.1621 156.534 97.0035C155.549 96.7622 155.619 95.4132 155.2 95.1246C153.576 94.0125 151.019 97.2025 149.765 94.1995C149.805 97.172 147.569 92.7276 146.516 92.6918C146.395 92.6875 146.266 92.7276 146.138 92.8028C145.376 93.2308 144.66 94.7987 145.583 95.8268C144.166 95.6764 142.656 96.2133 141.306 96.3746C141.086 96.4017 141.402 95.5274 141.024 95.6014C140.989 95.6144 140.926 96.4749 140.597 96.5595C137.89 97.2672 139.226 95.4575 138.734 94.9114C138.464 94.6053 138.249 94.4515 138.099 94.3994C139.682 94.2606 141.481 93.948 141.974 93.9299C141.585 92.0241 138.495 94.2431 137.601 93.7124C137.57 93.6932 137.699 92.6472 137.668 92.6392C137.667 92.6392 137.666 92.6392 137.666 92.6392C137.33 92.5532 135.202 92.8959 135.614 94.1545C135.718 94.4907 136.7 94.5112 137.869 94.4195C137.549 94.648 137.762 95.8265 137.706 95.8755C137.014 96.4434 135.386 95.2633 134.82 95.096C134.688 95.0592 134.682 95.8115 134.66 95.8129C134.142 95.6306 134.404 93.4876 133.823 95.6906C132.944 92.9932 135.595 95.3322 135.449 93.5894C135.272 92.2473 129.418 92.8358 129.44 94.9491C129.425 94.7232 129.354 94.4418 129.2 94.1203C128.86 93.4054 127.279 93.599 127.008 93.9837C126.96 94.0595 126.946 96.1065 126.888 96.1245C126.747 96.1687 124.856 94.5356 124.111 95.7371C124.506 96.0289 124.875 96.3207 125.267 96.613C122.921 96.5998 123.284 97.2153 124.049 97.8362C124.088 97.8422 124.123 97.9204 124.162 97.9292C124.771 98.3893 125.53 98.8359 125.54 98.9975C125.57 99.612 121.61 99.9084 122.384 98.0187C122.501 97.7599 124.333 98.6268 123.434 97.2612C123.272 97.0216 122.078 97.3956 122.023 97.2458C121.605 96.2479 124.233 94.9576 123.927 93.5435C123.282 94.8791 122.469 94.1626 121.751 94.5024C121.419 94.656 121.324 95.6815 121.283 95.7004C120.675 95.9627 121.025 94.8899 120.823 94.9149C120.766 94.9242 120.397 95.5671 120.09 95.7027C119.831 95.8233 119.622 95.5425 119.741 94.0573C116.249 96.0477 117.985 96.3237 120.085 96.2588C120.414 96.2492 120.743 96.2316 121.058 96.2111C120.801 96.5964 120.458 96.7871 120.08 96.8807C119.371 97.065 118.542 96.8743 118.09 97.0481C117.843 97.1433 117.977 98.1977 117.563 98.4057C116.706 98.8325 112.623 97.6005 111.544 97.311C112.203 96.9418 112.017 95.7934 111.508 95.8704C110.996 95.9479 111.419 97.4815 111.318 97.6457C111.204 97.8156 108.825 97.0827 108.424 97.2798C110.221 96.7321 109.825 95.5861 108.297 95.4604C108.52 95.1316 108.742 94.8029 108.964 94.4741C108.066 94.9337 106.18 93.1812 105.662 93.6989C105.581 93.7821 105.87 94.7453 105.824 94.7921C105.367 95.1993 103.819 94.2128 103.746 94.5409C103.684 94.8139 104.343 95.6228 104.096 96.0191C104.046 96.1026 103.407 94.7999 102.78 95.1176C102.547 95.2344 102.684 96.1448 102.625 96.1974C102.134 96.6336 102.429 95.1021 101.531 95.3455C100.876 95.5257 100.38 97.0222 99.4747 96.5232C102.449 98.4422 99.9459 97.6367 98.6981 98.2116C98.498 98.3033 98.6642 99.9558 97.4726 99.1478C100.023 96.1686 96.7538 97.5668 96.0839 97.5322C96.0473 97.5219 96.038 96.4325 95.7102 96.4141C95.6825 96.4149 95.72 97.1512 95.4153 97.2066C92.5206 97.7299 94.3732 96.904 93.826 96.1763C93.5942 95.8662 92.1814 96.9028 91.8028 96.9267C91.7153 96.929 91.7578 96.1642 91.4195 96.193C90.821 96.246 90.2872 97.0586 89.8893 97.1218C89.8435 97.1254 89.8441 95.9184 89.0968 96.3073C88.887 96.416 88.6509 96.8437 88.9467 97.1918C89.9295 98.3367 91.8216 96.3675 92.9308 97.5102C93.9477 98.5509 90.7301 98.6385 90.5647 98.6439C90.5034 98.6475 91.1318 98.0503 90.4959 97.9295C89.9472 97.829 88.9517 99.9104 88.1326 99.4534C88.07 99.4195 87.4279 97.6496 87.4586 97.5466C87.4848 97.4714 88.4845 97.0913 88.3417 96.5793C88.3241 96.521 87.6896 96.5305 87.609 96.1494C87.5092 95.6854 87.256 91.135 87.1184 91.0204C86.7698 90.7373 86.9934 91.7757 86.7679 91.7027C86.2872 91.5487 84.6149 90.1966 84.5566 91.7733C84.8313 91.868 85.1076 91.9627 85.3853 92.0574C83.8442 92.2133 84.5009 92.8872 84.2814 93.1821C84.044 93.501 84.1144 92.1152 83.594 91.9828C83.4843 91.9538 81.3009 92.2329 81.3435 92.8146C82.5436 91.8948 82.095 93.6056 82.149 93.6364C82.3587 93.749 82.6394 92.7895 82.9195 92.8099C84.9028 92.9691 82.8932 94.4768 83.3604 94.8689C83.5209 95.0008 83.8476 94.182 83.9166 94.2243C84.14 94.3611 84.1408 95.4352 84.2893 95.349C84.6338 95.1488 84.2389 93.6272 84.2666 93.5482C84.5746 92.5984 85.7865 93.7868 85.0228 95.4375C85.4737 96.0353 85.5399 94.0256 85.8936 94.8306C86.5975 96.4244 85.5361 96.0116 85.2398 96.2746C84.1972 97.2233 83.887 96.4507 82.4108 96.7079C81.8729 96.7985 81.2499 97.7718 80.9941 97.8241C80.8341 97.8571 79.3852 94.4523 79.3075 99.7683C78.7434 99.2507 77.8471 95.7418 77.2656 95.8982C76.7225 96.0407 76.8833 97.9226 76.832 97.995C76.7509 98.1088 76.1164 97.9562 75.8909 98.2203C75.6274 98.5324 75.7508 99.2512 75.3386 99.5407C74.33 100.259 74.3476 98.3388 74.2494 98.2133C73.961 97.8673 73.7748 97.7589 73.651 97.7974C73.2325 97.9202 73.4868 99.5473 73.2731 99.7121C73.0391 99.9131 69.4194 98.8193 68.6111 99.4938C68.93 99.1146 69.2533 98.7351 69.5821 98.3554C69.0219 97.1495 68.4011 99.0923 68.4191 96.9449C68.2414 100.41 67.0974 98.0705 66.7175 98.1513C66.5713 98.185 66.5694 98.7759 66.3891 98.7973C65.683 98.8866 63.9991 98.3683 63.534 98.65C61.5882 99.8755 66.3111 102.176 66.5438 102.299C65.9794 102.258 61.6034 102.891 63.5612 104.624C63.8748 104.892 64.4426 103.357 64.6157 103.301C65.722 102.932 64.8227 104.298 64.9051 104.433C65.0511 104.65 65.7918 103.325 65.9735 103.489C66.027 103.541 65.6282 104.792 66.6119 104.84C66.1376 106.055 63.1799 104.978 62.6442 105.238C62.5595 105.286 62.7502 105.972 62.5975 106.314C62.4051 106.652 62.0717 106.67 60.2559 105.301C60.2896 105.546 60.3162 105.79 60.3469 106.034C59.5204 106.024 58.5553 106.004 57.1087 105.902C56.3913 105.851 55.4737 105.767 54.5329 105.655C53.5981 105.544 52.8015 105.428 53.1379 105.502C52.608 105.444 52.0901 105.383 51.5852 105.32C51.9126 104.811 53.2831 103.904 51.7514 103.887C50.8838 103.876 51.2922 105.208 51.2098 105.23C50.7904 105.34 47.2186 104.656 44.4254 103.943C41.5471 103.224 39.477 102.614 38.8721 102.54C38.412 102.471 37.1994 103.205 37.1529 103.214C36.9389 103.214 36.5472 102.981 36.2743 102.785C35.9927 102.587 35.8294 102.425 35.7617 102.483C35.6771 102.559 35.5364 103.59 35.4929 103.531C35.4565 103.477 35.695 102.5 35.6894 102.457C35.6831 102.408 35.6593 102.384 35.6305 102.379C32.6458 101.825 29.7742 101.237 28.8721 101.118C27.8323 100.957 27.5355 100.901 27.4343 100.449C27.5315 100.62 27.9649 100.286 28.7259 99.9199C29.4322 99.5397 30.8409 99.2215 30.8968 98.8684C30.8999 98.8191 30.6351 98.5251 30.4064 98.3003C30.1734 98.0745 29.959 97.9139 29.8352 98.0729C29.766 97.1521 28.4303 99.5297 28.3509 98.9716C28.3422 98.9085 28.8142 97.4967 28.4718 97.1294C28.3516 97.0033 27.7601 98.0469 27.7345 96.7097C27.4272 96.9574 26.7589 96.4726 25.892 96.1067C25.0376 95.7405 24.0383 95.5049 23.7858 96.2735C23.7705 96.356 24.2021 96.9784 23.7547 97.5716C23.1533 98.3603 24.0247 95.5274 23.4964 95.1938C23.4185 95.1398 21.7379 95.2111 21.6364 95.3843C20.9203 96.9506 22.2929 97.7995 22.2406 97.9878C22.1265 98.4563 20.8979 98.591 20.8598 98.4736C20.8243 98.3501 22.0944 96.3117 20.7862 96.9827C20.8966 97.2584 21.0034 97.5339 21.1066 97.8092C20.4853 98.2433 20.5967 96.7394 20.4647 96.6308C20.0623 96.2899 19.3253 98.5104 18.8888 95.6202C18.7672 94.8526 19.1866 94.0585 19.1734 93.9439C19.0354 92.9133 18.4524 95.5701 18.2936 93.5283C18.2744 93.3758 19.2733 92.2596 17.7465 92.1073C17.8341 92.3098 17.9227 92.5126 18.0088 92.7152C17.817 93.0032 17.007 93.1447 16.4381 93.1599C16.201 93.1657 16.0187 93.1507 15.9579 93.1156C15.3482 92.7641 16.0193 91.4285 15.3649 91.5399C15.6138 93.4674 13.6654 93.5589 13.9026 91.9372C13.4754 93.965 11.9659 92.2652 11.2048 92.1698C10.7232 92.109 9.6994 92.9484 9.55437 92.8358C9.37755 92.6973 9.51178 91.2999 9.19192 90.9702C9.0991 90.8759 8.06037 91.8511 7.25505 90.3647C7.09878 90.0781 6.83739 87.6866 7.17874 87.1054C7.76915 86.1105 8.71984 88.0748 8.77334 86.6705C8.83337 85.1668 7.38123 85.9948 7.01646 85.7855C5.30999 84.813 6.36786 83.2535 6.34298 82.7671C6.26921 81.5871 5.29524 81.5923 5.25916 81.4861C5.10397 81.0116 5.82283 80.1022 5.8568 79.3856C5.9034 78.4515 4.99848 76.7375 5.22342 76.4291C5.54799 75.9902 6.3879 77.4242 6.44236 77.3594C7.20293 76.4795 6.28265 74.2858 6.03229 73.2171C5.95766 72.8882 6.31394 72.3633 6.24676 72.2653C5.21302 70.7797 5.92362 75.2902 5.22524 74.9698C4.59991 74.6854 5.4544 73.2896 5.4331 73.211C5.40434 73.1238 4.6452 73.026 4.53745 72.5216C4.47897 72.2664 6.55752 69.5662 6.52542 68.3294C5.86893 68.58 5.21343 68.8338 4.56263 69.091C4.55006 67.4764 5.45247 68.6878 5.55265 68.5248C5.75655 68.1968 5.23766 67.3652 5.27413 66.8561C5.29397 66.5319 5.97316 65.3931 5.40262 64.8996C5.20501 64.7294 4.76078 65.8483 4.05597 64.6778C6.63661 63.2631 4.9034 62.3141 4.83303 61.7403C4.76981 61.1671 6.0487 59.8534 4.53343 60.0543C4.53846 56.9141 4.58881 59.0625 5.03275 58.5215C5.58162 57.8579 4.37928 56.7889 6.30213 57.6289C6.23754 56.1547 4.66064 56.2167 4.58043 56.0991C4.51048 55.9912 4.87823 55.2764 4.75896 55.0286C3.33167 52.1571 4.32566 53.4756 3.92803 51.6534C3.89548 51.4898 2.47644 50.7948 3.56823 50.5481C5.57119 50.1037 6.32791 52.2177 6.80746 47.7763C5.37056 45.7931 3.4918 48.6345 3.04961 48.6781C2.35952 48.7388 3.08531 47.8404 3.00469 47.5848C2.97602 47.5019 2.37812 47.5694 2.3707 47.4974C1.9837 44.093 5.04275 47.4784 6.01939 46.9221C5.77127 46.4062 5.52515 45.8909 5.27324 45.3759C5.63234 45.3644 5.98824 45.3537 6.34512 45.3438C4.67453 44.2749 6.29029 44.9536 6.80719 42.2191C6.92291 41.6044 5.75367 42.6287 7.1036 40.9522C6.15812 40.5261 6.47689 39.9734 5.58821 40.7252C5.63372 39.622 7.64175 38.4358 8.44398 37.9026C5.72549 36.5698 7.17893 40.66 4.85983 38.4611C4.39052 39.816 5.52706 39.5757 5.42904 39.7993C5.08482 40.6011 4.32583 39.2965 3.35427 42.1204C3.19767 42.5842 3.80799 44.0274 2.87342 43.9448C2.7729 43.9334 2.18683 42.7009 2.19662 42.6123C2.28412 41.6528 2.87779 42.0197 2.90622 41.6195C2.93537 41.2403 2.26538 41.4605 2.26533 41.3556C2.2564 40.1525 2.82718 40.9022 2.74783 40.5248C2.58302 39.7035 0.170254 37.0889 3.33923 37.8836C0.692294 39.212 2.98229 39.2029 4.01328 38.7006C4.27479 38.5745 4.35774 37.8574 4.73464 37.6159C5.22323 37.3032 5.77788 37.6623 6.028 37.5373C6.30155 37.4 4.81878 35.6582 7.01522 36.2288C5.93659 34.5031 3.89967 36.2599 2.8119 35.0623C0.582068 32.6408 4.42626 32.1687 4.8366 31.9525C4.94481 31.8919 4.60705 30.9144 4.67926 30.8565C4.79827 30.7651 6.98143 31.2696 7.22423 30.4767C7.46497 29.6813 6.41812 30.4891 6.37158 29.6516C6.33757 29.0841 9.04848 28.1738 7.61011 27.7409C6.61277 27.4422 4.71959 29.6628 4.45648 27.2257C5.9396 27.0526 7.42417 26.8937 8.90821 26.7485C8.13501 25.7927 7.35147 24.8407 6.55734 23.8926C8.25028 23.6463 9.65558 24.746 11.3016 23.4964C7.59073 20.3633 12.6636 21.1847 12.7388 20.836C12.7755 20.6208 11.3636 18.14 11.1341 17.69C12.5379 16.8178 16.7195 16.6144 14.4581 13.5031C14.8614 14.1979 16.0364 12.6099 16.0328 12.4847C15.9773 11.1626 13.5624 11.8764 14.0135 10.7149C14.54 9.36507 15.0661 11.2657 15.7579 11.1589C19.3204 10.6116 18.8553 3.70377 22.3438 5.0683C22.2929 4.81911 22.2418 4.56994 22.1907 4.32079C22.8905 4.44892 23.583 4.57887 24.2795 4.71149C27.5124 5.31806 30.8135 5.98541 34.2862 6.7714C36.2169 4.90304 41.1971 4.37638 43.7455 5.1218C44.2218 5.25199 46.579 6.86026 46.7291 7.09672C47.0005 7.53131 45.02 7.2538 45.7592 8.11826C45.9038 8.274 50.148 9.73469 50.1209 8.53817C49.6584 8.28049 47.9898 8.49123 47.8027 8.16788C47.2249 7.19131 49.2984 7.43157 51.8049 8.07097C53.0247 8.37995 54.3414 8.78853 54.8298 8.954C55.3761 9.13912 54.6694 8.9413 53.2268 8.62805C53.9764 8.73824 54.4574 8.76818 54.5995 8.66741C54.3479 8.22889 54.0851 7.78962 53.811 7.34995C54.7603 7.72182 55.6406 8.09448 56.4596 8.46289ZM17.1402 96.7278C16.8582 97.6184 16.4566 97.2506 16.0817 97.1797C15.9716 97.1591 15.8661 97.1632 15.7697 97.2286C15.1672 97.6393 13.8659 102.075 14.6394 97.5861C15.1195 97.4206 15.6012 97.2567 16.0892 97.0949C16.4481 96.9723 16.7983 96.85 17.1402 96.7278ZM26.1675 99.7277C26.0051 99.0502 26.7356 96.6123 26.775 97.6972C26.7779 97.8203 26.3771 100.64 26.1675 99.7277ZM22.5295 97.8982C22.5538 97.8675 22.9105 97.9857 22.9202 98.0275C23.1054 99.0812 22.0262 98.7187 22.5295 97.8982ZM57.7068 103.901C55.2284 103.757 56.9907 106.269 58.298 105.422C58.3791 105.369 57.8675 103.911 57.7068 103.901ZM55.9165 103.649C54.9877 102.543 53.0124 102.687 53.4552 103.461C52.9053 104.05 52.5933 104.897 53.2143 105.011C53.1667 105.005 53.1351 104.991 53.1477 104.97C53.1536 104.96 53.1886 104.859 53.3863 104.736C53.5796 104.611 53.9422 104.465 54.3588 104.32C55.1966 104.032 55.9686 103.706 55.9165 103.649ZM25.2256 98.521C25.4101 97.7506 25.6906 98.1901 25.8012 98.4042C25.6616 99.1121 25.3995 98.462 25.2256 98.521ZM39.224 101.596C39.3365 100.982 37.5223 100.574 37.3132 101.37C37.5573 101.067 39.016 102.118 39.224 101.596ZM46.5246 102.455C46.4513 102.33 45.2571 102.227 45.1737 102.77C45.5598 103.598 46.8193 103.018 46.5246 102.455ZM67.5482 104.78C67.5932 104.643 66.9902 101.142 68.5661 103.467C68.8027 103.808 67.9226 104.704 68.0086 104.831C68.1809 105.078 68.3214 105.195 68.4363 105.217C67.6746 105.494 66.8669 105.613 66.7928 105.4C66.4472 104.393 67.5208 104.837 67.5482 104.78ZM74.4276 102.268C74.5902 101.7 75.4941 102.012 75.7102 102.248C75.7464 102.292 75.5756 103.787 75.9983 103.678C76.3265 103.588 75.8463 102.052 76.4859 102.302C77.138 102.553 76.2566 103.639 76.3142 103.717C76.3837 103.82 77.4179 103.139 77.3715 104.029C77.3511 104.689 76.2523 104.236 75.9951 104.374C75.6448 104.552 76.0589 105.654 75.4777 105.414C75.1152 105.263 75.332 103.331 75.2562 103.233C75.1997 103.154 73.9078 104.256 74.4296 102.274C74.4289 102.272 74.4283 102.27 74.4276 102.268ZM68.6417 105.135C68.586 105.199 68.5197 105.233 68.4363 105.217C68.5075 105.192 68.5767 105.163 68.6417 105.135ZM18.7062 96.0307C18.9061 96.651 18.0537 97.3312 17.8308 96.5247C17.8923 95.8972 18.6671 95.9327 18.7062 96.0307ZM69.3584 103.571C70.4375 104.071 69.6417 104.727 68.6417 105.135C68.9564 104.776 68.9839 103.404 69.3584 103.571ZM29.8352 98.0729C29.8394 98.2237 29.8077 98.4482 29.7131 98.8053C29.7062 98.3843 29.7558 98.1729 29.8352 98.0729ZM34.4882 99.9182C36.1666 99.6907 35.3294 99.2503 34.2786 98.991C33.2076 98.7252 32.2108 98.6875 32.129 99.0828C32.0998 99.232 32.5245 99.4234 33.1131 99.6004C33.6704 99.7714 34.429 99.9291 34.4882 99.9182ZM59.9652 104.183C59.8951 104.124 60.4826 103.281 60.6192 102.742C60.716 102.199 60.7553 102.006 58.7256 103.136C60.7193 103.682 58.59 103.901 58.5541 104.194C58.5625 104.624 59.5424 104.708 60.3136 104.698C61.1127 104.692 61.79 104.608 62.0441 104.804C62.517 103.295 60.5207 104.586 59.9689 104.183C59.9677 104.183 59.9664 104.183 59.9652 104.183ZM86.1244 103.157C85.9203 104.053 85.2679 103.762 84.8312 103.707C85.0368 102.811 85.694 103.103 86.1244 103.157ZM200.976 103.694C197.623 104.602 197.167 100.954 200.216 102.333C200.28 102.362 201.169 103.319 200.976 103.694ZM174.396 102.972C174.112 101.381 175.043 101.123 175.665 101.78C175.805 101.927 176.323 103.539 175.735 103.855C175.75 101.926 174.837 101.19 174.396 102.972ZM69.9887 102.561C70.3307 101.505 71.2893 102.272 71.786 102.437C71.4804 103.308 70.4535 102.9 69.9887 102.561ZM190.422 101.948C190.102 101.83 189.896 103.216 189.952 103.331C190.201 103.858 190.804 102.733 190.422 101.948ZM66.7604 102.34C66.7412 101.706 68.0895 101.122 68.1475 102.691C67.8761 102.573 66.7959 102.74 66.7604 102.34ZM85.3014 102.678C85.1149 102.354 86.0916 101.781 86.3821 102.102C86.3555 102.777 85.4273 102.888 85.3014 102.678ZM185.251 102.451C184.969 102.332 184.253 102.299 184.175 102.859C184.081 103.559 185.13 103.316 185.251 102.451ZM238.095 100.1C238.112 100.351 237.41 102.181 237.262 101.728C237.224 101.639 237.205 101.549 237.193 101.459L239.496 101.307C239.399 101.215 239.398 101.116 239.468 101.012L237.181 101.164C237.19 100.836 237.341 100.536 237.579 100.334C237.809 100.133 238.082 100.031 238.095 100.1ZM193.514 101.204C194.467 102.511 193.405 101.247 193.469 102.633C194.099 102.677 195.676 102.724 194.57 101.375C194.366 101.114 193.802 101.291 193.514 101.204ZM192.65 100.75C192.556 101.2 191.913 102.622 192.48 102.515C192.738 102.464 193.172 100.886 192.65 100.75ZM231.961 101.014C230.961 99.8243 235.335 100.317 235.643 100.504C235.726 100.613 235.787 100.717 235.822 100.806C235.983 100.409 237.03 100.277 237.255 101.247C236.885 101.191 236.036 101.326 235.942 101.221C235.898 101.177 235.865 101.135 235.841 101.092C235.425 101.978 232.106 101.246 231.961 101.014ZM225.327 99.924C226.24 98.0938 226.494 101.168 226.409 101.269C225.374 102.551 226.017 100.266 225.983 100.161C225.904 99.9855 225.187 101.054 225.33 99.9239C225.329 99.9239 225.328 99.924 225.327 99.924ZM230.538 100.553C230.582 100.511 231.44 100.58 231.485 100.627C232.231 101.638 229.766 101.451 230.538 100.553ZM79.3711 100.147C79.9278 100.456 79.3717 101.586 79.0076 101.177C78.9781 101.136 78.8832 99.8739 79.3711 100.147ZM192.204 101.059C192.168 101.002 191.903 100.905 191.524 100.826C190.529 100.609 188.76 100.523 188.926 101.776C189.087 101.651 190.597 101.922 191.533 101.837C192.154 101.783 192.522 101.587 192.204 101.059ZM167.599 100.729C168.175 100.742 167.546 102.356 167.239 101.754C167.125 101.531 167.454 100.727 167.599 100.729ZM64.8999 100.83C64.1452 101.695 64.3911 98.727 64.981 99.7635C65.0038 99.8041 64.9284 100.796 64.8999 100.83ZM172.207 101.656C170.219 102.635 170.686 97.5192 173.273 99.2439C173.193 99.4718 173.112 99.6998 173.031 99.9277C176.019 100.692 173.234 100.288 172.505 100.575C172.227 100.684 172.461 101.538 172.209 101.662C172.208 101.66 172.208 101.658 172.207 101.656ZM164.566 100.629C162.656 96.9956 166.307 99.3648 167.357 98.8917C166.339 100.391 165.016 100.163 166.815 101.699C164.182 101.994 165.279 100.549 165.174 100.428C165.05 100.293 164.647 100.785 164.566 100.629ZM169.619 100.607C169.729 100.501 170.563 101.24 170.864 101.12C170.443 102.36 168.884 101.328 169.619 100.607ZM218.745 100.876C218.803 99.9027 218.973 99.1846 219.645 99.5384C219.447 100.03 219.023 100.456 218.745 100.876ZM17.1186 91.5888C16.9747 91.5475 16.7743 91.4533 16.5921 91.4225C16.3152 91.3762 16.0917 91.4718 16.1768 92.093C16.1843 92.1303 16.343 92.1479 16.5307 92.1143C16.7868 92.0673 17.0875 91.9208 17.1186 91.5888ZM182.557 100.332C182.465 100.214 179.958 100.142 180.826 101.211C181.087 101.534 183.367 101.388 182.557 100.332ZM195.758 100.352C195.529 100.345 194.653 100.54 194.629 100.77C194.587 101.565 195.661 101.114 195.758 100.352ZM15.301 90.4322C15.2574 90.3266 14.0866 90.4126 14.1785 90.8933C14.3472 91.8001 15.4416 90.792 15.301 90.4322ZM81.4003 97.8811C81.5149 97.8457 81.6618 98.9022 81.7016 98.9141C81.7939 98.9298 83.9159 98.5333 83.1014 99.885C82.9687 100.112 79.9163 99.5764 79.5147 99.4399C79.3723 97.9898 80.6657 99.3755 80.9879 99.228C81.044 99.1999 81.0883 97.9876 81.3993 97.8872C81.3997 97.8851 81.4 97.8831 81.4003 97.8811ZM222.253 99.7973C222.328 98.8754 224.908 98.2183 224.895 99.3343C224.018 99.49 223.12 99.6445 222.253 99.7973ZM220.946 99.6656C220.387 99.0223 221.667 98.787 222.049 99.0681C222.057 99.6881 221.032 99.7598 220.946 99.6656ZM190.82 96.9637C190.566 97.1912 191.364 98.5289 191.19 98.7917C191.082 98.9555 190.499 98.4564 190.319 98.8784C190.263 99.0125 190.871 100.271 191.037 100.215C191.275 100.14 191.035 99.1478 191.294 99.1388C191.367 99.1363 191.438 99.1391 191.509 99.1462C192.311 99.223 193.026 99.8089 193.779 99.7852C193.855 99.7809 193.256 99.0854 193.906 99.0878C194.009 99.0868 194.608 100.126 195.379 99.9605C197.038 96.6968 198.349 99.859 200.611 98.636C200.506 98.3344 198.811 97.5536 198.708 97.5245C196.828 97.0312 193.62 97.0135 191.776 97.0224C191.617 97.023 191.536 97.0978 191.491 97.1988C191.406 97.4037 191.466 97.7165 191.332 97.7345C191.173 97.7544 191.354 96.4832 190.82 96.9637ZM17.3762 90.9076C17.3398 90.0656 17.0281 90.1 16.7011 90.1931C16.5285 90.2411 16.3554 90.3052 16.2186 90.2709C16.2393 90.8086 16.4154 90.9142 16.6378 90.9065C16.8873 90.8973 17.1884 90.7397 17.3762 90.9076ZM209.577 98.8114C209.403 98.8477 208.967 98.6674 208.706 98.6987L209.254 98.6907C209.171 98.7043 209.113 98.7523 209.101 98.8625C209.086 99.0176 209.156 99.153 209.266 99.2403L208.71 99.2484C209.015 99.4452 209.546 99.4061 209.577 98.8114ZM93.2923 98.2865C93.3163 98.252 93.8945 98.3217 93.916 98.3617C94.43 99.3811 92.694 99.1671 93.2923 98.2865ZM107.095 98.5749C107.532 98.4199 107.969 98.0253 108.114 99.0548C107.832 98.8961 107.044 99.2913 107.095 98.5749ZM125.737 98.6769C125.667 97.328 126.911 98.2196 127.145 98.3446C127.047 98.9417 125.786 99.6483 125.737 98.6769ZM218.589 96.6473C219.427 96.7157 219.216 94.6772 219.758 95.5933C219.85 95.7481 220.182 99.9941 219.25 98.4146C219.081 98.1307 219.714 97.1119 218.589 96.6473ZM173.694 99.2861C173.901 98.3945 174.55 98.6582 174.986 98.7289C174.889 99.3914 174.007 99.2222 173.694 99.2861ZM13.2887 89.2532C13.06 87.9732 11.5217 88.8054 11.8326 89.6599C11.8735 89.7705 13.0865 89.1899 13.2887 89.2532ZM72.2222 98.5233C72.9919 97.5405 71.4407 97.2171 70.9142 98.1784C71.1462 98.118 72.167 98.5881 72.2222 98.5233ZM121.364 97.8925C121.402 97.8522 122.132 97.955 122.16 98.0041C122.748 99.0449 120.679 98.7595 121.364 97.8925ZM102.572 96.9236C102.847 96.1089 104.646 96.7729 105.047 97.591C104.655 98.7821 102.229 97.941 102.572 96.9236ZM215.191 97.2687C215.785 97.2199 216.34 97.4646 216.891 97.8106C216.783 98.4987 215.262 97.781 215.191 97.2687ZM124.049 97.8362C124.088 97.8422 124.123 97.9204 124.162 97.9292C124.121 97.8996 124.086 97.8659 124.049 97.8362ZM203.142 97.0485C202.584 96.7954 202.736 98.049 202.772 98.0865C203.197 98.4807 203.778 97.3333 203.142 97.0485ZM17.0937 89.0062C17.0813 88.63 16.9905 88.4659 16.8597 88.4042C16.5872 88.278 16.1608 88.5791 15.9067 88.3758C15.9387 89.0672 16.4219 89.1214 16.8007 89.0697C16.9147 89.0536 17.0175 89.0274 17.0937 89.0062ZM162.518 98.3007C161.908 97.0687 164.4 95.6426 164.921 96.4362C164.96 97.197 162.606 98.4695 162.518 98.3007ZM69.8757 96.7909C69.8485 95.901 68.7038 96.9569 68.9374 97.3809C69.0809 97.6509 69.9049 97.3442 69.8757 96.7909ZM166.172 96.9562C166.405 96.6848 166.95 97.5631 166.758 98.0979C166.511 98.7836 166.111 97.0338 166.172 96.9562ZM187.19 96.1959C187.081 96.0608 185.705 96.9816 186.28 97.8858C186.676 98.5143 186.735 97.2279 186.83 97.2235C186.943 97.2271 189.166 98.7871 187.19 96.1959ZM148.513 97.4687C149.027 97.1304 149.683 97.5319 150.218 97.5106C150.001 98.0596 148.72 98.2011 148.513 97.4687ZM74.0763 96.6003C74.051 96.5273 73.8875 96.4589 73.6638 96.4055C72.7443 96.1955 70.801 96.214 72.4139 97.1153C72.4951 97.1527 73.1523 97.3427 73.6557 97.2793C73.9922 97.2336 74.2357 97.0572 74.0763 96.6003ZM218.589 96.6473C218.483 96.6387 218.365 96.5978 218.224 96.5118C218.363 96.5446 218.481 96.6033 218.589 96.6473ZM209.229 96.6106C209.343 96.2065 209.017 95.9898 208.685 95.9675L209.195 95.96C209.031 95.9484 208.879 96.0084 208.798 96.1405C208.775 96.5503 208.984 96.6827 209.211 96.7027L208.691 96.7103C208.953 96.7315 209.217 96.6545 209.229 96.6106ZM150.265 96.6076C150.582 96.2389 151.161 96.6378 151.545 96.5967C151.48 97.1985 150.397 97.2201 150.265 96.6076ZM128.115 95.5836C128.697 95.9518 129.419 95.8013 129.444 95.0652C129.454 95.1805 129.48 95.3033 129.525 95.427C129.569 95.5494 130.206 95.2196 130.479 95.4769C132.073 96.9986 124.156 96.2371 128.79 94.2407C128.568 94.6883 128.337 95.1359 128.115 95.5836ZM100.138 95.1824C99.7919 94.2849 98.8122 95.4052 99.0644 95.759C99.2404 96.0014 100.484 96.0861 100.138 95.1824ZM113.505 94.7018C113.406 94.5412 112.456 95.1645 112.427 95.6365C112.977 96.1366 113.967 95.4474 113.505 94.7018ZM97.4594 94.1244C97.2408 93.9884 96.9569 95.4331 96.9824 95.4963C97.2034 96.0247 97.8249 94.9304 97.4594 94.1244ZM216.828 92.7754C216.486 92.3656 215.441 93.4241 215.217 94.3812C215.172 94.1971 215.049 93.9577 214.837 93.6712C214.838 93.6712 214.838 93.6712 214.839 93.6712C214.544 93.2926 205.995 92.9449 211.745 94.7336C211.925 94.7909 211.674 93.9363 212.402 94.0805C212.451 94.091 212.479 94.7904 212.631 94.823C212.979 94.8938 214.814 95.3152 215.176 94.7479C215.181 94.8775 215.206 95.0006 215.258 95.1132C215.724 96.1173 217.091 93.0914 216.828 92.7754ZM115.377 94.5835C115.182 94.3232 114.59 94.5661 114.523 95.1831C114.814 95.4872 115.816 95.1908 115.377 94.5835ZM73.9908 94.0664C73.9095 93.9612 73.8023 93.9174 73.6866 93.9187C73.2103 93.9235 72.6158 94.5986 72.8556 95.0018C72.9483 95.1583 73.3489 95.0707 73.6779 94.8703C73.9854 94.6706 74.2189 94.3593 73.9908 94.0664ZM109.34 94.8846C111.571 95.6235 109.874 94.8278 110.22 93.9238C109.928 94.244 109.633 94.5643 109.34 94.8846ZM227.663 94.927C227.279 94.7279 227.683 92.9314 228.131 93.8898C228.271 94.1942 227.885 95.035 227.663 94.927ZM243.046 93.9096C242.748 92.3261 244.185 93.2535 243.628 94.3415C243.602 94.3781 243.067 93.9697 243.046 93.9096ZM233.029 93.5594C232.789 94.6481 232.602 94.7841 231.805 94.5452C232.967 94.1995 231.827 93.2871 233.029 93.5594ZM129.44 94.9491C129.443 94.9928 129.446 95.0251 129.444 95.0652C129.441 95.0255 129.44 94.9879 129.44 94.9491ZM95.348 94.3987C95.0703 93.4841 94.2803 93.549 94.5126 94.4694C94.5347 94.5546 95.2317 95.0735 95.348 94.3987ZM215.217 94.3812C215.257 94.5444 215.239 94.6505 215.176 94.7479C215.172 94.6259 215.187 94.5104 215.217 94.3812ZM99.5774 93.667C99.5468 94.3486 100.744 94.6174 100.792 94.5375C101.483 93.3574 100.071 93.6275 99.5774 93.667ZM65.4951 92.9753C65.4244 93.0447 65.8341 94.8156 66.1312 94.1329C66.3571 93.6032 65.7755 92.712 65.4951 92.9753ZM235.967 92.9791C236.509 92.9499 237.374 92.8888 237.656 93.7045C237.129 93.6183 235.989 93.5932 235.967 92.9791ZM242.486 92.7639C242.061 93.7479 241.101 93.7497 240.508 93.5926C240.481 92.2987 242.08 93.0687 242.486 92.7639ZM217.888 93.2443C217.855 93.1922 216.874 92.8185 217.019 93.6825C217.223 94.9499 218.172 93.7115 217.888 93.2443ZM67.5485 93.9559C68.028 93.3688 66.9922 91.5162 66.4602 92.9195C66.1843 93.6387 67.4744 94.055 67.5485 93.9559ZM92.8892 93.1947C92.324 93.6939 93.7193 94.5909 93.9145 93.6862C93.6571 93.6128 93.0894 93.0179 92.8892 93.1947ZM111.954 92.3444C110.207 89.7255 111.144 94.493 111.459 94.0756C111.504 94.016 111.997 92.406 111.954 92.3444ZM9.89918 83.8076C9.66667 84.1581 10.3881 85.5142 10.5388 84.6567C10.6349 84.1197 10.0476 83.5838 9.89918 83.8076ZM138.099 94.3994C138.021 94.4063 137.944 94.4135 137.869 94.4195C137.926 94.378 138.001 94.3655 138.099 94.3994ZM87.7885 89.68C89.0263 93.371 88.9071 90.5291 89.0145 90.545C89.2477 90.5855 89.7887 91.5842 90.2337 91.422C89.723 91.8354 89.2176 92.2487 88.71 92.662C89.1051 92.9297 92.5826 94.2982 92.6526 93.7005C92.7591 92.8496 91.6684 93.1132 91.6349 93.0381C91.5893 92.9311 91.4259 90.5638 91.3248 90.4735C91.1599 90.3292 88.2543 90.2702 87.7885 89.68ZM108.276 92.738C108.559 93.0204 108.635 93.9584 108.767 93.7348C108.812 93.6583 108.823 92.7639 108.976 92.5332C108.744 92.6014 108.51 92.6697 108.276 92.738ZM85.5354 92.9858C85.1872 91.8915 86.7698 92.3128 86.8225 92.4353C87.0901 93.1772 85.8242 93.8798 85.5354 92.9858ZM98.9822 92.8717C98.9248 92.8077 97.712 92.4627 97.7199 93.0692C98.0396 93.5325 99.6619 93.6722 98.9822 92.8717ZM109.165 92.4729C109.586 92.5789 110.389 93.4829 110.301 92.1357C110.3 92.1357 110.3 92.1357 110.299 92.1357C109.924 92.2481 109.538 92.3604 109.165 92.4729ZM69.1752 91.1398C68.3816 88.9815 68.7167 91.6981 69.4613 92.4017C69.7072 91.4424 69.3063 91.4909 69.1752 91.1398ZM66.4626 89.4884C66.2474 89.1011 63.5927 89.4458 63.9463 90.5903C64.102 91.0019 65.644 90.0261 65.7115 90.1051C65.8093 90.2238 65.3157 91.4676 66.0973 91.2381C66.0602 90.8117 66.5472 89.6193 66.4626 89.4884ZM68.498 89.755C67.6984 88.1093 67.4259 91.1127 68.0755 91.1332C68.3195 91.143 68.6159 89.9924 68.498 89.755ZM71.8845 90.0592C71.6065 89.7708 70.8165 89.345 70.2492 90.3377C70.9869 90.4334 71.7037 90.5275 72.4315 90.6208C72.5224 90.0549 72.1353 90.3129 71.8825 90.0592C71.8832 90.0592 71.8838 90.0592 71.8845 90.0592ZM247.085 85.0486C246.464 84.1955 247.895 83.8685 247.957 84.0781C248.138 84.774 247.362 85.4297 247.085 85.0486ZM6.65435 56.3088C6.49822 55.9635 6.42113 54.8413 6.03148 55.4163C6.38163 56.253 6.72657 57.0905 7.06786 57.9289C7.4219 56.0474 6.8265 56.6895 6.65435 56.3088ZM5.40975 49.3542C5.46515 49.3099 5.24292 46.3921 5.89734 48.3536C6.32991 49.6758 3.73357 50.8904 3.29148 49.5974C3.81746 49.005 4.93269 49.7149 5.40975 49.3542ZM0.938133 36.6887C0.908736 36.456 1.95031 36.1219 2.07052 36.2873C2.69393 37.1554 1.10224 37.9314 0.938133 36.6887ZM4.24498 37.2825C3.76867 36.7082 4.85507 36.3642 5.17212 36.6976C5.18902 37.2395 4.31938 37.3658 4.24498 37.2825ZM240.659 42.9108C240.13 40.9363 239.701 45.198 240.486 44.3342C240.523 44.2936 240.682 43.0076 240.659 42.9108ZM1.98004 33.7594C2.46865 34.329 1.37291 34.6835 1.05123 34.3575C1.02286 33.8159 1.90592 33.6757 1.98004 33.7594ZM240.262 38.2014C239.557 36.7834 239.84 41.5587 239.929 41.7504C240.291 42.5072 241.482 40.6252 241.726 40.1583C239.928 40.8845 240.592 38.8702 240.262 38.2014ZM237.024 41.1112C236.36 41.6337 238.1 42.5754 238.393 41.2416C238.068 41.3092 237.221 40.9595 237.024 41.1112ZM232.625 39.7851C232.366 39.6289 231.504 39.2587 231.393 40.0151C231.71 39.8663 232.561 40.564 232.625 39.7851ZM231.905 37.5665C231.435 36.5659 231.456 39.5437 231.919 38.6351C231.937 38.6 231.923 37.6225 231.905 37.5665ZM229.307 36.5925C228.954 35.4199 228.696 38.3112 229.199 38.3731C229.354 38.3859 229.345 36.727 229.307 36.5925ZM239.34 33.0697C238.81 32.5667 238.16 34.6381 239.278 34.8527C238.891 35.1719 238.502 35.4917 238.106 35.8127C239.596 36.9504 239.444 34.0923 239.864 34.2064C240.442 34.37 240.413 36.7324 240.303 37.4747C240.764 36.0235 242.729 35.9912 243.838 35.7145C242.86 35.1087 241.246 34.0615 240.235 33.6847C239.947 33.5754 239.673 34.2255 239.424 34.1554C239.025 34.0396 239.369 33.1036 239.342 33.0696C239.341 33.0697 239.341 33.0697 239.34 33.0697ZM225.723 36.6475C224.74 35.3288 225.405 38.2092 225.935 37.6805C225.957 37.6402 225.748 36.6797 225.723 36.6475ZM0.587289 24.9561C2.06486 26.1748 0.960869 27.7597 4.08497 25.3692C2.7602 27.0718 3.99203 26.6072 3.7278 27.2984C3.51904 27.8449 2.76866 27.3793 3.19231 28.493C2.63371 27.2754 0.11968 27.5957 0.0110075 27.403C0.0120508 27.403 0.0130941 27.403 0.0141375 27.403C-0.0524108 27.287 0.112073 24.5703 0.587289 24.9561ZM232.209 32.2278C231.787 28.7334 231.977 34.3058 231.32 31.4221C230.831 35.6793 233.24 31.3262 233.267 34.8871C233.127 34.8306 232.855 34.8991 232.786 35.0118C232.696 35.1259 232.722 35.2904 232.812 35.4471C232.993 35.7609 233.395 36.0391 233.372 35.8371C233.595 35.7222 234.394 35.8568 234.623 35.7542C235.058 35.5629 235.237 35.0007 234.545 33.7705C234.296 33.8819 233.43 33.7357 233.187 33.8605C233.17 33.627 233.142 33.3703 233.088 33.0891C233.126 33.201 233.142 33.2988 233.143 33.3833C233.39 33.2562 234.273 33.4052 234.526 33.2916C236.65 34.5612 234.985 32.2748 235.36 31.6213C235.802 30.8804 237.184 31.6407 237.086 30.335C237.086 30.335 237.085 30.335 237.084 30.335C236.267 30.4406 235.435 30.5492 234.424 30.6784C234.145 30.8036 233.171 30.6394 232.899 30.7795C232.901 30.7807 232.903 30.7819 232.904 30.7831C232.907 30.8272 232.909 30.8704 232.911 30.9127C233.182 30.7733 234.151 30.9367 234.429 30.8121C234.794 31.7891 234.737 32.2958 234.493 32.432C234.231 32.5493 233.318 32.3954 233.062 32.5267C233.147 32.7353 232.768 31.8961 232.498 30.487C232.418 31.0668 232.319 31.6472 232.209 32.2278ZM237.201 34.6551C237.139 34.589 235.312 35.0287 235.427 35.5947C235.746 35.9409 238.213 35.4618 237.201 34.6551ZM244.335 33.9863C243.776 33.9801 242.901 33.4317 242.595 34.4968C243.163 34.502 244.032 35.0513 244.335 33.9863ZM215.807 34.4438C215.129 35.3253 217.248 35.558 216.622 34.5315C216.593 34.4832 215.842 34.4027 215.807 34.4438ZM230.981 32.8175C230.329 31.7698 230.752 35.1721 231.17 34.2635C231.194 34.21 231.011 32.8653 230.981 32.8175ZM1.79047 24.547C1.84905 23.7082 4.00339 24.322 4.38417 24.3246C4.15016 25.0951 1.72166 25.5033 1.79047 24.547ZM245.316 30.8541C244.205 27.845 242.676 31.325 242.508 31.2498C242.339 31.173 242.599 29.8566 242.56 29.8214C242.476 29.7473 240.668 29.866 240.575 29.959C240.512 30.0308 240.855 31.8773 240.481 32.4622C241.227 31.4043 244.477 32.0536 244.633 31.8496C244.762 31.6859 243.788 29.7454 245.314 30.8541C245.314 30.8541 245.315 30.8541 245.316 30.8541ZM242.084 30.8485C242.534 31.6217 241.278 31.7236 240.965 31.4398C240.278 30.8037 242.028 30.7563 242.084 30.8485ZM238.985 30.1555C238.841 29.9823 237.436 29.8434 237.321 30.7093C238.027 31.8156 239.33 30.5568 238.985 30.1555ZM224.849 30.7572C224.538 30.8747 223.683 30.2291 223.643 30.9837C223.957 30.8677 224.815 31.5122 224.849 30.7572ZM9.38284 18.1418C8.79095 17.4878 10.2295 17.2851 10.6325 17.6066C10.6347 18.1094 9.434 18.1973 9.38284 18.1418ZM230.582 25.6193C230.481 25.401 227.028 26.0832 226.494 26.4449C227.035 27.0064 230.499 26.9404 230.572 26.6521C230.612 26.5671 230.604 25.6545 230.582 25.6193ZM240.129 24.9447C240.509 23.8317 240.769 25.1617 240.816 25.1781C241.292 25.3449 242.256 25.0908 242.049 26.1609C241.233 25.7317 239.375 27.155 240.129 24.9447ZM224.476 25.7407C223.231 26.1792 225.661 27.2971 225.321 26.1433C225.294 26.0739 224.61 25.6947 224.476 25.7407ZM230.913 25.2815C230.973 24.9949 231.332 24.8627 231.718 24.8154C232.082 24.7712 232.585 24.7956 232.348 24.8908C232.678 24.7214 233.855 24.92 234.193 24.7686C235.397 24.8104 236.2 24.9013 236.491 24.8949C235.849 26.4961 235.294 25.4169 234.219 25.4394C233.888 25.5878 232.734 25.3932 232.411 25.5593C232.422 25.5575 232.432 25.5577 232.441 25.5605C232.486 25.5813 232.523 26.269 232.528 26.2697C232.517 26.3025 232.471 25.5087 232.442 25.4988C232.456 25.4952 232.211 25.7558 231.733 25.8646C231.28 25.9725 230.776 25.9199 230.913 25.2815ZM240.345 24.174C240.588 23.5344 243.161 23.2528 243.254 23.4227C244.026 24.6777 240.573 24.3915 240.345 24.174ZM230.572 23.8237C230.868 21.8891 232.198 23.1097 231.363 24.1121C231.279 24.2036 230.846 23.3893 230.572 23.8237ZM224.571 23.9071C224.505 23.8523 223.189 23.4947 223.18 24.1065C223.375 24.3412 225.287 24.514 224.571 23.9071ZM225.196 21.8236C225.166 21.8389 225.493 23.0103 224.886 22.8746C224.836 22.8615 224.711 21.5386 223.956 22.0397C223.804 22.1428 223.577 23.0246 223.596 23.0788C224.451 25.144 226.74 21.1038 225.196 21.8236ZM240.385 23.0995C240.238 22.5409 240.573 20.8775 240.885 21.7168C241.018 22.0793 240.781 23.0774 240.385 23.0995ZM220.38 23.4476C221.135 22.4284 218.711 22.2758 218.581 22.5348C218.673 23.1613 220.306 23.5475 220.38 23.4476ZM11.1645 10.4328C11.1637 10.4328 11.163 10.4327 11.1622 10.4327C11.949 10.6966 11.4163 11.5115 11.4536 11.5394C13.0766 12.8478 12.7226 10.9331 12.9995 10.7221C13.5879 10.2677 13.3768 12.567 14.3757 11.6643C12.7338 12.989 14.1889 12.4755 14.187 13.2982C14.1772 16.6524 12.1989 11.6188 11.3682 12.2871C11.2564 12.3792 12.008 13.4847 11.7154 13.7757C10.7824 14.7165 8.14476 9.43443 11.1645 10.4328ZM241.121 21.569C241.463 20.5817 243.954 21.5295 243.296 22.3423C243.2 22.4714 240.643 23.0055 241.121 21.569ZM131.114 20.9781C131.732 20.1384 130.36 19.1096 130.092 19.768C129.956 20.0958 130.85 21.3467 131.114 20.9781ZM121.45 17.1984C121.196 17.2588 120.928 17.7633 120.733 18.3561C120.433 19.3077 120.318 20.4866 120.715 20.4213C120.755 20.4151 120.8 20.3975 120.85 20.3673C120.946 20.3078 121.527 17.6918 121.45 17.1984ZM165.657 19.5114C164.956 18.2412 164.995 20.6 165.511 20.5672C165.693 20.556 165.679 19.5516 165.657 19.5114ZM139.326 19.6384C139.265 19.555 138.478 19.6905 138.5 20.233C138.777 20.564 139.748 20.2115 139.326 19.6384ZM165.88 19.1758C165.464 19.6006 166.178 21.3072 166.687 19.6403C166.429 19.7769 165.923 19.1325 165.88 19.1758ZM229.172 18.6603C228.923 19.6383 228.029 19.3739 227.53 19.5542C227.443 18.3019 228.851 18.9 229.172 18.6603ZM124.432 18.6573C123.745 19.5337 125.181 20.2747 125.058 19.1043C125.042 19.0406 124.461 18.6199 124.432 18.6573ZM188.206 18.9938C187.758 19.7454 189.203 20.7419 188.798 19.4291C188.773 19.3756 188.23 18.952 188.206 18.9938ZM194.395 19.3664C194.074 19.1188 192.642 19.2137 193.207 19.9372C193.29 20.0487 194.39 20.0524 194.395 19.3664ZM13.0924 9.82232C12.9326 8.52292 14.2245 8.89832 14.3974 9.13454C14.4631 9.23171 13.2954 11.5114 13.0924 9.82232ZM161.106 19.3031C160.739 19.4636 159.806 19.1549 159.637 19.8307C160.079 19.6919 161.221 20.6504 161.106 19.3031ZM127.506 18.6925C126.926 17.2827 125.929 17.4074 126.149 19.2406C127.269 19.1337 126.032 17.5933 127.506 18.6925ZM168.217 17.6694C167.926 17.5625 167.702 19.32 167.735 19.4028C168.05 20.1907 168.506 18.3533 168.217 17.6694ZM146.524 19.0349C146.508 18.2837 145.616 18.6159 145.727 19.1004C145.765 19.2631 146.527 19.6428 146.524 19.0349ZM217.676 18.4757C217.251 17.7959 218.509 17.1085 218.902 17.903C219.1 19.0536 217.734 18.5539 217.676 18.4757ZM176.28 18.1022C176.323 16.9875 174.867 17.6202 175.443 18.5431C175.588 18.7741 176.266 18.4749 176.28 18.1022ZM190.107 16.7026C189.707 17.2611 190.194 17.7452 190.779 17.9992C191.63 18.3532 192.704 18.2585 192.091 17.3005C192.037 17.2283 191.346 16.9749 190.768 16.8176C190.43 16.7199 190.138 16.6594 190.107 16.7026ZM196.467 17.4533C196.313 17.3095 196.32 13.5637 196.977 14.9956C197.063 15.1812 196.698 16.1786 196.769 16.4037C196.811 16.5326 198.186 17.0298 198.232 16.9405C198.295 16.8396 198.189 15.6414 198.253 15.5052C198.333 15.353 199.156 16.3873 199.572 16.3864C200.35 16.3831 200.398 15.3807 200.463 15.3754C200.648 15.3626 200.977 16.0613 201.37 16.0458C202.58 15.996 205.255 15.4845 207.46 15.8633C207.573 15.8153 207.958 15.9007 208.071 15.8543C208.882 16.0445 209.606 16.4122 210.174 17.0805C209.461 16.7037 208.775 16.6816 208.078 16.7976C207.967 16.843 207.591 16.7595 207.481 16.8064C206.428 16.9642 205.341 17.3376 204.303 17.5278C204.717 15.4241 201.778 19.2323 203.468 16.7587C202.35 17.3381 197.131 17.9128 196.468 17.4532C196.468 17.4532 196.467 17.4533 196.467 17.4533ZM118.697 16.1269C119.13 14.8509 116.94 15.124 116.745 16.6026C117.035 16.8095 118.634 16.2712 118.697 16.1269ZM129.056 13.1259C129.272 12.909 129.517 10.4126 130.599 11.7009C130.6 11.7009 130.601 11.7009 130.602 11.7009C130.92 12.0773 130.538 12.6792 130.593 12.8973C130.617 12.9863 131.59 14.249 130.757 14.4328C129.478 14.7155 130.672 12.5711 129.993 12.532C129.906 12.5281 128.59 13.8586 128.666 14.1571C128.671 14.1917 129.066 13.9121 129.128 14.0367C129.363 14.5049 129.231 15.2833 129.265 15.3211C129.367 15.4174 131.428 14.1261 131.697 15.2939C131.787 15.6689 128.441 16.4707 128.318 16.2757C128.237 16.1517 128.307 13.9858 128.224 13.7714C128.174 13.6641 126.823 14.4556 126.657 14.2543C126.608 14.196 126.57 14.1334 126.542 14.0818C126.734 14.7548 125.526 14.6901 125.572 13.9345C125.599 13.6374 126.423 13.8205 126.457 13.8731C126.47 13.8952 126.481 13.9257 126.492 13.9468C126.326 13.1264 129.167 13.2073 128.573 11.9823C129.404 11.3301 128.42 13.7635 129.056 13.1259ZM133.013 11.866C132.925 12.0921 132.837 12.3181 132.748 12.5441C134.178 12.0166 135.726 13.15 137.223 13.1737C137.603 13.1814 137.196 11.7788 137.683 12.17C138.078 12.4835 138.48 13.7844 138.262 14.0683C138.209 14.1393 137.423 13.281 137.01 13.3584C135.793 13.5879 136.068 14.7891 135.997 14.8199C135.918 14.8521 135.159 13.9945 134.723 14.0222C133.628 14.0947 133.104 14.8164 131.574 13.8262C132.482 13.057 132.034 11.3361 133.013 11.866ZM182.404 14.7029C182.455 13.9505 183.329 14.6143 183.642 14.5024C183.594 15.2567 182.727 14.5911 182.404 14.7029ZM61.6219 11.689C61.0703 12.8234 63.0309 13.6277 62.7428 12.4969C62.6935 12.2496 61.9053 11.7683 61.6219 11.689ZM67.2532 13.789C67.3656 13.4625 67.3064 12.549 67.1158 13.4848C67.066 13.7874 67.2471 13.8334 67.2532 13.789ZM149.838 13.3419C149.889 13.3036 150.621 13.5833 150.642 13.6462C151.12 14.9602 148.712 14.1865 149.838 13.3419ZM71.2177 12.2401C70.3305 13.0373 72.9699 13.4231 72.1728 12.3809C72.1302 12.3303 71.2609 12.2015 71.2177 12.2401ZM74.9509 12.0557C74.8623 12.0724 74.6527 12.0154 74.4392 11.9663C74.1066 11.8938 73.7684 11.8385 73.7589 12.0629C73.7444 12.4117 74.0939 12.7007 74.4326 12.6865C74.6701 12.6759 74.9001 12.4986 74.9509 12.0557ZM168.414 13.0062C168.305 11.6154 169.628 12.6688 170.087 12.4934C170.197 13.8853 168.873 12.8307 168.414 13.0062ZM160.073 11.9701C165.643 10.8847 164.408 13.8547 159.741 12.6468C159.737 11.7545 159.724 12.0383 160.073 11.9701ZM167.206 12.1452C167.003 13.0362 166.369 12.7716 165.942 12.6998C166.02 12.0804 166.897 12.3052 167.206 12.1452ZM59.151 9.12222C59.9256 8.14574 61.4795 9.95433 61.0248 10.3215C60.9652 10.4076 58.8702 9.68926 59.151 9.12222ZM150.31 12.1547C150.183 10.8014 151.84 11.3632 151.958 11.6641C152.463 12.8753 150.434 11.8572 150.31 12.1547ZM176.322 11.8091C176.615 10.749 177.457 11.2922 177.992 11.3049C177.751 12.2115 176.781 11.8273 176.322 11.8091ZM172.428 10.9845C172.462 10.9438 173.214 11.0387 173.247 11.0874C173.865 12.1217 171.736 11.8587 172.428 10.9845ZM10.4678 0.219486C10.4991 0.186337 11.2058 0.283241 11.2284 0.324303C11.8143 1.36672 9.70553 1.07166 10.4678 0.219486Z" fill="#D7F9FF" fill-opacity="0.7"/>
</svg>
