<svg width="251" height="107" viewBox="0 0 251 107" fill="none" xmlns="http://www.w3.org/2000/svg">
<path d="M15.3414 99.8794C15.468 99.7752 15.8725 100.05 16.1207 100.081C16.1468 100.084 16.1709 100.085 16.1926 100.081C16.1642 100.184 16.1321 100.272 16.0974 100.347C15.6788 101.227 14.8838 100.267 15.3414 99.8794ZM56.9148 8.4404C56.4968 8.69026 56.0725 8.94024 55.6415 9.19064C56.6402 9.6136 57.967 9.65705 58.7054 10.1499C58.8262 10.2318 58.2684 11.0891 58.5715 11.2026C58.8714 11.3154 59.1097 10.0234 59.5826 9.9896C60.15 9.96191 61.9735 11.3444 62.5509 11.4655C64.8756 11.9499 66.6633 11.6126 67.4486 12.3286C66.1783 13.0491 67.1113 14.2628 67.3965 13.8875C67.421 13.7924 68.1028 11.4438 68.2838 12.0953C68.2862 12.1104 68.2871 12.1297 68.287 12.1528C68.9543 12.8502 66.8125 15.7308 66.298 14.0258C67.2702 11.6493 65.7816 11.7245 66.8868 11.7011C66.9458 11.692 68.4149 12.1058 69.2112 12.013C69.4745 11.9813 69.8942 10.7118 70.2657 10.685C70.5037 10.6673 70.6882 11.3693 71.0633 11.3398C72.4413 11.238 73.8785 11.1945 75.3353 11.3033C75.7171 11.3326 76.1246 11.3731 76.5268 11.4264C75.392 14.701 77.3751 12.8327 77.4759 12.9901C77.9196 13.8852 75.8733 14.1232 76.6734 14.6871C77.8203 14.5943 78.9386 14.4999 80.1015 14.405C79.1594 13.9964 81.365 11.6472 81.7607 12.7234C81.5948 9.82188 87.0165 15.2734 87.8618 14.3068C88.0361 14.1027 86.9051 12.6646 89.5407 13.3302C89.827 13.4041 89.7155 14.2792 89.8664 14.1981C89.9586 14.1494 90.5087 11.3688 91.0835 12.9083C91.2933 13.4701 89.9326 15.2932 92.9119 14.5684C91.7343 11.7327 97.0503 13.0477 98.0308 13.7602C97.8358 13.3792 97.6409 12.9981 97.4462 12.6171C98.4131 13.6464 98.5909 12.684 98.8092 12.7372C99.6891 12.9506 100.898 13.9246 101.72 13.8386C102.684 13.7396 102.688 11.9784 103.811 12.667C103.546 12.2776 103.28 11.8882 103.015 11.4987C103.793 11.5947 104.562 11.6908 105.341 11.7869C103.534 14.1125 105.73 11.8994 105.873 11.8497C106.102 11.7656 105.77 12.719 106.153 12.6014C106.193 12.582 106.136 11.683 106.732 11.584C107.972 11.3804 107.767 12.5098 108.291 12.4989C108.338 12.4933 108.176 11.6829 109.074 11.4946C111.939 10.8956 109.051 12.115 108.948 12.2266C108.803 12.3738 109.77 15.761 107.349 14.5526C108.157 14.9374 108.239 16.4351 108.33 16.4726C108.413 16.5034 109.819 16.2977 109.901 16.2465C110.598 15.7406 109.99 14.715 110.127 14.5322C110.236 14.3847 111.938 15.725 112.346 12.6489C113.146 15.4913 111.869 15.2256 110.499 15.6567C110.296 16.2384 111.796 16.8109 111.875 16.8097C113.809 16.8127 112.751 14.473 113.181 12.9821C113.408 12.202 114.188 13.7988 113.47 11.7016C115.231 11.4886 114.16 12.6971 114.271 12.8772C114.444 13.1418 115.065 12.5446 115.14 12.625C115.253 12.7439 114.857 13.4669 115.3 13.7244C115.372 13.7619 116.099 12.518 115.176 11.9171C116.418 12.1006 116.326 11.0365 116.733 13.1825C117.614 9.13143 117.346 15.5833 117.682 15.8124C118.573 16.4167 118.332 13.2309 118.38 13.0759C118.728 12.0825 121.207 13.193 121.853 12.7397C121.588 15.031 119.853 12.7499 119.46 13.1925C118.157 14.6643 121.287 14.3516 120.324 17.2269C120.723 16.4383 121.123 15.6497 121.532 14.8614C122.071 16.2662 121.612 17.0661 122.195 17.0872C122.392 17.0942 122.702 17.0199 123.178 16.8589C123.426 15.6742 122.546 16.3802 122.202 16.3097C122.09 16.2852 122.043 16.1669 122.133 15.8428C122.151 15.7776 122.176 15.717 122.207 15.6604C122.55 15.0769 123.486 14.9219 123.517 14.5669C123.537 14.0978 122.511 14.6448 122.676 13.9246C123.024 12.3689 126.838 13.8907 123.931 14.7112C124.724 14.6923 125.122 17.7943 125.828 16.8371C126.29 16.2164 123.772 11.9069 127.614 12.7388C127.683 14.2022 126.071 13.1512 126.029 13.2624C125.968 13.4237 126.223 16.7276 126.27 16.8911C126.435 17.4274 130.402 15.7156 131.207 17.3913C130.92 15.4769 134.189 17.1074 134.542 16.535C134.639 16.3766 134.312 15.2008 134.415 15.0793C135.064 14.3565 136.684 16.4789 137.425 16.5492C138.259 16.6287 138.173 15.6173 138.22 15.6202C138.581 15.6843 138.277 16.3621 138.498 16.3649C138.841 16.3697 141.097 16.5543 141.206 16.4127C141.239 16.3688 140.895 15.2094 141.387 14.9996C141.473 14.963 141.393 16.3299 142.849 15.763C144.597 15.0801 141.674 14.0443 142.419 12.6244C143.497 14.6804 143.49 12.6597 143.793 12.8229C143.903 12.8823 144.652 14.6106 145.509 14.5124C144.889 14.7835 144.279 15.0541 143.663 15.3238C144.257 15.6339 145.433 15.2765 145.925 15.6223C146.166 15.7907 145.944 17.199 146.482 17.167C146.601 17.1524 147.069 13.7211 145.678 15.247C145.584 14.0186 146.219 14.8254 146.539 14.4818C146.591 14.4282 146.784 12.3802 147.162 13.6583C147.251 13.9617 146.236 19.5437 148.602 16.0444C148.683 15.9211 148.769 15.7865 148.86 15.6401C148.945 15.5013 148.659 14.7498 148.743 14.5953C148.796 14.4906 149.472 14.7994 149.553 14.6937C149.631 14.5803 149.305 13.76 149.399 13.5998C149.886 12.7748 150.464 16.0224 149.501 15.7676C149.831 16.1711 150.136 16.5743 150.464 16.9776C150.13 14.5309 150.987 16.2938 151.432 16.2214C154.339 15.7589 152.404 14.1569 152.908 13.3376C153.73 12.0217 153.079 16.2009 154.285 14.9506C154.395 14.8335 152.958 13.0512 155.781 14.0667C155.358 14.134 154.946 14.2012 154.529 14.2682C154.754 16.6335 156.038 14.1133 156.134 14.0805C157.239 13.7606 156.498 14.61 158.148 13.3989C158.295 13.2902 158.62 13.8748 158.936 13.5848C160.246 12.3903 157.21 12.8513 157.13 11.8935C157.093 11.4248 160.355 11.5542 160.471 11.7768C160.946 12.7654 158.984 12.2071 159.355 13.4336C159.495 13.87 164.157 12.9881 165.099 13.4656C166.179 14.0221 166.665 17.2277 166.675 13.6264C166.976 17.1618 167.249 14.7501 167.388 14.7746C169.063 15.1033 169.067 15.1389 170.503 14.8007C170.821 14.7272 171.089 15.7998 171.201 15.6187C171.266 15.5093 171.144 14.3615 171.464 14.0073C171.908 13.523 174.578 14.7021 174.779 15.3362C174.978 15.9706 173.649 15.6123 173.889 16.6553C174.851 16.7601 175.771 16.501 176.737 16.6096C177.137 16.6578 176.932 17.3882 177.105 17.4025C177.181 17.4114 178.565 16.766 178.505 16.4967C178.371 15.8713 174.087 16.2978 175.214 15.0184C175.429 14.7713 176.202 16.4529 176.077 14.407C179.899 14.8659 183.719 15.3196 187.514 15.7641C185.334 17.3058 182.877 15.946 180.577 16.0953C180.258 16.1139 179.198 15.9189 179.329 16.9528C181.285 17.2164 183.71 16.67 185.58 17.3358C185.639 17.3578 185.425 18.2879 185.648 18.4342C186.073 18.7073 187.419 17.2023 187.656 17.5884C187.697 17.6785 186.92 18.9073 187.162 19.6846C187.785 21.6791 187.914 17.2539 188.425 17.3035C188.838 17.3441 191.534 19.4659 192.178 18.1084C192.873 16.6625 190.204 17.287 190.397 16.1072C191.287 15.5125 192.208 15.5222 193.075 15.662C193.986 15.8029 194.83 16.0767 195.679 15.9923C195.708 15.9882 195.448 15.0683 195.809 14.9347C196.457 14.7019 196.621 16.0089 196.945 16.2139C197.287 16.4325 198.439 16.2265 198.607 16.7006C198.629 16.7629 198.415 18.0654 198.378 18.1025C197.885 18.6461 197.672 16.9634 197.624 16.9426C197.444 16.8814 197.292 17.5293 197.129 17.4932C196.86 17.4329 196.707 16.8377 196.359 16.7896C196.115 16.7541 196.366 17.898 196.128 17.8486C196.031 17.8261 195.087 15.218 195.02 17.8923C195.08 18.7454 202.482 19.7028 203.007 18.9875C202.41 18.6854 201.818 18.3808 201.212 18.0745C202.449 18.8273 203.775 16.6419 204.013 19.7953C205.532 19.8292 207.882 19.8193 210.078 19.866C210.179 19.8233 210.525 19.8992 210.626 19.858C213.964 20.001 217.292 20.137 220.587 20.2606C221.488 20.5174 221.031 22.5554 222.499 21.9423C222.102 21.3013 221.72 20.6599 221.322 20.0185C222.09 20.463 225.444 21.2942 225.965 20.8633C226.028 20.8071 226.103 18.9677 226.907 18.7931C227.636 18.6383 227.77 20.0126 228.166 20.2675C228.491 20.4778 228.843 20.1083 228.94 20.182C229.014 20.241 229.064 21.0822 229.241 21.2247C229.801 21.6645 229.298 19.3057 229.911 22.0132C229.783 22.1205 229.653 22.2277 229.52 22.3349C230.192 22.7119 231.13 23.9215 230.17 24.5585C230.008 24.6682 230.128 23.85 230.005 23.8547C225.022 24.1254 229.085 25.6189 230.743 24.3043C231.241 25.5006 233.539 24.6822 233.582 24.9149C233.695 25.255 233.37 26.2345 233.884 27.0464C233.94 27.1324 234.686 26.974 235.103 27.0016C235.532 27.0286 235.535 27.2578 235.479 28.0672C235.459 28.2347 235.239 28.2461 234.887 28.2255C234.541 28.2049 234.119 28.1488 233.95 28.1798C234.63 30.1292 235.816 28.3226 235.476 27.4904C235.777 27.3373 236.85 27.5169 237.159 27.3802C237.497 27.1141 237.724 26.9314 237.808 26.9502C238.635 27.1557 237.638 27.8888 237.203 28.5182C236.905 28.6499 235.871 28.4769 235.58 28.6244C235.628 28.8752 235.651 29.1119 235.642 29.2946C235.926 29.1503 236.938 29.3195 237.229 29.1907C237.417 29.3208 237.793 29.4113 238.351 29.4497C240.611 29.6227 238.47 27.9647 239.311 27.2159C239.821 26.7924 242.138 28.6455 242.039 26.2107C242.808 25.9431 242.367 27.2379 242.464 27.3298C242.562 27.41 244.038 26.67 244.509 27.1822C244.566 27.2459 244.391 28.5135 244.451 28.6169C244.569 28.7935 245.955 28.5355 246.008 28.4283C246.043 28.3536 245.711 27.2454 245.846 26.976C246.004 26.6652 247.324 26.9237 247.394 26.6067C247.498 26.127 245.869 26.4459 246.137 25.2052C246.895 25.5155 248.107 24.6868 248.595 23.6881C248.475 23.9736 247.756 24.0151 247.503 23.9149C247.622 22.098 249.167 22.1218 248.64 23.5599C248.974 22.7876 248.745 22.3781 248.933 21.6493C248.983 21.4647 249.457 21.4265 249.548 21.112C249.56 21.0493 249.071 20.364 249.169 19.9951C249.348 19.3282 250.778 19.4781 250.892 19.6531C251.22 20.1487 250.06 20.7485 249.961 21.5147C249.949 21.6324 250.937 23.1339 250.951 23.2665C251.009 24.6893 249.91 23.664 250.035 24.945C250.308 25.2156 250.58 25.4862 250.851 25.7568C249.809 27.0539 247.844 26.3876 247.333 27.8642C248.92 27.423 250.544 27.4755 250.541 30.7985C250.54 32.198 249.869 33.0185 249.895 33.3743C249.995 34.6475 250.925 33.2643 250.959 33.3316C250.987 33.4092 251 33.4847 251 33.5582C251 33.5583 251 33.5583 251 33.5583C251.001 34.3038 249.674 34.8407 249.606 35.1811C249.495 35.7857 250.087 38.2745 250.086 38.825C250.065 38.9355 249.118 39.5247 249.438 40.4853C249.762 41.4555 250.589 41.4769 250.617 41.5777C250.776 42.1582 249.329 42.6877 249.285 43.0306C249.263 43.2039 250.041 44.2686 250.063 44.5747C250.082 44.8819 249.492 45.5522 249.259 46.5219C249.086 47.2423 249.591 47.7945 249.503 47.9074C249.44 47.9822 248.071 47.9706 248.002 48.0974C247.902 48.2848 248.224 49.1454 248.178 49.3607C248.111 49.6704 247.669 49.36 247.727 49.6785C247.771 49.9157 249.485 52.8826 249.473 53.6755C249.454 55.0275 247.644 51.9173 249.329 57.2523C249.34 57.2873 249.75 56.908 249.761 56.9409C250.014 57.9226 248.703 59.4329 250.306 59.1687C247.323 60.8744 249.935 61.2013 249.494 63.4781C249.324 64.3531 248.17 64.7146 248.166 64.8459C248.278 65.956 248.645 65.0948 248.77 65.6391C248.839 65.9431 247.809 67.1176 248.042 67.8796C248.162 68.2722 249.256 68.1319 249.301 68.2085C249.735 68.931 249.203 69.7095 249.299 70.2228C249.362 70.5669 250.023 70.594 250.04 70.656C250.068 70.7849 249.171 72.1755 248.985 72.6644C248.843 73.0405 249.376 73.6295 249.277 73.7935C248.681 74.7739 247.416 72.2746 248.636 75.7774C248.71 75.9923 249.172 75.9053 249.186 75.9481C249.471 76.9413 248.622 77.0274 248.471 77.8406C248.211 79.2418 249.429 78.46 248.416 79.4459C249.176 80.3617 249.6 80.3234 250.496 80.068C248.02 80.7807 247.163 84.4086 249.895 84.3162C249.023 84.2598 249.121 86.3069 248.862 86.3429C248.7 86.3629 247.447 84.3287 248.024 88.8948C248.096 89.4652 248.857 88.7399 248.619 89.9076C246.797 89.6111 248.58 90.6505 248.583 90.8049C248.543 93.4934 244.15 91.2984 243.472 91.6145C242.64 91.9764 241.972 94.1049 241.808 94.1099C241.266 94.1187 241.7 93.036 241.573 92.6422C241.407 92.2506 240.05 94.3416 240.059 94.2309C239.838 93.7828 240.009 92.5015 239.986 92.4378C239.919 92.2593 239.786 92.178 239.662 92.1542L241.441 92.0378C239.335 92.1336 237.541 92.7404 236.848 92.5458C236.892 93.374 238.696 93.3507 237.633 94.7337C236.411 96.3418 236.23 92.6953 236.183 92.5374C230.817 92.7793 226.185 92.8784 221.399 92.9825C221.482 94.9228 224.579 93.4137 224.655 93.6668C225.094 95.1749 219.825 95.223 219.184 94.5426C219.677 94.9559 220.167 95.369 220.664 95.7818C219.852 98.0234 217.976 95.147 216.789 96.144C216.403 96.4673 217.159 97.3205 217.144 97.3794C216.717 98.2504 216.005 97.59 216.519 96.4215C215.472 97.5466 215.607 96.3154 214.795 96.2307C214.753 96.2272 215.111 97.1242 214.47 97.5033C214.166 97.6804 212.558 97.697 212.349 98.486C212.261 98.8182 213.111 102.302 213.186 99.297C214.948 100.746 213.734 97.923 214.416 97.986C214.523 98.0007 214.289 99.6805 216.005 98.8744C215.709 101.902 213.699 99.6589 213.373 100.028C212.68 100.787 215.572 102.323 216.083 99.9601C215.861 102.322 216.285 100.276 216.936 100.366C217.642 100.464 217.341 101.17 217.722 101.17C218.776 101.176 218.312 99.5151 219.198 101.007C218.299 96.3678 220.67 100.376 221.363 101.584C220.268 101.835 219.155 102.084 218.068 102.332C218.133 102.576 218.199 102.819 218.265 103.062C217.975 103.031 217.68 103 217.394 102.968C217.438 102.734 217.481 102.499 217.525 102.265C216.049 103.802 215.673 102.095 215.55 102.077C214.194 101.918 212.66 101.92 211.248 101.927L211.834 101.918C211.664 101.921 211.513 101.924 211.352 101.928C211.169 101.932 211.353 103.445 210.011 102.297C209.562 101.933 209.941 100.735 209.434 100.931C208.888 104.171 208.779 101.608 208.564 101.612C207.925 101.637 207.499 102.451 207.438 102.461C206.559 102.62 205.161 102.533 204.151 102.679C204.132 102.692 204.694 103.665 204.017 103.391C203.78 103.294 201.612 99.1286 199.95 100.531C200.396 100.808 200.859 101.085 201.311 101.36C200.747 100.977 197.14 102.094 198.04 103.21C198.603 103.893 199.88 101.153 200.087 103.764C199.237 103.258 196.025 103.651 193.858 103.777C192.801 103.84 191.977 103.84 191.809 103.639C191.739 103.553 192.16 102.702 192.063 102.594C191.982 102.512 190.528 102.723 190.324 102.398C190.206 102.205 190.855 101.681 190.799 101.376C190.746 101.158 188.928 100.806 188.826 101.87C189.278 101.441 190.526 101.806 189.878 102.706C189.795 102.818 189.352 102.135 189.248 102.277C188.295 103.585 191.163 103.256 191.601 103.262C189.8 104.631 187.032 103.048 184.966 103.939C184.122 103.057 186.203 102.58 185.252 101.85C183.288 100.338 184.736 103.076 184.673 103.189C184.196 104.084 182.52 99.3038 182.533 102.946C181.822 102.4 182.047 101.94 181.053 102.42C181.185 102.672 181.317 102.924 181.449 103.175C180.341 105.289 177.987 99.9699 178.163 99.5634C178.629 98.4758 179.859 100.168 179.961 100.127C180.113 100.067 180.534 96.3695 182.231 99.6697C182.914 97.1886 179.549 98.0036 181.078 96.3097C180.041 96.5905 175.789 94.8721 175.179 95.9602C175.106 96.1024 175.449 98.5724 174.397 97.316C173.897 96.7177 175.101 96.6879 174.872 96.1253C174.168 94.4016 164.63 95.5032 162.815 95.5874C162.697 95.5899 162.742 94.8233 162.626 94.8301C162.27 94.8508 160.971 95.9909 160.337 95.6362C161.651 97.059 159.085 97.1622 158.438 97.0035C157.442 96.7622 157.512 95.4132 157.088 95.1247C155.445 94.0126 152.86 97.2026 151.59 94.1995C151.631 97.1721 149.368 92.7277 148.303 92.6919C148.178 92.6875 148.045 92.7294 147.913 92.8078C147.146 93.2427 146.43 94.8027 147.361 95.8269C145.928 95.6766 144.401 96.2135 143.037 96.3748C142.814 96.402 143.133 95.5276 142.752 95.6016C142.717 95.6147 142.653 96.4751 142.32 96.5598C139.585 97.2676 140.933 95.4578 140.436 94.9117C140.164 94.6056 139.945 94.4518 139.794 94.3997C141.394 94.2609 143.213 93.9482 143.711 93.9301C143.317 92.0243 140.194 94.2434 139.291 93.7127C139.259 93.6935 139.389 92.6475 139.357 92.6395C139.357 92.6395 139.356 92.6395 139.355 92.6395C139.016 92.5535 136.864 92.8963 137.281 94.1549C137.387 94.4911 138.379 94.5116 139.561 94.4198C139.238 94.6483 139.454 95.8268 139.397 95.8758C138.698 96.4438 137.052 95.2637 136.478 95.0964C136.346 95.0596 136.339 95.8119 136.317 95.8133C135.793 95.631 136.057 93.488 135.47 95.691C134.579 92.9936 137.262 95.3325 137.114 93.5897C136.936 92.2477 131.01 92.8362 131.032 94.9495C131.016 94.7236 130.944 94.4421 130.788 94.1206C130.443 93.4057 128.841 93.5992 128.567 93.984C128.519 94.0597 128.505 96.1068 128.447 96.1248C128.303 96.1689 126.387 94.5358 125.632 95.7373C126.034 96.0291 126.406 96.3209 126.804 96.6132C124.426 96.5999 124.796 97.2155 125.571 97.8364C125.609 97.8424 125.646 97.9206 125.685 97.9294C126.301 98.3895 127.071 98.8361 127.081 98.9978C127.111 99.6122 123.1 99.9085 123.884 98.0188C124.002 97.76 125.858 98.627 124.947 97.2613C124.782 97.0218 123.574 97.3958 123.518 97.246C123.094 96.2481 125.757 94.9578 125.445 93.5436C124.793 94.8793 123.97 94.1627 123.242 94.5026C122.906 94.6561 122.81 95.6816 122.768 95.7005C122.152 95.9628 122.507 94.89 122.302 94.915C122.243 94.9244 121.862 95.5815 121.55 95.7071C121.292 95.8162 121.088 95.5241 121.206 94.0574C117.676 96.0447 119.423 96.323 121.545 96.2593C121.881 96.2496 122.218 96.232 122.54 96.2112C122.277 96.5999 121.927 96.7906 121.54 96.8833C120.825 97.0634 119.99 96.8752 119.535 97.0482C119.284 97.1434 119.421 98.1978 119.001 98.4058C118.134 98.8326 114 97.6005 112.908 97.3111C113.575 96.9418 113.386 95.7934 112.871 95.8704C112.354 95.948 112.782 97.4816 112.68 97.6458C112.565 97.8156 110.156 97.0828 109.75 97.2798C111.57 96.7321 111.168 95.5861 109.621 95.4604C109.847 95.1317 110.072 94.8029 110.297 94.4742C109.388 94.9338 107.478 93.1812 106.955 93.699C106.872 93.7822 107.165 94.7454 107.118 94.7921C106.656 95.1993 105.089 94.2128 105.015 94.5409C104.952 94.814 105.619 95.6229 105.37 96.0192C105.319 96.1026 104.673 94.7999 104.038 95.1176C103.802 95.2345 103.941 96.1449 103.881 96.1975C103.384 96.6336 103.682 95.1022 102.773 95.3455C102.111 95.5257 101.609 97.0223 100.693 96.5233C103.703 98.4423 101.17 97.6367 99.907 98.2116C99.7044 98.3033 99.8728 99.9558 98.6668 99.1479C101.247 96.1686 97.9392 97.5669 97.2613 97.5322C97.2242 97.522 97.2148 96.4325 96.883 96.4141C96.855 96.415 96.893 97.1513 96.5847 97.2067C93.6553 97.73 95.53 96.904 94.9762 96.1763C94.7418 95.8663 93.3118 96.9029 92.929 96.9268C92.8404 96.9291 92.8834 96.1642 92.541 96.1931C91.9353 96.246 91.3953 97.0586 90.9927 97.1219C90.9463 97.1254 90.9468 95.9184 90.1906 96.3073C89.9782 96.416 89.7393 96.8438 90.0387 97.1919C91.0335 98.3367 92.9477 96.3675 94.0704 97.5102C95.0996 98.551 91.8436 98.6385 91.6761 98.644C91.6141 98.6476 92.25 98.0503 91.6065 97.9296C91.0514 97.829 90.0443 99.9104 89.2152 99.4535C89.1519 99.4196 88.5019 97.6496 88.533 97.5466C88.5595 97.4715 89.5711 97.0914 89.4266 96.5793C89.4088 96.521 88.7667 96.5306 88.6851 96.1494C88.5839 95.6855 88.3276 91.135 88.1883 91.0204C87.8354 90.7373 88.0618 91.7758 87.8336 91.7027C87.347 91.5488 85.6549 90.1967 85.596 91.7733C85.874 91.8681 86.1536 91.9628 86.4347 92.0575C84.8751 92.2134 85.5397 92.8873 85.3176 93.1821C85.078 93.5011 85.1487 92.1153 84.6221 91.9828C84.511 91.9539 82.3016 92.233 82.3454 92.8147C83.559 91.8949 83.1057 93.6056 83.1602 93.6365C83.3724 93.7491 83.6568 92.7896 83.9396 92.81C85.9467 92.9691 83.9131 94.4769 84.386 94.8689C84.5484 95.0009 84.879 94.1821 84.9488 94.2243C85.1748 94.3611 85.1762 95.4353 85.3258 95.349C85.6744 95.1489 85.2747 93.6273 85.3027 93.5483C85.6142 92.5985 86.8408 93.7868 86.0682 95.4375C86.5244 96.0354 86.5916 94.0257 86.9491 94.8306C87.6614 96.4245 86.5878 96.0117 86.2878 96.2746C85.2327 97.2234 84.9189 96.4507 83.4256 96.708C82.8809 96.7986 82.2515 97.7719 81.9923 97.8242C81.8302 97.8572 80.3644 94.4524 80.2863 99.7684C79.7153 99.2508 78.8079 95.742 78.2205 95.8983C77.6709 96.0409 77.8339 97.9228 77.782 97.9952C77.7002 98.109 77.0571 97.9563 76.8304 98.2204C76.5639 98.5325 76.6888 99.2514 76.2718 99.5408C75.253 100.259 75.2694 98.339 75.1702 98.2135C74.867 97.854 74.6754 97.7509 74.5504 97.8027C74.1485 97.9598 74.3973 99.5494 74.1838 99.7123C73.9461 99.9132 70.2875 98.8196 69.4737 99.4942C69.7933 99.1149 70.1231 98.7354 70.4529 98.3557C69.8874 97.1499 69.2614 99.0927 69.2785 96.9453C69.1 100.41 67.9434 98.071 67.5615 98.1519C67.4138 98.1856 67.4121 98.7765 67.23 98.7979C66.517 98.8872 64.8238 98.3694 64.3542 98.6512C62.3997 99.8773 67.1501 102.176 67.3882 102.3C66.8148 102.259 62.4184 102.892 64.386 104.625C64.7029 104.893 65.2711 103.358 65.4465 103.302C66.5594 102.933 65.655 104.299 65.7378 104.433C65.8859 104.651 66.6298 103.325 66.8142 103.49C66.8689 103.542 66.4643 104.793 67.4583 104.841C66.9806 106.055 63.9989 104.979 63.4668 105.24C63.226 105.327 64.4709 108.011 61.0785 105.305C61.1081 105.549 61.138 105.793 61.1682 106.037C60.3391 106.028 59.3756 106.009 57.9352 105.911C57.2203 105.861 56.3058 105.779 55.3637 105.669C54.4278 105.559 53.6233 105.444 53.9531 105.517C53.4322 105.46 52.9227 105.401 52.4257 105.341C52.7524 104.831 54.1236 103.921 52.5885 103.907C51.7188 103.897 52.1318 105.229 52.0492 105.251C51.6293 105.362 48.0471 104.684 45.2325 103.976C42.3336 103.259 40.2328 102.649 39.6174 102.574C39.1506 102.505 37.919 103.236 37.8707 103.245C37.6517 103.245 37.2477 103.01 36.9618 102.812C36.6673 102.612 36.4903 102.448 36.4182 102.505C36.3281 102.58 36.1951 103.612 36.1463 103.553C36.1048 103.497 36.3463 102.521 36.3392 102.477C36.3312 102.428 36.304 102.404 36.2708 102.398C33.2915 101.854 30.4338 101.278 29.518 101.157C28.4673 100.996 28.1511 100.935 28.0416 100.482C28.1447 100.655 28.5934 100.323 29.3664 99.9586C30.0847 99.5798 31.5005 99.2595 31.5546 98.906C31.5574 98.8566 31.2904 98.5632 31.0579 98.3382C30.8221 98.1125 30.6036 97.9516 30.4795 98.1108C30.4039 97.1893 29.0624 99.5673 28.9731 99.0073C28.9633 98.944 29.4347 97.5317 29.0769 97.1617C28.9516 97.0348 28.3494 98.0766 28.3067 96.7363C27.9903 96.9826 27.2901 96.4927 26.3947 96.1237C25.5115 95.7542 24.487 95.5168 24.2325 96.2853C24.2171 96.3678 24.6633 96.9914 24.2079 97.584C23.5957 98.3719 24.473 95.5392 23.9304 95.2044C23.8499 95.1502 22.1325 95.2192 22.0299 95.3925C21.3048 96.9584 22.7112 97.8094 22.6591 97.9977C22.5444 98.4662 21.2887 98.5993 21.2495 98.4819C21.2129 98.3583 22.5016 96.3207 21.1683 96.9904C21.2821 97.2663 21.3923 97.542 21.4989 97.8176C20.8659 98.2511 20.9738 96.7468 20.8388 96.6381C20.427 96.2967 19.6826 98.517 19.2281 95.6259C19.1017 94.858 19.5265 94.064 19.5127 93.9495C19.3688 92.9186 18.7832 95.5755 18.6153 93.5332C18.5954 93.3807 19.6086 92.2648 18.0543 92.1116C18.1439 92.3143 18.2347 92.5171 18.3229 92.7197C18.1286 93.0075 17.3054 93.1486 16.7266 93.1637C16.4853 93.1695 16.2996 93.1544 16.2376 93.1192C15.6171 92.7675 16.2959 91.432 15.6312 91.5432C15.8889 93.471 13.9083 93.5618 14.1458 91.94C13.716 93.9678 12.1775 92.2674 11.4034 92.1717C10.9135 92.1108 9.8735 92.9499 9.72573 92.8373C9.54562 92.6988 9.67991 91.3013 9.35407 90.9715C9.25961 90.8771 8.20422 91.8522 7.38298 90.3655C7.22359 90.0788 6.95499 87.6873 7.30142 87.1061C7.9005 86.1113 8.86966 88.0759 8.92209 86.6715C8.98101 85.1677 7.50605 85.9956 7.13489 85.7861C5.39892 84.8133 6.47298 83.254 6.44708 82.7676C6.37093 81.5876 5.38127 81.5926 5.34452 81.4864C5.18646 81.0118 5.91608 80.1026 5.9499 79.3859C5.99633 78.4519 5.07594 76.7377 5.30415 76.4293C5.63334 75.9904 6.48743 77.4246 6.54273 77.3597C7.31411 76.4799 6.37754 74.2861 6.12264 73.2174C6.04662 72.8885 6.40772 72.3635 6.33946 72.2656C5.28921 70.7798 6.01409 75.2904 5.30487 74.97C4.66987 74.6856 5.53622 73.2898 5.51451 73.2112C5.48525 73.124 4.71469 73.0261 4.60502 72.5218C4.54569 72.2666 6.65257 69.5665 6.61865 68.3297C5.95307 68.5802 5.28837 68.8339 4.62837 69.0911C4.6146 67.4766 5.53066 68.6879 5.63219 68.525C5.83874 68.1969 5.31184 67.3654 5.34849 66.8563C5.36841 66.5321 6.05619 65.3933 5.47738 64.8997C5.27696 64.7295 4.82723 65.8484 4.112 64.6778C6.72726 63.2632 4.96944 62.3142 4.89794 61.7404C4.83357 61.1672 6.12849 59.8535 4.59334 60.0543C4.59665 56.9141 4.64889 59.0626 5.09829 58.5215C5.65384 57.8579 4.4353 56.7889 6.38348 57.629C6.31689 56.1548 4.72003 56.2168 4.63873 56.0991C4.56783 55.9912 4.93984 55.2764 4.81891 55.0287C3.37225 52.157 4.37938 53.4756 3.97596 51.6534C3.9429 51.4898 2.50641 50.7948 3.61131 50.5481C5.63808 50.1037 6.40561 52.2178 6.88748 47.7762C5.43246 45.7931 3.53341 48.6345 3.08578 48.6781C2.38753 48.7388 3.12163 47.8403 3.03996 47.5847C3.01093 47.5019 2.40603 47.5694 2.39851 47.4974C2.00607 44.093 5.10161 47.4784 6.08958 46.922C5.83822 46.4062 5.58893 45.8909 5.33383 45.3759C5.69705 45.3643 6.05702 45.3536 6.418 45.3438C4.72755 44.2749 6.36243 44.9535 6.88308 42.219C6.99963 41.6042 5.8182 42.6286 7.18185 40.952C6.22564 40.526 6.54762 39.9733 5.64963 40.7251C5.69508 39.6219 7.72405 38.4356 8.53435 37.9024C5.78586 36.5696 7.25753 40.6599 4.91211 38.4611C4.43839 39.8159 5.58714 39.5756 5.48819 39.7992C5.1406 40.601 4.3729 39.2964 3.39165 42.1203C3.23344 42.5841 3.85119 44.0274 2.906 43.9448C2.80432 43.9334 2.21132 42.7009 2.22122 42.6123C2.30947 41.6528 2.90983 42.0197 2.93845 41.6195C2.96782 41.2402 2.29048 41.4605 2.2904 41.3555C2.28108 40.1525 2.85831 40.9022 2.77799 40.5248C2.61098 39.7035 0.171957 37.0889 3.37496 37.8836C0.699982 39.2121 3.01461 39.2029 4.05656 38.7006C4.32084 38.5744 4.40436 37.8573 4.78516 37.6158C5.27879 37.3031 5.83956 37.6622 6.09228 37.5372C6.36861 37.3998 4.86918 35.6582 7.0891 36.2286C5.99803 34.503 3.94078 36.2598 2.8412 35.0623C0.587855 32.6408 4.47123 32.1686 4.88549 31.9524C4.99475 31.8917 4.65316 30.9143 4.72607 30.8563C4.84619 30.765 7.05156 31.2694 7.29623 30.4764C7.53883 29.6811 6.48208 30.489 6.43457 29.6514C6.39997 29.0839 9.13676 28.1734 7.68401 27.7406C6.67689 27.442 4.76624 29.6627 4.49952 27.2256C5.9969 27.0524 7.49566 26.8934 8.99393 26.748C8.21247 25.7924 7.4208 24.8404 6.61868 23.8923C8.32724 23.6459 9.7468 24.7455 11.4072 23.4956C7.65878 20.3629 12.7795 21.1838 12.855 20.835C12.8917 20.6198 11.4643 18.1391 11.2325 17.6891C12.6481 16.8167 16.8666 16.6126 14.5813 13.5016C14.9889 14.1963 16.1723 12.6081 16.1684 12.4829C16.1108 11.1607 13.676 11.875 14.1297 10.7134C14.6591 9.36345 15.1918 11.2641 15.8895 11.1571C19.4822 10.609 19.0026 3.70094 22.5224 5.06453C22.4706 4.81534 22.4187 4.56617 22.3667 4.31702C23.073 4.44502 23.772 4.57484 24.475 4.70732C27.7342 5.31269 31.0603 5.97846 34.5561 6.76184C36.4952 4.89201 41.4995 4.36029 44.0595 5.10189C44.5383 5.2315 46.9091 6.8362 47.0607 7.07245C47.3345 7.50669 45.3457 7.23234 46.0904 8.09575C46.2361 8.25144 50.5011 9.70495 50.4694 8.50806C50.0046 8.2513 48.3303 8.46498 48.1417 8.14194C47.5594 7.16726 49.635 7.40229 52.1503 8.03569C53.3749 8.3419 54.6984 8.74771 55.2019 8.91566C55.7623 9.10283 55.0825 8.91476 53.6637 8.60968C54.4215 8.71994 54.9079 8.74986 55.0508 8.64829C54.7975 8.21019 54.5333 7.7714 54.2579 7.33221C55.2091 7.70231 56.0923 8.07338 56.9148 8.4404ZM17.4501 96.7326C17.1657 97.6224 16.756 97.2555 16.3744 97.1841C16.2621 97.1633 16.1546 97.1671 16.0565 97.2327C15.4451 97.6432 14.1318 102.079 14.9079 97.5898C15.3962 97.4243 15.8858 97.2605 16.3819 97.0988C16.7466 96.9765 17.1026 96.8544 17.4501 96.7326ZM26.7117 99.7505C26.5363 99.0711 27.2698 96.6332 27.3214 97.72C27.3255 97.8433 26.9394 100.665 26.7117 99.7505ZM22.9543 97.9085C22.9791 97.8779 23.3448 97.9968 23.3551 98.0386C23.5502 99.0932 22.443 98.7286 22.9543 97.9085ZM58.548 103.909C56.1054 103.774 57.8345 106.278 59.1344 105.429C59.2128 105.375 58.7101 103.919 58.548 103.909ZM56.7798 103.664C55.8383 102.539 53.819 102.719 54.2605 103.515C53.741 104.094 53.4567 104.892 54.0291 105.022C53.9782 105.02 53.9454 105.006 53.9703 104.984C53.9806 104.975 54.0277 104.876 54.2379 104.754C54.4414 104.631 54.8148 104.485 55.2301 104.339C56.0676 104.049 56.8301 103.72 56.7798 103.664ZM25.7264 98.5381C25.9107 97.7676 26.2034 98.2086 26.3196 98.4234C26.1814 99.1315 25.9051 98.4797 25.7264 98.5381ZM39.9684 101.629C40.0802 101.015 38.2299 100.604 38.0194 101.399C38.2695 101.097 39.762 102.152 39.9684 101.629ZM47.3378 102.484C47.2638 102.359 46.0623 102.258 45.9805 102.8C46.3725 103.628 47.6362 103.047 47.3378 102.484ZM68.4029 104.78C68.4488 104.643 67.836 101.143 69.4294 103.468C69.6673 103.808 68.7806 104.705 68.867 104.832C69.0412 105.079 69.1833 105.195 69.2993 105.217C68.5294 105.494 67.7143 105.614 67.6413 105.4C67.2924 104.393 68.3745 104.838 68.4029 104.78ZM75.3514 102.268C75.5162 101.7 76.4292 102.012 76.6483 102.248C76.6848 102.292 76.5132 103.787 76.9395 103.678C77.2715 103.588 76.7854 102.052 77.4325 102.302C78.0924 102.553 77.2008 103.639 77.2591 103.717C77.3295 103.82 78.3755 103.139 78.3284 104.029C78.3091 104.689 77.1963 104.236 76.9364 104.374C76.5834 104.552 77.0016 105.654 76.4137 105.414C76.0469 105.264 76.2659 103.331 76.1892 103.233C76.1316 103.154 74.8264 104.256 75.3534 102.274C75.3528 102.272 75.3521 102.27 75.3514 102.268ZM69.5059 105.135C69.449 105.2 69.3842 105.233 69.2993 105.217C69.3719 105.192 69.4395 105.163 69.5059 105.135ZM19.0433 96.0363C19.2491 96.657 18.3824 97.3366 18.1529 96.5299C18.2137 95.9023 19.0031 95.9383 19.0433 96.0363ZM70.2297 103.572C71.3182 104.072 70.5173 104.728 69.5059 105.135C69.8238 104.776 69.851 103.404 70.2297 103.572ZM30.4795 98.1108C30.4847 98.2617 30.454 98.4864 30.3606 98.8438C30.351 98.4225 30.3997 98.2108 30.4795 98.1108ZM35.1552 99.9467C36.8306 99.714 35.9948 99.2765 34.9435 99.0202C33.8723 98.7576 32.8732 98.7225 32.7927 99.118C32.7637 99.2672 33.1912 99.4578 33.7799 99.633C34.3392 99.8027 35.096 99.9577 35.1552 99.9467ZM60.787 104.187C60.7182 104.128 61.2998 103.284 61.4375 102.746C61.5355 102.202 61.567 102.009 59.5542 103.142C61.5371 103.684 59.4187 103.907 59.3875 104.2C59.3911 104.63 60.3684 104.712 61.1337 104.702C61.9327 104.695 62.608 104.61 62.8649 104.806C63.3368 103.296 61.3385 104.589 60.7907 104.187C60.7895 104.187 60.7882 104.187 60.787 104.187ZM87.1834 103.157C86.9768 104.053 86.3171 103.762 85.8751 103.707C86.0832 102.811 86.7477 103.103 87.1834 103.157ZM203.385 103.695C200 104.602 199.541 100.954 202.618 102.333C202.683 102.363 203.58 103.32 203.385 103.695ZM176.51 102.972C176.222 101.381 177.165 101.123 177.794 101.78C177.935 101.927 178.46 103.539 177.865 103.855C177.88 101.926 176.956 101.19 176.51 102.972ZM70.8655 102.561C71.2112 101.505 72.1802 102.273 72.6812 102.438C72.3713 103.308 71.3364 102.9 70.8655 102.561ZM192.723 101.948C192.398 101.83 192.19 103.216 192.247 103.331C192.498 103.858 193.108 102.733 192.723 101.948ZM67.607 102.341C67.5854 101.707 68.9469 101.122 69.0065 102.691C68.7318 102.573 67.6412 102.74 67.607 102.341ZM86.3508 102.678C86.1622 102.355 87.15 101.781 87.4442 102.102C87.4171 102.777 86.4784 102.888 86.3508 102.678ZM187.492 102.451C187.207 102.332 186.483 102.299 186.403 102.859C186.308 103.559 187.369 103.316 187.492 102.451ZM240.955 100.101C240.973 100.351 240.254 102.181 240.095 101.729C240.055 101.639 240.034 101.548 240.022 101.457L242.297 101.308C242.205 101.218 242.204 101.121 242.271 101.02L240.011 101.168C240.021 100.839 240.18 100.538 240.425 100.336C240.662 100.133 240.942 100.031 240.955 100.101ZM195.848 101.204C196.812 102.511 195.738 101.247 195.802 102.633C196.439 102.677 198.033 102.725 196.915 101.375C196.71 101.114 196.14 101.291 195.848 101.204ZM194.975 100.75C194.879 101.2 194.229 102.622 194.803 102.515C195.064 102.464 195.502 100.886 194.975 100.75ZM234.734 101.014C233.727 99.8247 238.136 100.318 238.443 100.505C238.526 100.614 238.588 100.718 238.622 100.807C238.785 100.41 239.836 100.279 240.06 101.249C239.689 101.193 238.837 101.327 238.743 101.223C238.699 101.179 238.665 101.137 238.642 101.094C238.224 101.979 234.881 101.247 234.734 101.014ZM228.035 99.9241C228.959 98.094 229.213 101.168 229.128 101.269C228.081 102.552 228.732 100.266 228.698 100.161C228.618 99.9856 227.893 101.054 228.038 99.9241C228.037 99.9241 228.036 99.9241 228.035 99.9241ZM233.299 100.553C233.342 100.512 234.209 100.58 234.254 100.627C235.006 101.639 232.518 101.451 233.299 100.553ZM80.3507 100.147C80.9141 100.456 80.3515 101.586 79.983 101.177C79.9532 101.136 79.8569 99.874 80.3507 100.147ZM194.524 101.059C194.487 101.002 194.217 100.905 193.832 100.825C192.825 100.609 191.041 100.525 191.209 101.776C191.372 101.651 192.895 101.921 193.841 101.838C194.471 101.784 194.846 101.588 194.524 101.059ZM169.633 100.729C170.216 100.742 169.58 102.356 169.269 101.754C169.153 101.531 169.486 100.727 169.633 100.729ZM65.7302 100.831C64.9719 101.696 65.2178 98.728 65.8114 99.7644C65.8344 99.8049 65.7589 100.797 65.7302 100.831ZM174.295 101.656C172.284 102.635 172.757 97.5192 175.374 99.2439C175.293 99.4718 175.211 99.6998 175.129 99.9277C178.152 100.692 175.335 100.288 174.597 100.575C174.316 100.684 174.552 101.538 174.297 101.662C174.297 101.66 174.296 101.658 174.295 101.656ZM166.564 100.629C164.632 96.9956 168.326 99.3648 169.388 98.8917C168.358 100.391 167.02 100.163 168.84 101.699C166.176 101.994 167.286 100.549 167.18 100.428C167.054 100.293 166.646 100.785 166.564 100.629ZM171.677 100.607C171.789 100.501 172.632 101.24 172.937 101.12C172.511 102.36 170.933 101.328 171.677 100.607ZM221.38 100.876C221.438 99.9028 221.611 99.1847 222.291 99.5384C222.09 100.03 221.662 100.456 221.38 100.876ZM17.4139 91.5927C17.2677 91.5514 17.0639 91.4573 16.8788 91.4263C16.5969 91.3796 16.3695 91.4746 16.4576 92.0966C16.4653 92.1339 16.6272 92.1516 16.8182 92.1179C17.0784 92.0708 17.3832 91.9244 17.4139 91.5927ZM184.767 100.332C184.674 100.214 182.137 100.142 183.015 101.211C183.279 101.534 185.586 101.388 184.767 100.332ZM198.117 100.352C197.884 100.345 197.001 100.54 196.975 100.77C196.933 101.565 198.018 101.114 198.117 100.352ZM15.5637 90.4353C15.5191 90.3297 14.3296 90.4153 14.424 90.8961C14.5975 91.8031 15.7075 90.7952 15.5637 90.4353ZM82.4031 97.8811C82.519 97.8458 82.6678 98.9022 82.7081 98.9142C82.8017 98.9298 84.9484 98.5334 84.1245 99.8851C83.9908 100.112 80.9015 99.5765 80.4959 99.44C80.3519 97.9899 81.6599 99.3756 81.9863 99.228C82.0429 99.2 82.0881 97.9877 82.4021 97.8872C82.4024 97.8852 82.4027 97.8832 82.4031 97.8811ZM224.928 99.7974C225.003 98.8755 227.612 98.2185 227.598 99.3345C226.712 99.4901 225.804 99.6446 224.928 99.7974ZM223.606 99.6657C223.041 99.0224 224.336 98.7871 224.722 99.0682C224.729 99.6882 223.693 99.7599 223.606 99.6657ZM193.126 96.9637C192.869 97.1912 193.675 98.5289 193.499 98.7917C193.39 98.9555 192.801 98.4564 192.618 98.8784C192.562 99.0125 193.176 100.271 193.344 100.215C193.585 100.14 193.343 99.1478 193.605 99.1388C193.676 99.1364 193.747 99.139 193.817 99.1458C194.63 99.2208 195.354 99.809 196.117 99.7852C196.194 99.7809 195.587 99.0854 196.246 99.0879C196.349 99.0868 196.955 100.126 197.733 99.9605C199.412 96.6968 200.735 99.859 203.019 98.6361C202.913 98.3345 201.202 97.5537 201.098 97.5246C199.199 97.0312 195.957 97.0135 194.092 97.0224C193.926 97.023 193.844 97.1031 193.8 97.2095C193.72 97.4144 193.776 97.7168 193.643 97.7345C193.482 97.7544 193.666 96.4832 193.126 96.9637ZM17.6742 90.9116C17.6349 90.0702 17.3185 90.1036 16.9865 90.1964C16.811 90.2444 16.6349 90.3087 16.4956 90.2743C16.518 90.8128 16.6976 90.918 16.924 90.9101C17.1775 90.9007 17.4829 90.7437 17.6742 90.9116ZM212.107 98.8114C211.931 98.8478 211.487 98.666 211.223 98.6991L211.765 98.6912C211.681 98.7054 211.623 98.7535 211.612 98.8626C211.596 99.0166 211.666 99.1512 211.777 99.2385L211.227 99.2464C211.535 99.4455 212.076 99.4081 212.107 98.8114ZM94.4364 98.2866C94.4607 98.2521 95.0456 98.3217 95.0675 98.3618C95.5877 99.3812 93.831 99.1672 94.4364 98.2866ZM108.406 98.5749C108.847 98.42 109.29 98.0253 109.437 99.0548C109.151 98.8962 108.353 99.2914 108.406 98.5749ZM127.28 98.6771C127.211 97.3283 128.47 98.2199 128.707 98.3449C128.609 98.942 127.331 99.6486 127.28 98.6771ZM221.223 96.6474C222.071 96.7157 221.859 94.6773 222.406 95.5934C222.499 95.7482 222.833 99.9942 221.892 98.4147C221.721 98.1307 222.361 97.112 221.223 96.6474ZM175.8 99.2861C176.009 98.3945 176.666 98.6582 177.107 98.7289C177.009 99.3914 176.116 99.2222 175.8 99.2861ZM13.5162 89.2556C13.2812 87.9754 11.7194 88.8072 12.037 89.6618C12.0788 89.7725 13.3106 89.1922 13.5162 89.2556ZM73.1212 98.5235C73.8991 97.5407 72.3317 97.2173 71.799 98.1786C72.0342 98.1183 73.0649 98.5883 73.1212 98.5235ZM122.851 97.8927C122.889 97.8523 123.629 97.9552 123.657 98.0043C124.253 99.045 122.157 98.7596 122.851 97.8927ZM103.827 96.9236C104.106 96.109 105.926 96.773 106.332 97.5911C105.935 98.7821 103.48 97.9411 103.827 96.9236ZM217.787 97.2687C218.387 97.2199 218.949 97.4647 219.506 97.8106C219.396 98.4988 217.858 97.781 217.787 97.2687ZM125.571 97.8364C125.609 97.8424 125.646 97.9206 125.685 97.9294C125.644 97.8998 125.607 97.8661 125.571 97.8364ZM205.573 97.0488C205.011 96.7957 205.164 98.0493 205.2 98.0868C205.628 98.4811 206.215 97.3337 205.573 97.0488ZM17.3818 89.0098C17.3683 88.6343 17.2759 88.47 17.1432 88.408C16.8662 88.2807 16.4331 88.5825 16.1743 88.3788C16.2084 89.0709 16.7001 89.1248 17.0849 89.073C17.2005 89.057 17.3046 89.0309 17.3818 89.0098ZM164.492 98.3007C163.875 97.0687 166.396 95.6426 166.924 96.4362C166.963 97.197 164.582 98.4695 164.492 98.3007ZM70.7492 96.7912C70.7208 95.9013 69.5658 96.9573 69.8017 97.3812C69.9474 97.6512 70.7784 97.3445 70.7492 96.7912ZM168.189 96.9562C168.426 96.6848 168.976 97.5631 168.782 98.0979C168.532 98.7836 168.128 97.0338 168.189 96.9562ZM189.454 96.1959C189.344 96.0608 187.952 96.9815 188.533 97.8858C188.934 98.5142 188.994 97.2278 189.09 97.2235C189.204 97.2271 191.452 98.7871 189.454 96.1959ZM150.324 97.4688C150.845 97.1304 151.507 97.5319 152.049 97.5107C151.829 98.0597 150.534 98.2012 150.324 97.4688ZM74.9947 96.6005C74.9687 96.5259 74.7967 96.4562 74.5631 96.4024C73.6276 96.1959 71.6917 96.219 73.3148 97.1155C73.3945 97.1525 74.0475 97.3391 74.5551 97.2813C74.9029 97.2386 75.1584 97.0638 74.9947 96.6005ZM221.223 96.6474C221.116 96.6388 220.997 96.5979 220.854 96.5118C220.995 96.5446 221.115 96.6033 221.223 96.6474ZM211.756 96.6106C211.872 96.2053 211.54 95.9885 211.203 95.9673L211.706 95.96C211.54 95.9492 211.387 96.0092 211.305 96.1407C211.282 96.549 211.492 96.6819 211.722 96.7026L211.208 96.7101C211.475 96.7321 211.743 96.6546 211.756 96.6106ZM152.097 96.6076C152.417 96.239 153.002 96.6379 153.391 96.5968C153.325 97.1985 152.23 97.2201 152.097 96.6076ZM129.689 95.5839C130.279 95.9521 131.011 95.8016 131.036 95.0655C131.046 95.1809 131.072 95.3036 131.117 95.4273C131.163 95.5498 131.808 95.22 132.085 95.4772C133.7 96.9991 125.678 96.2372 130.372 94.241C130.147 94.6886 129.915 95.1362 129.689 95.5839ZM101.364 95.1825C101.014 94.285 100.022 95.4053 100.278 95.759C100.456 96.0014 101.714 96.0861 101.364 95.1825ZM114.893 94.7018C114.793 94.5413 113.831 95.1646 113.802 95.6366C114.359 96.1366 115.36 95.4474 114.893 94.7018ZM98.6531 94.1244C98.4318 93.9885 98.1446 95.4332 98.1705 95.4963C98.3941 96.0247 99.023 94.9304 98.6531 94.1244ZM219.443 92.7754C219.098 92.3657 218.041 93.4241 217.814 94.3812C217.769 94.1971 217.644 93.9577 217.43 93.6712C217.43 93.6712 217.431 93.6712 217.432 93.6712C217.134 93.2926 208.486 92.9449 214.301 94.7336C214.483 94.7909 214.23 93.9363 214.967 94.0805C215.016 94.091 215.044 94.7904 215.197 94.823C215.55 94.8938 217.405 95.3152 217.772 94.7479C217.777 94.8775 217.803 95.0006 217.855 95.1132C218.326 96.1173 219.709 93.0915 219.443 92.7754ZM116.788 94.5836C116.59 94.3232 115.991 94.5662 115.923 95.1832C116.218 95.4873 117.232 95.1908 116.788 94.5836ZM74.9077 94.0666C74.8221 93.9571 74.7081 93.9142 74.5856 93.9193C74.1062 93.9378 73.5201 94.603 73.7602 95.002C73.8526 95.1561 74.247 95.0735 74.5769 94.8796C74.895 94.6803 75.1421 94.3639 74.9077 94.0666ZM110.677 94.8846C112.936 95.6236 111.218 94.8278 111.568 93.9238C111.273 94.2441 110.974 94.5644 110.677 94.8846ZM230.398 94.9273C230.01 94.728 230.419 92.9316 230.871 93.89C231.012 94.1945 230.622 95.0352 230.398 94.9273ZM245.984 93.9096C245.683 92.3261 247.138 93.2535 246.573 94.3415C246.547 94.3781 246.006 93.9697 245.984 93.9096ZM235.817 93.56C235.573 94.6487 235.385 94.7846 234.581 94.5456C235.754 94.2001 234.605 93.2875 235.817 93.56ZM131.032 94.9495C131.035 94.9931 131.037 95.0254 131.036 95.0655C131.032 95.0258 131.031 94.9882 131.032 94.9495ZM96.5163 94.3987C96.2353 93.4842 95.4358 93.549 95.671 94.4694C95.6934 94.5546 96.3987 95.0735 96.5163 94.3987ZM217.814 94.3812C217.854 94.5444 217.836 94.6505 217.772 94.7479C217.768 94.6259 217.783 94.5104 217.814 94.3812ZM100.796 93.667C100.766 94.3486 101.977 94.6174 102.026 94.5375C102.725 93.3575 101.296 93.6275 100.796 93.667ZM66.326 92.976C66.2554 93.0454 66.6676 94.8163 66.968 94.1336C67.1964 93.6039 66.6064 92.7127 66.326 92.976ZM238.775 92.9804C239.32 92.9514 240.188 92.8908 240.47 93.7068C239.941 93.6201 238.797 93.5944 238.775 92.9804ZM245.416 92.7639C244.987 93.7479 244.014 93.7497 243.411 93.5927C243.384 92.2987 245.006 93.0687 245.416 92.7639ZM220.516 93.2443C220.482 93.1922 219.49 92.8186 219.636 93.6826C219.843 94.9499 220.803 93.7116 220.516 93.2443ZM68.3981 93.9564C68.8819 93.3692 67.8361 91.5168 67.2987 92.9201C67.0208 93.6393 68.3225 94.0554 68.3981 93.9564ZM94.028 93.1947C93.4561 93.694 94.8681 94.5909 95.0656 93.6863C94.8051 93.6128 94.2307 93.018 94.028 93.1947ZM113.323 92.3444C111.555 89.7256 112.503 94.4931 112.822 94.0757C112.867 94.0161 113.366 92.4061 113.323 92.3444ZM10.0621 83.8087C9.82633 84.1592 10.5616 85.5155 10.7133 84.658C10.8101 84.121 10.2125 83.585 10.0621 83.8087ZM139.794 94.3997C139.716 94.4066 139.638 94.4138 139.561 94.4198C139.619 94.3783 139.695 94.3658 139.794 94.3997ZM88.8661 89.6801C90.1192 93.371 89.9979 90.5292 90.1067 90.5451C90.3427 90.5856 90.8903 91.5842 91.3407 91.4221C90.824 91.8354 90.3123 92.2487 89.799 92.662C90.1986 92.9297 93.7178 94.2982 93.7886 93.7006C93.8962 92.8497 92.7927 93.1132 92.7588 93.0381C92.7126 92.9311 92.5471 90.5638 92.4447 90.4735C92.2776 90.3292 89.3377 90.2702 88.8661 89.6801ZM109.6 92.738C109.886 93.0205 109.964 93.9585 110.098 93.7349C110.143 93.6583 110.154 92.764 110.309 92.5332C110.074 92.6015 109.837 92.6698 109.6 92.738ZM86.5867 92.9859C86.2343 91.8916 87.8355 92.3128 87.889 92.4354C88.1599 93.1772 86.8785 93.8799 86.5867 92.9859ZM100.194 92.8717C100.136 92.8077 98.9085 92.4628 98.9166 93.0693C99.2402 93.5326 100.882 93.6722 100.194 92.8717ZM110.499 92.4729C110.926 92.5789 111.739 93.4829 111.65 92.1358C111.649 92.1358 111.648 92.1358 111.648 92.1358C111.268 92.2481 110.878 92.3605 110.499 92.4729ZM70.0396 91.1401C69.2385 88.9819 69.5753 91.6984 70.3295 92.4021C70.5778 91.4427 70.1724 91.4913 70.0396 91.1401ZM67.2991 89.4889C67.0811 89.1017 64.4067 89.4469 64.7633 90.5913C64.9219 91.0029 66.4728 90.0267 66.5428 90.1058C66.6424 90.2245 66.1418 91.4683 66.9321 91.2388C66.8943 90.8124 67.386 89.6199 67.2991 89.4889ZM69.3551 89.7554C68.5447 88.1097 68.2744 91.1132 68.9285 91.1336C69.1752 91.1434 69.4745 89.9928 69.3551 89.7554ZM72.7772 90.0595C72.4957 89.771 71.6968 89.3453 71.1247 90.338C71.8696 90.4337 72.5942 90.5277 73.3308 90.621C73.4226 90.055 73.0311 90.3131 72.7752 90.0594C72.7759 90.0594 72.7766 90.0595 72.7772 90.0595ZM250.074 85.0486C249.445 84.1955 250.894 83.8685 250.957 84.0781C251.14 84.774 250.354 85.4297 250.074 85.0486ZM6.73916 56.3089C6.58077 55.9635 6.50184 54.8413 6.10772 55.4163C6.46289 56.253 6.8129 57.0906 7.15932 57.929C7.51626 56.0475 6.91381 56.6896 6.73916 56.3089ZM5.4743 49.3541C5.53033 49.3098 5.30369 46.3921 5.96705 48.3536C6.40579 49.6758 3.77879 50.8904 3.33087 49.5974C3.86288 49.005 4.99175 49.7149 5.4743 49.3541ZM0.948072 36.6887C0.918355 36.456 1.97085 36.1219 2.09236 36.2873C2.72259 37.1553 1.11406 37.9314 0.948072 36.6887ZM4.29014 37.2824C3.80855 36.7081 4.90626 36.3642 5.22683 36.6975C5.2442 37.2394 4.36537 37.3657 4.29014 37.2824ZM243.574 42.9108C243.039 40.9363 242.605 45.198 243.399 44.3342C243.436 44.2936 243.596 43.0076 243.574 42.9108ZM2.00043 33.7594C2.4942 34.3289 1.38718 34.6835 1.06213 34.3575C1.03342 33.8159 1.92553 33.6757 2.00043 33.7594ZM243.173 38.2014C242.46 36.7834 242.746 41.5587 242.835 41.7504C243.201 42.5072 244.406 40.6252 244.653 40.1583C242.835 40.8845 243.506 38.8702 243.173 38.2014ZM239.9 41.1111C239.23 41.6336 240.987 42.5753 241.283 41.2416C240.955 41.3091 240.099 40.9594 239.9 41.1111ZM235.465 39.7843C235.201 39.6283 234.326 39.2582 234.213 40.0146C234.534 39.8658 235.398 40.5634 235.465 39.7843ZM234.736 37.5658C234.259 36.5654 234.277 39.5432 234.749 38.6346C234.767 38.5994 234.754 37.6218 234.736 37.5658ZM232.1 36.5922C231.743 35.4196 231.479 38.3109 231.989 38.3728C232.146 38.3856 232.138 36.7267 232.1 36.5922ZM242.242 33.0696C241.707 32.5666 241.05 34.638 242.179 34.8526C241.788 35.1718 241.395 35.4917 240.995 35.8126C242.499 36.9504 242.347 34.0922 242.772 34.2064C243.355 34.37 243.326 36.7323 243.214 37.4747C243.681 36.0235 245.667 35.9912 246.789 35.7145C245.8 35.1087 244.168 34.0615 243.146 33.6847C242.856 33.5754 242.578 34.2255 242.327 34.1553C241.924 34.0396 242.272 33.1036 242.244 33.0696C242.243 33.0696 242.243 33.0696 242.242 33.0696ZM228.468 36.6473C227.472 35.3287 228.145 38.209 228.682 37.6803C228.704 37.6401 228.493 36.6795 228.468 36.6473ZM0.592857 24.9561C2.08445 26.1748 0.970634 27.7597 4.12373 25.3691C2.78695 27.0717 4.03035 26.6071 3.76385 27.2983C3.55325 27.8448 2.79545 27.3792 3.22354 28.4929C2.65913 27.2754 0.120888 27.5957 0.0111144 27.403C0.0121679 27.403 0.0132213 27.403 0.0142748 27.403C-0.0529127 27.287 0.113152 24.5703 0.592857 24.9561ZM235.054 32.2268C234.629 28.7324 234.814 34.3051 234.148 31.4214C233.645 35.6789 236.103 31.3251 236.138 34.885C235.987 34.8293 235.71 34.8978 235.638 35.0105C235.546 35.1245 235.573 35.289 235.664 35.4455C235.848 35.7591 236.261 36.0372 236.247 35.8352C236.468 35.7229 237.256 35.8547 237.483 35.7543C237.922 35.5636 238.103 35.0008 237.406 33.7673C237.16 33.8763 236.304 33.7331 236.064 33.8551C236.045 33.6226 236.015 33.3669 235.958 33.087C235.999 33.1984 236.017 33.2956 236.02 33.3798C236.265 33.2555 237.136 33.4013 237.387 33.2903C239.524 34.5622 237.851 32.2746 238.228 31.621C238.672 30.8802 240.065 31.6406 239.968 30.3349C239.967 30.3349 239.966 30.3349 239.966 30.3349C239.141 30.4405 238.302 30.5491 237.286 30.6781C237.01 30.8005 236.049 30.6397 235.779 30.7768C235.781 30.7779 235.782 30.7791 235.784 30.7803C235.786 30.8228 235.789 30.8645 235.791 30.9054C236.06 30.769 237.016 30.929 237.291 30.8072C237.659 31.789 237.602 32.2971 237.354 32.4322C237.095 32.547 236.194 32.3962 235.941 32.5248C236.017 32.7315 235.627 31.8931 235.353 30.4856C235.27 31.0656 235.168 31.6462 235.054 32.2268ZM240.082 34.655C240.019 34.5889 238.177 35.0284 238.293 35.5944C238.614 35.9407 241.102 35.4618 240.082 34.655ZM247.292 33.9863C246.727 33.9801 245.842 33.4317 245.531 34.4968C246.106 34.502 246.985 35.0513 247.292 33.9863ZM218.427 34.4437C217.741 35.3252 219.886 35.5579 219.253 34.5314C219.223 34.4832 218.463 34.4026 218.427 34.4437ZM233.803 32.8169C233.141 31.7693 233.567 35.1716 233.993 34.2629C234.017 34.2094 233.833 32.8647 233.803 32.8169ZM1.80735 24.547C1.86635 23.7082 4.04096 24.3219 4.42535 24.3244C4.1895 25.095 1.73804 25.5033 1.80735 24.547ZM248.284 30.8541C247.16 27.845 245.614 31.325 245.444 31.2498C245.273 31.173 245.536 29.8566 245.497 29.8214C245.412 29.7473 243.585 29.866 243.49 29.959C243.427 30.0308 243.773 31.8773 243.395 32.4622C244.148 31.4043 247.435 32.0536 247.594 31.8496C247.724 31.6859 246.739 29.7454 248.282 30.8541C248.283 30.8541 248.283 30.8541 248.284 30.8541ZM245.015 30.8485C245.471 31.6217 244.2 31.7236 243.885 31.4398C243.19 30.8036 244.959 30.7563 245.015 30.8485ZM241.884 30.1555C241.739 29.9823 240.321 29.8433 240.204 30.7092C240.916 31.8155 242.233 30.5568 241.884 30.1555ZM227.585 30.757C227.27 30.8745 226.404 30.2289 226.364 30.9836C226.682 30.8675 227.55 31.512 227.585 30.757ZM9.46597 18.1412C8.86831 17.4872 10.3194 17.2844 10.7263 17.6058C10.729 18.1087 9.51761 18.1967 9.46597 18.1412ZM233.406 25.6186C233.301 25.4004 229.796 26.083 229.255 26.4446C229.803 27.0061 233.318 26.9398 233.394 26.6514C233.435 26.5664 233.427 25.6538 233.406 25.6186ZM243.04 24.9447C243.424 23.8317 243.687 25.1617 243.734 25.1781C244.216 25.3449 245.19 25.0908 244.98 26.1609C244.156 25.7317 242.278 27.1549 243.04 24.9447ZM227.21 25.7405C225.949 26.179 228.41 27.2969 228.067 26.1431C228.039 26.0736 227.346 25.6945 227.21 25.7405ZM233.743 25.2807C233.804 24.9941 234.17 24.8618 234.565 24.8143C234.939 24.7696 235.454 24.7939 235.235 24.8872C235.561 24.7215 236.723 24.9159 237.058 24.7678C238.266 24.8101 239.076 24.901 239.37 24.8947C238.722 26.4966 238.163 25.4155 237.084 25.4388C236.756 25.584 235.617 25.3933 235.297 25.5558C235.307 25.5541 235.316 25.5545 235.324 25.5573C235.365 25.5786 235.402 26.2663 235.407 26.2669C235.388 26.3004 235.349 25.5061 235.315 25.4966C235.326 25.4931 235.067 25.7545 234.579 25.8635C234.116 25.9716 233.602 25.9191 233.743 25.2807ZM243.258 24.174C243.504 23.5344 246.105 23.2528 246.199 23.4227C246.98 24.6777 243.489 24.3915 243.258 24.174ZM233.397 23.823C233.7 21.8882 235.06 23.1081 234.203 24.1111C234.118 24.2027 233.677 23.3885 233.397 23.823ZM227.308 23.9069C227.241 23.8521 225.907 23.4945 225.898 24.1063C226.095 24.341 228.033 24.5137 227.308 23.9069ZM227.942 21.8233C227.912 21.8387 228.243 23.0101 227.627 22.8743C227.577 22.8613 227.451 21.5383 226.686 22.0395C226.531 22.1426 226.301 23.0244 226.319 23.0786C227.185 25.1438 229.508 21.1035 227.942 21.8233ZM243.3 23.0995C243.152 22.5408 243.49 20.8774 243.804 21.7168C243.939 22.0793 243.699 23.0774 243.3 23.0995ZM223.062 23.4475C223.826 22.4282 221.371 22.2756 221.239 22.5346C221.333 23.1612 222.987 23.5474 223.062 23.4475ZM11.2564 10.4318C11.2556 10.4318 11.2549 10.4318 11.2541 10.4317C12.0478 10.6955 11.5113 11.5105 11.5489 11.5385C13.187 12.8466 12.8281 10.9319 13.1071 10.7208C13.7 10.2663 13.4896 12.5657 14.496 11.6628C12.8416 12.9878 14.3086 12.474 14.3076 13.2967C14.3015 16.651 12.3004 11.6177 11.4635 12.2861C11.3508 12.3782 12.11 13.4837 11.8151 13.7747C10.8746 14.7157 8.21068 9.43393 11.2564 10.4318ZM244.043 21.569C244.389 20.5817 246.907 21.5295 246.241 22.3423C246.145 22.4714 243.56 23.0055 244.043 21.569ZM132.691 20.9781C133.316 20.1384 131.929 19.1096 131.658 19.768C131.521 20.0958 132.424 21.3467 132.691 20.9781ZM122.921 17.1984C122.659 17.26 122.383 17.7826 122.184 18.3899C121.892 19.3271 121.783 20.4657 122.168 20.4228C122.211 20.4183 122.26 20.4003 122.314 20.3673C122.412 20.3078 122.998 17.6919 122.921 17.1984ZM167.666 19.5114C166.957 18.2412 166.997 20.6 167.519 20.5672C167.703 20.556 167.689 19.5516 167.666 19.5114ZM141.001 19.6383C140.94 19.555 140.143 19.6904 140.165 20.233C140.446 20.5639 141.43 20.2115 141.001 19.6383ZM167.892 19.1759C167.471 19.6006 168.194 21.3072 168.709 19.6403C168.448 19.7769 167.935 19.1325 167.892 19.1759ZM231.979 18.6596C231.724 19.6378 230.818 19.3734 230.31 19.5538C230.223 18.3015 231.652 18.8995 231.979 18.6596ZM125.936 18.6573C125.243 19.5337 126.693 20.2747 126.568 19.1044C126.553 19.0406 125.966 18.6199 125.936 18.6573ZM190.493 18.9937C190.04 19.7454 191.504 20.7418 191.093 19.429C191.068 19.3756 190.518 18.9519 190.493 18.9937ZM196.764 19.3663C196.439 19.1187 194.987 19.2136 195.56 19.9371C195.644 20.0485 196.759 20.0522 196.764 19.3663ZM13.1998 9.821C13.0373 8.52161 14.3404 8.89676 14.515 9.13295C14.5814 9.23011 13.4063 11.5101 13.1998 9.821ZM163.059 19.3031C162.688 19.4636 161.744 19.1549 161.573 19.8307C162.02 19.6919 163.176 20.6504 163.059 19.3031ZM129.043 18.6926C128.456 17.2827 127.449 17.4074 127.672 19.2407C128.804 19.1338 127.553 17.5934 129.043 18.6926ZM170.258 17.6694C169.963 17.5625 169.737 19.32 169.77 19.4028C170.089 20.1907 170.55 18.3533 170.258 17.6694ZM148.295 19.0349C148.279 18.2838 147.375 18.6159 147.488 19.1004C147.526 19.2631 148.298 19.6429 148.295 19.0349ZM220.325 18.4756C219.894 17.7958 221.169 17.1084 221.566 17.9029C221.767 19.0534 220.383 18.5538 220.325 18.4756ZM178.42 18.1021C178.463 16.9875 176.99 17.6202 177.572 18.5431C177.719 18.7741 178.406 18.4749 178.42 18.1021ZM192.42 16.7025C192.016 17.2597 192.505 17.7429 193.096 17.9974C193.958 18.3535 195.051 18.26 194.43 17.3004C194.374 17.228 193.671 16.9735 193.085 16.8163C192.745 16.7194 192.451 16.6595 192.42 16.7025ZM198.865 17.453C198.709 17.3093 198.719 13.5635 199.384 14.9953C199.471 15.181 199.101 16.1783 199.173 16.4035C199.215 16.5324 200.611 17.0294 200.657 16.9401C200.722 16.8393 200.614 15.641 200.68 15.5048C200.761 15.3526 201.597 16.3868 202.019 16.3859C202.811 16.3825 202.86 15.38 202.926 15.3748C203.115 15.3619 203.449 16.0605 203.848 16.045C205.081 15.9948 207.773 15.4845 209.993 15.8623C210.104 15.8154 210.484 15.899 210.596 15.8536C211.418 16.0436 212.152 16.4113 212.728 17.0804C212.006 16.7031 211.309 16.6815 210.603 16.7981C210.494 16.8425 210.122 16.7607 210.013 16.8066C208.953 16.9647 207.861 17.3372 206.815 17.527C207.235 15.4233 204.262 19.2313 205.973 16.7578C204.849 17.3369 199.535 17.9127 198.867 17.453C198.866 17.453 198.866 17.453 198.865 17.453ZM120.136 16.1269C120.574 14.8509 118.359 15.124 118.162 16.6026C118.456 16.8095 120.073 16.2713 120.136 16.1269ZM130.608 13.1259C130.826 12.909 131.073 10.4126 132.167 11.7009C132.168 11.7009 132.169 11.7009 132.17 11.7009C132.492 12.0773 132.106 12.6792 132.162 12.8973C132.186 12.9863 133.169 14.249 132.328 14.4328C131.036 14.7155 132.241 12.5711 131.555 12.532C131.467 12.5281 130.137 13.8586 130.214 14.1571C130.219 14.1918 130.619 13.9122 130.682 14.0367C130.919 14.5049 130.786 15.2833 130.82 15.3211C130.924 15.4175 133.006 14.1261 133.279 15.2939C133.37 15.6689 129.988 16.4708 129.863 16.2758C129.782 16.1517 129.852 13.9858 129.768 13.7714C129.717 13.6642 128.352 14.4556 128.184 14.2544C128.134 14.1961 128.096 14.1334 128.068 14.0818C128.262 14.7548 127.041 14.6901 127.088 13.9345C127.114 13.6374 127.947 13.8206 127.982 13.8731C127.995 13.8953 128.006 13.9258 128.017 13.9468C127.849 13.1264 130.72 13.2073 130.119 11.9823C130.959 11.3301 129.965 13.7635 130.608 13.1259ZM134.607 11.866C134.518 12.092 134.429 12.318 134.339 12.5441C135.784 12.0165 137.351 13.1499 138.867 13.1736C139.252 13.1813 138.839 11.7788 139.333 12.1699C139.733 12.4835 140.142 13.7844 139.921 14.0683C139.867 14.1392 139.07 13.2809 138.652 13.3583C137.42 13.5878 137.699 14.789 137.628 14.8198C137.547 14.852 136.779 13.9944 136.338 14.0221C135.23 14.0946 134.7 14.8163 133.153 13.8262C134.071 13.057 133.617 11.3361 134.607 11.866ZM184.62 14.7029C184.671 13.9505 185.556 14.6143 185.874 14.5023C185.824 15.2567 184.947 14.5911 184.62 14.7029ZM62.1173 11.6605C61.5657 12.7957 63.55 13.5998 63.2531 12.4685C63.2017 12.221 62.4033 11.7397 62.1173 11.6605ZM67.8841 13.7738C68.001 13.4479 67.9187 12.5308 67.7306 13.4671C67.6815 13.7699 67.8774 13.818 67.8841 13.7738ZM151.65 13.3419C151.703 13.3036 152.444 13.5833 152.464 13.6462C152.949 14.9602 150.51 14.1866 151.65 13.3419ZM72.0764 12.2402C71.1764 13.0374 73.8545 13.4232 73.0453 12.381C73.0016 12.3304 72.1208 12.2016 72.0764 12.2402ZM75.8613 12.0557C75.7696 12.0728 75.5502 12.0131 75.3293 11.9634C74.9963 11.8924 74.6625 11.8416 74.653 12.0629C74.6386 12.4071 74.9834 12.693 75.3227 12.687C75.5682 12.6823 75.8089 12.5067 75.8613 12.0557ZM170.457 13.0062C170.347 11.6154 171.686 12.6688 172.151 12.4934C172.262 13.8853 170.922 12.8307 170.457 13.0062ZM162.014 11.9701C167.652 10.8847 166.402 13.8547 161.678 12.6468C161.673 11.7545 161.66 12.0383 162.014 11.9701ZM169.234 12.1452C169.029 13.0362 168.387 12.7716 167.955 12.6998C168.033 12.0804 168.921 12.3052 169.234 12.1452ZM59.6188 9.09549C60.3929 8.11749 61.965 9.92503 61.509 10.2929C61.4486 10.3789 59.3383 9.66299 59.6188 9.09549ZM152.128 12.1547C151.999 10.8014 153.677 11.3632 153.797 11.6641C154.309 12.8754 152.254 11.8573 152.128 12.1547ZM178.463 11.8091C178.759 10.749 179.612 11.2922 180.154 11.3049C179.909 12.2115 178.927 11.8273 178.463 11.8091ZM174.52 10.9845C174.555 10.9438 175.316 11.0387 175.35 11.0874C175.975 12.1217 173.82 11.8587 174.52 10.9845ZM10.5456 0.218506C10.5771 0.185352 11.2893 0.282124 11.3121 0.323181C11.9033 1.36551 9.77819 1.07083 10.5456 0.218506Z" fill="#D7F9FF" fill-opacity="0.7"/>
</svg>
