<svg id="pussle-desktop" width="171" height="157" viewBox="0 0 171 157" fill="none" xmlns="http://www.w3.org/2000/svg">
<g filter="url(#filter0_d_107_612)">
<path d="M97.3431 18.192C97.3431 9.13556 90.0826 0 73.8618 0C59.5784 0 49.9753 7.31031 49.9753 18.192C49.9753 24.5431 52.5461 27.4393 54.2459 29.3577C55.1447 30.3681 55.508 30.8244 55.508 31.2807C55.508 32.035 55.508 32.4913 52.9093 32.5938H24.5101C13.5891 32.5938 4.00466 41.2963 4.00466 51.2188L4.00466 68.5959C4.18163 72.9914 6.66389 75.7246 10.4874 75.7246C12.6623 75.7246 14.2737 74.4814 15.8385 73.2754C17.9342 71.669 20.3047 69.8438 24.9618 69.8438C32.8603 69.8438 41.2618 76.3718 41.2618 88.4688C41.2618 100.71 32.7485 109.245 25.1062 109.245C20.4956 109.245 18.0832 107.247 15.9502 105.487C14.3528 104.165 12.7042 102.796 10.4827 102.796C6.66389 102.796 4.17697 105.529 4 110.018L4 129.118C4.00466 139.525 13.78 149 24.5101 149H53.0537C57.3755 148.823 60.1651 146.276 60.1651 142.5C60.1651 140.232 58.8751 138.775 57.7341 137.49C56.2066 135.772 54.6325 133.998 54.6325 129.416C54.6325 121.193 62.1025 115.88 73.6569 115.88C85.2159 115.88 92.686 121.193 92.686 129.416C92.686 133.998 91.1072 135.772 89.5843 137.49C88.4433 138.775 87.1486 140.232 87.1486 142.5C87.1486 146.327 89.8731 148.814 94.3579 148.995L112.712 149C122.734 149 129.738 141.191 129.738 130.012V108.36C129.859 107.792 131.294 105.622 133.483 105.622C133.93 105.622 134.381 105.99 135.387 106.884C137.297 108.593 140.189 111.177 146.532 111.177C156.703 111.173 167.005 103.378 167.005 88.4688C167.005 72.3861 157.648 65.1875 148.376 65.1875C142.117 65.1875 138.503 68.0464 136.109 69.9369C135.047 70.775 134.051 71.5666 133.483 71.5666C131.289 71.5666 129.855 69.3874 129.748 68.9078L129.738 68.7961V52.1128C129.738 40.8027 122.576 32.5937 112.712 32.5937H94.451L94.2647 32.5798C91.8058 32.4867 91.8058 32.035 91.8058 31.2807C91.8058 30.8244 92.169 30.3727 93.0679 29.3577C94.7677 27.4439 97.3431 24.5431 97.3431 18.192ZM89.5843 26.2706C88.4433 27.5557 87.1486 29.0177 87.1486 31.2853C87.1486 33.8463 88.3176 36.9287 93.9993 37.2314L94.3253 37.25H112.712C120.834 37.25 125.09 44.7279 125.09 52.1128V69.0289C125.09 69.1965 125.058 69.3595 125.09 69.5178C125.519 72.3628 129.012 76.2182 133.483 76.2182C135.671 76.2182 137.283 74.9423 139.001 73.5874C141.218 71.832 143.738 69.8438 148.376 69.8438C156.861 69.8438 162.348 77.1541 162.348 88.4688C162.348 100.873 154.146 106.516 146.532 106.516C141.973 106.516 140.203 104.938 138.489 103.411C137.204 102.265 135.746 100.966 133.483 100.966C129.012 100.966 125.514 104.826 125.09 107.671C125.058 107.829 125.09 107.992 125.09 108.16V130.016C125.09 137.145 121.258 144.344 112.712 144.344H94.451C91.8058 144.237 91.8058 143.017 91.8058 142.5C91.8058 142.048 92.169 141.592 93.0679 140.577C94.7677 138.658 97.3431 135.762 97.3431 129.411C97.3431 120.355 90.0221 111.219 73.6569 111.219C59.4945 111.219 49.9753 118.529 49.9753 129.411C49.9753 135.762 52.5461 138.658 54.2506 140.577C55.1447 141.587 55.5127 142.044 55.5127 142.5C55.5127 143.021 55.5127 144.241 52.9605 144.344H24.5101C16.5137 144.344 8.6618 136.801 8.6618 129.118L8.6618 110.111C8.76426 107.452 9.97046 107.452 10.4874 107.452C11.0276 107.452 11.9777 108.239 12.9883 109.073C15.3075 110.996 18.8237 113.901 25.1108 113.901C35.1563 113.901 45.9189 103.681 45.9189 88.4688C45.9189 73.3453 35.1237 65.1875 24.9618 65.1875C18.7212 65.1875 15.2796 67.8322 13.0023 69.5877C11.9684 70.3839 11.0742 71.0683 10.4874 71.0683C9.97511 71.0683 8.76891 71.0683 8.6618 68.5027L8.6618 51.2188C8.6618 42.9865 17.0167 37.25 24.5101 37.25H52.9885L53.2074 37.2407C58.9589 37.0265 60.1651 33.8789 60.1651 31.2807C60.1651 29.0131 58.8751 27.5557 57.7341 26.2706C56.2066 24.5524 54.6325 22.7784 54.6325 18.192C54.6325 10.0948 62.3587 4.65625 73.8618 4.65625C85.2951 4.65625 92.686 9.96903 92.686 18.192C92.686 22.7737 91.1072 24.5524 89.5843 26.2706Z" fill="#8E5FCF" fill-opacity="0.5" shape-rendering="crispEdges"/>
</g>
<defs>
<filter id="filter0_d_107_612" x="0" y="0" width="171.005" height="157" filterUnits="userSpaceOnUse" color-interpolation-filters="sRGB">
<feFlood flood-opacity="0" result="BackgroundImageFix"/>
<feColorMatrix in="SourceAlpha" type="matrix" values="0 0 0 0 0 0 0 0 0 0 0 0 0 0 0 0 0 0 127 0" result="hardAlpha"/>
<feOffset dy="4"/>
<feGaussianBlur stdDeviation="2"/>
<feComposite in2="hardAlpha" operator="out"/>
<feColorMatrix type="matrix" values="0 0 0 0 0.556863 0 0 0 0 0.372549 0 0 0 0 0.811765 0 0 0 0.25 0"/>
<feBlend mode="normal" in2="BackgroundImageFix" result="effect1_dropShadow_107_612"/>
<feBlend mode="normal" in="SourceGraphic" in2="effect1_dropShadow_107_612" result="shape"/>
</filter>
</defs>
</svg>
