<svg id="pussle-mobile" width="59" height="55" viewBox="0 0 59 55" fill="none" xmlns="http://www.w3.org/2000/svg">
<g filter="url(#filter0_d_274_8)">
<path d="M33.4149 6.12373C33.4149 3.07519 30.9713 0 25.5122 0C20.705 0 17.4731 2.46078 17.4731 6.12373C17.4731 8.26163 18.3383 9.23653 18.9104 9.88229C19.2129 10.2224 19.3352 10.376 19.3352 10.5296C19.3352 10.7835 19.3352 10.9371 18.4606 10.9716L8.90271 10.9716C5.22722 10.9716 2.00157 13.901 2.00157 17.2411L2.00157 23.0906C2.06113 24.5702 2.89654 25.4902 4.18335 25.4902C4.91532 25.4902 5.45763 25.0717 5.98426 24.6658C6.68958 24.125 7.48738 23.5106 9.05475 23.5106C11.713 23.5106 14.5406 25.7081 14.5406 29.7801C14.5406 33.9007 11.6754 36.7737 9.10334 36.7737C7.55164 36.7737 6.73974 36.1013 6.02188 35.5089C5.48427 35.0637 4.92942 34.6029 4.18178 34.6029C2.89654 34.6029 2.05956 35.523 2 37.0339L2 43.4633C2.00157 46.9664 5.29149 50.156 8.90271 50.156H18.5091C19.9637 50.0964 20.9025 49.239 20.9025 47.9679C20.9025 47.2046 20.4684 46.714 20.0844 46.2814C19.5703 45.7031 19.0405 45.1059 19.0405 43.5636C19.0405 40.7956 21.5546 39.0072 25.4432 39.0072C29.3334 39.0072 31.8475 40.7956 31.8475 43.5636C31.8475 45.1059 31.3162 45.7031 30.8036 46.2814C30.4196 46.714 29.9839 47.2046 29.9839 47.9679C29.9839 49.2563 30.9008 50.0933 32.4102 50.1544L38.5872 50.156C41.9602 50.156 44.3175 47.5275 44.3175 43.7642V36.4759C44.3583 36.2847 44.841 35.5543 45.5777 35.5543C45.7282 35.5543 45.8802 35.6781 46.2188 35.9791C46.8614 36.5543 47.8347 37.4242 49.9695 37.4242C53.3926 37.4226 56.8597 34.7988 56.8597 29.7801C56.8597 24.3664 53.7108 21.9432 50.5902 21.9432C48.4836 21.9432 47.2673 22.9056 46.4617 23.542C46.1043 23.8241 45.7689 24.0905 45.5777 24.0905C44.8395 24.0905 44.3567 23.357 44.3207 23.1956L44.3175 23.1579V17.542C44.3175 13.7349 41.9069 10.9716 38.5872 10.9716H32.4415L32.3788 10.9669C31.5513 10.9356 31.5513 10.7835 31.5513 10.5296C31.5513 10.376 31.6735 10.224 31.976 9.88229C32.5481 9.2381 33.4149 8.26163 33.4149 6.12373ZM30.8036 8.84312C30.4196 9.27572 29.9839 9.76787 29.9839 10.5312C29.9839 11.3932 30.3773 12.4308 32.2895 12.5327L32.3992 12.539H38.5872C41.3207 12.539 42.7533 15.0562 42.7533 17.542V23.2363C42.7533 23.2927 42.7423 23.3476 42.7533 23.4009C42.8975 24.3586 44.073 25.6563 45.5777 25.6563C46.3144 25.6563 46.8567 25.2269 47.435 24.7708C48.1811 24.1799 49.0291 23.5106 50.5902 23.5106C53.4459 23.5106 55.2923 25.9714 55.2923 29.7801C55.2923 33.9556 52.5321 35.8552 49.9695 35.8552C48.435 35.8552 47.8394 35.3239 47.2626 34.8098C46.83 34.4242 46.3394 33.9869 45.5777 33.9869C44.073 33.9869 42.8959 35.2863 42.7533 36.2439C42.7423 36.2972 42.7533 36.3521 42.7533 36.4085V43.7658C42.7533 46.1654 41.4633 48.5886 38.5872 48.5886L32.4415 48.5886C31.5513 48.5525 31.5513 48.1419 31.5513 47.9679C31.5513 47.8159 31.6735 47.6623 31.976 47.3206C32.5481 46.6748 33.4149 45.6999 33.4149 43.562C33.4149 40.5135 30.951 37.4383 25.4432 37.4383C20.6768 37.4383 17.4731 39.8991 17.4731 43.562C17.4731 45.6999 18.3383 46.6748 18.912 47.3206C19.2129 47.6607 19.3367 47.8143 19.3367 47.9679C19.3367 48.1435 19.3367 48.5541 18.4778 48.5886H8.90271C6.21153 48.5886 3.56894 46.0494 3.56894 43.4633L3.56894 37.0653C3.60342 36.1703 4.00937 36.1703 4.18335 36.1703C4.36517 36.1703 4.68491 36.4352 5.02503 36.7157C5.80558 37.3631 6.98895 38.3411 9.10491 38.3411C12.4857 38.3411 16.1079 34.9007 16.1079 29.7801C16.1079 24.6893 12.4748 21.9432 9.05475 21.9432C6.95447 21.9432 5.79618 22.8335 5.02973 23.4244C4.68178 23.6924 4.38084 23.9228 4.18335 23.9228C4.01094 23.9228 3.60499 23.9228 3.56894 23.0592L3.56894 17.2411C3.56894 14.47 6.38081 12.539 8.90271 12.539L18.4872 12.539L18.5609 12.5359C20.4966 12.4638 20.9025 11.4042 20.9025 10.5296C20.9025 9.76631 20.4684 9.27572 20.0844 8.84312C19.5703 8.26476 19.0405 7.66759 19.0405 6.12373C19.0405 3.39807 21.6408 1.56737 25.5122 1.56737C29.3601 1.56737 31.8475 3.35575 31.8475 6.12373C31.8475 7.66603 31.3162 8.26476 30.8036 8.84312Z" fill="#8E5FCF" fill-opacity="0.5" shape-rendering="crispEdges"/>
</g>
<defs>
<filter id="filter0_d_274_8" x="0" y="0" width="58.8594" height="54.1559" filterUnits="userSpaceOnUse" color-interpolation-filters="sRGB">
<feFlood flood-opacity="0" result="BackgroundImageFix"/>
<feColorMatrix in="SourceAlpha" type="matrix" values="0 0 0 0 0 0 0 0 0 0 0 0 0 0 0 0 0 0 127 0" result="hardAlpha"/>
<feOffset dy="2"/>
<feGaussianBlur stdDeviation="1"/>
<feComposite in2="hardAlpha" operator="out"/>
<feColorMatrix type="matrix" values="0 0 0 0 0.555013 0 0 0 0 0.371094 0 0 0 0 0.8125 0 0 0 1 0"/>
<feBlend mode="normal" in2="BackgroundImageFix" result="effect1_dropShadow_274_8"/>
<feBlend mode="normal" in="SourceGraphic" in2="effect1_dropShadow_274_8" result="shape"/>
</filter>
</defs>
</svg>
