<svg width="72" height="73" viewBox="0 0 72 73" fill="none" xmlns="http://www.w3.org/2000/svg">
<g clip-path="url(#clip0_247_19)">
<g filter="url(#filter0_d_247_19)">
<path d="M17.3497 41.9133C14.6727 43.3724 13.1418 46.9899 15.7546 51.7837C18.0554 56.0049 21.7631 57.6652 24.9796 55.9121C26.8569 54.8888 27.2989 53.6625 27.5921 52.8511C27.746 52.4226 27.8224 52.2418 27.9573 52.1683C28.1802 52.0467 28.3151 51.9732 28.764 52.7247L33.3385 61.1176C35.0976 64.3452 39.2138 65.7756 42.1468 64.177L47.2833 61.3774C48.5541 60.6169 48.9621 59.443 48.3463 58.313C47.9959 57.6703 47.3689 57.3944 46.7604 57.1262C45.948 56.7657 45.0266 56.3592 44.2764 54.9828C43.0042 52.6486 43.5805 49.1139 47.1562 47.165C50.7746 45.1928 54.6687 46.3337 55.8998 48.5923C56.6424 49.9549 56.4406 50.9896 56.2639 51.9035C56.1303 52.5887 55.9912 53.2965 56.349 53.953C56.9642 55.0816 58.1727 55.3762 59.528 54.7053L65.1737 51.6282C68.2491 49.9502 69.4754 45.5347 67.747 42.3636L63.1492 33.928C62.4008 32.6792 61.1986 32.2651 60.0824 32.8735C59.4121 33.2389 59.1891 33.8549 58.993 34.3992C58.7312 35.1274 58.4604 35.8784 57.106 36.6166C54.6754 37.9414 51.9018 36.5897 50.0406 33.175C48.1787 29.7589 48.5458 26.6953 50.9765 25.3705C52.3308 24.6323 53.1095 24.8131 53.8626 24.9864C54.4263 25.1165 55.0656 25.2643 55.7359 24.899C56.8673 24.2824 57.1634 23.0766 56.4947 21.722L53.5396 16.2971C51.9253 13.3352 48.4889 12.5232 45.1843 14.3243L38.7844 17.8126C38.5969 17.8683 37.7245 17.794 37.3719 17.1471C37.2999 17.015 37.3359 16.8222 37.4381 16.3809C37.6357 15.5413 37.9337 14.2702 36.912 12.3957C35.2722 9.39047 31.3089 7.60178 26.9018 10.0038C22.1479 12.5949 21.5272 16.5197 23.0208 19.26C24.029 21.1098 25.4562 21.7172 26.4006 22.1201C26.8194 22.2989 27.2139 22.4659 27.3054 22.6338C27.6587 23.282 27.2456 24.057 27.1211 24.166L27.0896 24.1867L22.1582 26.8746C18.815 28.6967 17.5423 32.136 19.1311 35.0511L22.0725 40.4478L22.0984 40.5051C22.467 41.2468 22.3335 41.3195 22.1105 41.4411C21.9756 41.5146 21.7836 41.48 21.3388 41.3779C20.4993 41.1838 19.227 40.8901 17.3497 41.9133ZM20.9874 42.9048C21.551 43.0349 22.1918 43.182 22.862 42.8167C23.619 42.4041 24.3419 41.562 23.5161 39.8341L23.4691 39.7348L20.5075 34.301C19.1992 31.9006 20.724 29.4379 22.9068 28.2481L27.9071 25.5228C27.9566 25.4958 28.01 25.4792 28.0516 25.444C28.8235 24.8591 29.4005 23.2057 28.6803 21.8844C28.3278 21.2375 27.6911 20.9668 27.0138 20.6773C26.1378 20.3049 25.1443 19.8807 24.3971 18.5098C23.0303 16.0021 24.3075 13.203 27.652 11.3801C31.3186 9.38171 34.3077 10.8962 35.5342 13.1466C36.2686 14.494 36.0871 15.2713 35.9117 16.0239C35.7802 16.5883 35.631 17.2284 35.9956 17.8973C36.7158 19.2186 38.4201 19.6303 39.3293 19.2972C39.3814 19.2813 39.4243 19.2454 39.4738 19.2184L45.9344 15.6972C48.0416 14.5487 50.7868 14.5216 52.1633 17.0472L55.1047 22.4439C55.4991 23.2429 55.1385 23.4394 54.9858 23.5227C54.8522 23.5954 54.6589 23.5616 54.214 23.4595C53.3732 23.2662 52.1022 22.9717 50.2249 23.9949C47.5479 25.454 46.0268 29.0894 48.6629 33.9259C50.9441 38.1113 54.6383 39.7468 57.8548 37.9937C59.7322 36.9704 60.1741 35.7441 60.4666 34.9313C60.6213 34.5043 60.6969 34.322 60.8318 34.2485C60.9859 34.1645 61.3465 33.9679 61.7879 34.7057L66.3706 43.1137C67.6587 45.4769 66.6938 49.0127 64.4228 50.2504L58.8046 53.3126C58.0022 53.7107 57.8079 53.3542 57.7246 53.2014C57.6376 53.0418 57.7172 52.6342 57.8008 52.2013C57.9956 51.206 58.2881 49.6988 57.2754 47.8407C55.6573 44.872 50.9026 43.3379 46.4061 45.7886C41.9357 48.2252 41.2632 52.7298 42.9001 55.733C43.9053 57.5773 45.2414 58.1683 46.1271 58.5585C46.529 58.7358 46.8754 58.8898 46.9699 59.0632C47.0524 59.2146 47.2467 59.5711 46.5056 60.0161L41.3966 62.8007C38.9633 64.127 35.9218 62.582 34.7148 60.3675L30.1276 51.9512L30.0896 51.888C29.0998 50.2227 27.9751 50.3733 27.2071 50.7919C26.5368 51.1572 26.3138 51.7733 26.1177 52.3175C25.8559 53.0458 25.5851 53.7968 24.2294 54.5357C21.8359 55.8403 18.9839 54.4331 17.131 51.0335C15.2893 47.6546 15.6692 44.6144 18.0998 43.2896C19.4541 42.5515 20.2342 42.7315 20.9874 42.9048Z" fill="#8E5FCF" fill-opacity="0.5" shape-rendering="crispEdges"/>
</g>
</g>
<defs>
<filter id="filter0_d_247_19" x="10.4038" y="8.88763" width="62.1318" height="63.9468" filterUnits="userSpaceOnUse" color-interpolation-filters="sRGB">
<feFlood flood-opacity="0" result="BackgroundImageFix"/>
<feColorMatrix in="SourceAlpha" type="matrix" values="0 0 0 0 0 0 0 0 0 0 0 0 0 0 0 0 0 0 127 0" result="hardAlpha"/>
<feOffset dy="4"/>
<feGaussianBlur stdDeviation="2"/>
<feComposite in2="hardAlpha" operator="out"/>
<feColorMatrix type="matrix" values="0 0 0 0 0.556863 0 0 0 0 0.372549 0 0 0 0 0.811765 0 0 0 0.25 0"/>
<feBlend mode="normal" in2="BackgroundImageFix" result="effect1_dropShadow_247_19"/>
<feBlend mode="normal" in="SourceGraphic" in2="effect1_dropShadow_247_19" result="shape"/>
</filter>
<clipPath id="clip0_247_19">
<rect width="54.8625" height="50.16" fill="white" transform="translate(27.0073 72.4291) rotate(-118.592)"/>
</clipPath>
</defs>
</svg>
