<svg xmlns="http://www.w3.org/2000/svg" width="24" height="25" viewBox="0 0 24 25" fill="none">
    <path
        d="M6.13922 11.7125C6.06047 11.6338 1.26609 10.5782 1.26609 10.5782C1.26609 10.5782 0.986719 11.0263 1.06734 11.2907C1.11234 11.4388 2.15859 12.6557 3.23484 13.775C4.08422 14.66 5.04984 15.56 5.19047 16.0738C5.40609 16.865 5.42859 18.1344 5.42859 18.1344L2.30297 20.0432C2.30297 20.0432 2.68547 21.9894 5.16422 21.9125C7.47984 21.8413 7.59984 19.3888 8.33484 19.3757C8.45859 19.3738 8.62922 19.3307 8.93484 19.6588C9.69234 20.4725 11.1098 22.0438 11.5842 22.52C12.218 23.1538 12.668 23.7875 12.9061 23.7613C13.1442 23.735 15.1523 21.9388 15.7336 21.3838C16.3148 20.8288 16.8436 20.1688 16.8436 19.6138C16.8436 19.0588 16.0242 18.6369 16.0242 18.6369L11.5055 19.1657L6.13922 11.7125ZM19.4292 4.55378C19.508 4.55378 21.5161 3.55066 21.5161 3.55066C21.5161 3.55066 22.5473 5.63753 21.2255 6.82628C19.9036 8.01503 19.613 7.34191 18.9792 8.04128C18.4955 8.57566 18.7411 9.68003 18.7411 9.68003L22.6692 13.4563C22.6692 13.4563 22.8886 13.8557 22.7311 14.1463C22.6186 14.3525 21.2967 15.8319 20.273 16.895C19.8117 17.3732 19.1686 17.5344 18.8198 17.45C17.948 17.2382 17.8167 16.5519 17.6573 15.3369C17.498 14.1219 16.4517 14.1407 16.0711 14.2007C15.2686 14.3282 14.7455 14.7969 14.7455 14.7969C14.7455 14.7969 10.0205 9.10253 10.073 8.94316C10.1255 8.78378 10.3111 7.59503 9.75609 7.09441C9.20109 6.59191 8.09297 6.33691 7.66922 6.04628C7.24734 5.75566 7.19109 5.20253 7.26797 4.66628C7.34484 4.13003 10.7611 4.13566 10.7611 4.13566C10.7611 4.13566 16.6523 7.38503 16.6805 7.25378C16.7067 7.11503 19.4292 4.55378 19.4292 4.55378Z"
        fill="#B0B0AF"></path>
    <path
        d="M16.5225 5.18568C16.665 4.66443 16.5019 3.3838 17.4975 2.5363C18.4931 1.6888 20.0419 1.7938 20.9738 2.68443C21.9056 3.57505 22.0556 5.24943 20.9531 6.35193C19.8506 7.45443 19.3425 6.83943 18.7275 7.4338C18.1125 8.02818 18.2194 8.51568 18.6 8.87568C18.9825 9.23568 22.7775 13.2013 22.6706 13.4544C22.5638 13.7076 19.9781 16.6344 19.5544 16.8463C19.1306 17.0582 18.3881 17.0376 18.24 16.3382C18.0919 15.6388 18.3469 14.2401 17.2856 13.8782C16.2263 13.5182 15.7594 13.8144 14.7206 14.9169C13.6819 16.0194 13.215 17.2269 14.0625 17.8419C14.91 18.4569 15.9713 18.2019 16.395 18.9238C16.8188 19.6457 16.1831 20.3019 15.06 21.3407C13.9369 22.3794 13.0669 23.2269 12.9188 23.1219C12.7706 23.0151 9.54751 19.6026 9.23064 19.2426C8.91189 18.8826 8.29689 18.5638 7.70439 19.1151C7.11001 19.6663 7.00501 21.4682 4.50376 21.4682C2.00251 21.4682 1.70251 18.7551 2.59314 17.6319C3.48376 16.5088 5.45439 16.4019 5.49751 15.6388C5.51626 15.2882 4.43439 14.3432 3.46314 13.3288C2.32126 12.1344 1.26001 10.8688 1.21501 10.7207C1.13064 10.4451 3.58876 8.02818 4.05564 7.6888C4.52251 7.34943 5.05126 7.5613 5.30626 7.83693C5.56126 8.11255 5.62501 8.96005 5.83689 9.44755C6.04876 9.93505 7.04439 12.0557 9.44064 9.6388C11.8144 7.24255 9.56814 6.2038 8.80501 5.99193C8.04189 5.78005 7.49251 5.71068 7.27876 4.93255C7.11001 4.31755 8.04189 3.59755 9.01689 2.6638C9.99189 1.73005 10.5638 1.24255 10.8188 1.24255C11.0738 1.24255 14.4863 4.91005 14.9325 5.3338C15.3788 5.75755 15.6525 5.86443 15.9713 5.77818C16.2881 5.69568 16.4588 5.42005 16.5225 5.18568Z"
        fill="url(#paint0_radial_256_8)"> </path>
    <defs>
        <radialGradient id="paint0_radial_256_8" cx="0" cy="0" r="1" gradientUnits="userSpaceOnUse"
            gradientTransform="translate(11.6573 -4.8062) scale(22.3547 22.3547)">
            <stop offset="0.508" stop-color="#B7D118" />
            <stop offset="0.572" stop-color="#B2D019" />
            <stop offset="0.643" stop-color="#A5CD1D" />
            <stop offset="0.717" stop-color="#8FC922" />
            <stop offset="0.793" stop-color="#70C22A" />
            <stop offset="0.871" stop-color="#48BA34" />
            <stop offset="0.949" stop-color="#18B040" />
            <stop offset="0.981" stop-color="#02AB46" />
        </radialGradient>
    </defs>
</svg>