<svg width="209" height="215" viewBox="0 0 209 215" fill="none" xmlns="http://www.w3.org/2000/svg">
<g clip-path="url(#clip0_247_19)">
<g filter="url(#filter0_d_247_19)">
<path d="M49.3107 123.766C41.3588 128.1 36.812 138.847 44.5748 153.09C51.4105 165.632 62.4251 170.565 71.9797 165.357C77.5563 162.318 78.869 158.675 79.7399 156.264C80.1969 154.991 80.4237 154.454 80.8244 154.236C81.4867 153.875 81.8874 153.656 83.221 155.889L96.8121 180.825C102.039 190.414 114.267 194.665 122.979 189.916L138.237 181.6C142.012 179.341 143.224 175.853 141.394 172.496C140.353 170.586 138.49 169.767 136.683 168.97C134.269 167.898 131.532 166.691 129.303 162.601C125.523 155.666 127.234 145.165 137.856 139.376C148.605 133.517 160.173 136.908 163.83 143.618C166.037 147.667 165.437 150.741 164.913 153.456C164.516 155.491 164.103 157.594 165.166 159.545C166.994 162.898 170.584 163.773 174.61 161.781L191.38 152.64C200.516 147.655 204.157 134.537 199.022 125.116L185.362 100.053C183.138 96.3432 179.567 95.1127 176.251 96.9199C174.26 98.0051 173.598 99.8353 173.016 101.452C172.238 103.616 171.434 105.847 167.411 108.04C160.191 111.975 151.951 107.958 146.421 97.813C140.889 87.6636 141.979 78.562 149.199 74.6267C153.222 72.434 155.536 72.9713 157.773 73.4862C159.448 73.873 161.347 74.3123 163.338 73.2271C166.699 71.3954 167.578 67.8133 165.591 63.7885L156.811 47.6707C152.015 38.8708 141.807 36.4576 131.991 41.8079L112.979 52.1697C112.423 52.3352 109.831 52.1142 108.783 50.1923C108.57 49.7997 108.676 49.227 108.98 47.9159C109.567 45.4215 110.452 41.6454 107.416 36.0759C102.544 27.1473 90.7701 21.8323 77.679 28.9675C63.5576 36.6642 61.7146 48.3245 66.1521 56.466C69.1476 61.9619 73.3874 63.7669 76.1929 64.9641C77.4369 65.4953 78.6089 65.9916 78.8808 66.4904C79.9306 68.4165 78.7037 70.7188 78.3338 71.0424L78.2402 71.104L63.5914 79.0882C53.6607 84.5009 49.8807 94.7187 54.6012 103.38L63.3403 119.413L63.4171 119.584C64.5122 121.787 64.1156 122.003 63.4533 122.364C63.0526 122.583 62.4822 122.48 61.1608 122.177C58.6669 121.6 54.8873 120.727 49.3107 123.766ZM60.1173 126.713C61.7917 127.099 63.6951 127.537 65.6861 126.451C67.9348 125.226 70.0819 122.724 67.6285 117.591L67.4889 117.295L58.6896 101.151C54.8026 94.0197 59.3315 86.7034 65.8157 83.1692L80.6689 75.0736C80.8161 74.9934 80.9748 74.944 81.0982 74.8396C83.3912 73.1019 85.1048 68.1899 82.9652 64.2643C81.9176 62.3424 80.0263 61.5381 78.0141 60.6776C75.4119 59.5713 72.4603 58.3105 70.2405 54.2377C66.1796 46.7872 69.9729 38.4716 79.9078 33.0567C90.7993 27.1204 99.6793 31.6207 103.323 38.3065C105.505 42.3098 104.966 44.6191 104.446 46.8548C104.055 48.5316 103.612 50.4333 104.695 52.4206C106.835 56.3462 111.898 57.5699 114.599 56.5805C114.753 56.5334 114.881 56.4268 115.028 56.3465L134.219 45.8866C140.478 42.475 148.633 42.3954 152.723 49.8991L161.462 65.9328C162.634 68.3067 161.563 68.8905 161.109 69.1379C160.712 69.354 160.138 69.2535 158.817 68.95C156.319 68.3756 152.543 67.5003 146.967 70.5398C139.015 74.8739 134.497 85.6741 142.329 100.044C149.106 112.479 160.081 117.339 169.635 112.131C175.212 109.091 176.525 105.448 177.393 103.033C177.853 101.765 178.077 101.223 178.478 101.005C178.936 100.755 180.007 100.172 181.318 102.363L194.934 127.344C198.761 134.365 195.895 144.87 189.149 148.547L172.461 157.643C170.077 158.825 169.5 157.766 169.252 157.312C168.994 156.838 169.23 155.627 169.478 154.341C170.057 151.384 170.925 146.906 167.916 141.386C163.109 132.565 148.984 128.007 135.627 135.287C122.348 142.524 120.352 155.907 125.215 164.83C128.201 170.309 132.171 172.065 134.802 173.225C135.996 173.752 137.025 174.209 137.306 174.725C137.551 175.174 138.128 176.233 135.926 177.555L120.75 185.827C113.522 189.767 104.487 185.176 100.901 178.596L87.2715 153.591L87.1586 153.403C84.218 148.456 80.877 148.903 78.5956 150.146C76.6046 151.232 75.9423 153.062 75.3599 154.679C74.5823 156.842 73.778 159.073 69.7509 161.268C62.6411 165.143 54.1683 160.962 48.6632 150.862C43.1916 140.823 44.3194 131.791 51.5395 127.855C55.5625 125.663 57.8798 126.198 60.1173 126.713Z" fill="#8E5FCF" fill-opacity="0.5" shape-rendering="crispEdges"/>
</g>
</g>
<defs>
<filter id="filter0_d_247_19" x="36.561" y="25.6525" width="168.805" height="174.216" filterUnits="userSpaceOnUse" color-interpolation-filters="sRGB">
<feFlood flood-opacity="0" result="BackgroundImageFix"/>
<feColorMatrix in="SourceAlpha" type="matrix" values="0 0 0 0 0 0 0 0 0 0 0 0 0 0 0 0 0 0 127 0" result="hardAlpha"/>
<feOffset dy="4"/>
<feGaussianBlur stdDeviation="2"/>
<feComposite in2="hardAlpha" operator="out"/>
<feColorMatrix type="matrix" values="0 0 0 0 0.556863 0 0 0 0 0.372549 0 0 0 0 0.811765 0 0 0 0.25 0"/>
<feBlend mode="normal" in2="BackgroundImageFix" result="effect1_dropShadow_247_19"/>
<feBlend mode="normal" in="SourceGraphic" in2="effect1_dropShadow_247_19" result="shape"/>
</filter>
<clipPath id="clip0_247_19">
<rect width="163" height="149" fill="white" transform="translate(78.0073 214.429) rotate(-118.592)"/>
</clipPath>
</defs>
</svg>
