<svg id="red-heart" width="24" height="25" viewBox="0 0 24 25" fill="none" xmlns="http://www.w3.org/2000/svg">
<path d="M17.6234 2.18188C13.5153 2.18188 12.0059 6.38001 12.0059 6.38001C12.0059 6.38001 10.5172 2.18188 6.38095 2.18188C3.2722 2.18188 -0.271554 4.64563 1.0372 10.2463C2.34595 15.8469 12.0172 22.8238 12.0172 22.8238C12.0172 22.8238 21.6528 15.8469 22.9634 10.2463C24.2722 4.64563 20.9834 2.18188 17.6234 2.18188Z" fill="#F44336"/>
<path d="M5.74723 2.60001C8.97223 2.60001 10.5735 6.06688 11.091 7.47126C11.1641 7.67188 11.4435 7.67751 11.5279 7.48251L12.0004 6.37813C11.3347 4.25188 9.50473 2.18188 6.38098 2.18188C5.08723 2.18188 3.72035 2.60938 2.65723 3.51126C3.5966 2.89438 4.69723 2.60001 5.74723 2.60001ZM17.6235 2.18188C16.6316 2.18188 15.7279 2.39751 15.0229 2.83251C15.5179 2.64126 16.131 2.60001 16.7385 2.60001C19.7779 2.60001 22.4985 4.90438 21.2704 10.2313C20.2166 14.8044 14.0591 20.3525 12.1785 22.4694C12.0585 22.6044 12.0172 22.8219 12.0172 22.8219C12.0172 22.8219 21.6529 15.845 22.9635 10.2444C24.2722 4.64563 20.9891 2.18188 17.6235 2.18188Z" fill="#CC3333"/>
<path d="M3.19523 5.15379C3.89836 4.27629 5.15461 3.55067 6.21961 4.38692C6.79523 4.83879 6.54398 5.76504 6.02836 6.15504C5.27836 6.72504 4.62586 7.06817 4.16836 7.96067C3.89461 8.49692 3.72961 9.08379 3.64523 9.68192C3.61148 9.91817 3.30211 9.97629 3.18586 9.76817C2.39461 8.36567 2.16961 6.43442 3.19523 5.15379ZM14.4677 6.99879C14.1377 6.99879 13.9052 6.68004 14.0252 6.37254C14.2484 5.80629 14.5371 5.25879 14.884 4.77129C15.3977 4.05129 16.3746 3.63129 16.9934 4.06817C17.6271 4.51442 17.5446 5.40692 17.1002 5.83817C16.1459 6.76254 14.9421 6.99879 14.4677 6.99879Z" fill="#FF8A80"/>
</svg>
