<svg id="sound" width="24" height="25" viewBox="0 0 24 25" fill="none" xmlns="http://www.w3.org/2000/svg">
<path d="M9.28086 1.91786C12.6949 0.228106 16.5945 1.86311 17.7799 5.48223C17.9111 5.87636 17.5537 6.29448 17.1371 6.12123C16.1171 5.69223 16.3781 5.29323 15.6296 4.40448C14.2395 2.74773 12.2434 2.28498 10.2431 3.07211C10.2322 3.07736 10.2221 3.07511 10.2112 3.07811C10.1595 3.09798 10.1081 3.10811 10.0489 3.10698C10.0132 3.10698 9.98324 3.09386 9.95136 3.08786C9.92361 3.08186 9.89736 3.08411 9.86549 3.07098C9.67161 2.99036 9.47249 2.90598 9.27674 2.82536C8.86199 2.65248 8.90961 2.10123 9.28086 1.91786ZM22.8671 12.8975L12.1819 8.41585C8.62311 6.92336 5.05686 5.42748 1.49736 3.93611C0.840364 3.66048 0.21674 3.97586 0.383614 4.49523C2.20949 10.1315 4.03086 15.7677 5.85374 21.4002C6.02287 21.9136 6.86774 22.2687 7.34924 22.028C12.648 19.3805 17.943 16.7292 23.2417 14.0817C23.7382 13.8376 23.5241 13.1724 22.8675 12.8964" fill="#5FA6C9"/>
<path d="M23.122 13.0025C20.107 11.7391 17.092 10.4754 14.077 9.20825C11.0658 7.94637 8.04704 6.68075 5.0358 5.417C4.47967 5.18412 3.95092 5.45262 4.09229 5.8925C5.63767 10.664 7.17742 15.4355 8.72392 20.2025C8.86717 20.6371 9.58154 20.9367 9.98842 20.7339C14.4734 18.4947 18.9565 16.2489 23.4442 14.006C23.8604 13.8001 23.6815 13.2357 23.125 13.0006" fill="#66B1DE"/>
<path d="M11.2051 23.8887C11.4521 23.2997 11.6992 22.7112 11.9465 22.1232L13.2402 19.0385C13.2481 19.0164 13.2402 18.9935 13.2233 18.9725L13.2215 18.9706L13.2203 18.9646C13.1964 18.9381 13.1664 18.9176 13.133 18.905C11.9532 18.4095 10.7736 17.9145 9.59408 17.42C7.73858 16.6419 5.88646 15.8656 4.03058 15.0856C3.95408 15.0556 3.87758 15.0635 3.86033 15.1044C3.61358 15.6935 3.36796 16.2819 3.12008 16.8699C2.68808 17.8977 2.25833 18.9264 1.82633 19.9546C1.80833 19.9955 1.85821 20.0555 1.93283 20.0877C3.11296 20.5812 4.29121 21.077 5.47208 21.5716C7.32796 22.3509 9.18196 23.1267 11.0367 23.9052C11.1136 23.9375 11.189 23.9304 11.2051 23.8887ZM23.9637 13.9261C24.4733 12.7115 19.5556 9.49361 12.98 6.73736C6.40621 3.97886 0.664209 2.72824 0.154959 3.94211C-0.35354 5.15524 4.56533 8.37536 11.1387 11.1309C17.7132 13.8882 23.456 15.14 23.9637 13.9261Z" fill="#2B7F99"/>
<path d="M22.2068 13.1878C22.5631 12.3365 18.2772 9.72767 12.6301 7.35917C6.98635 4.99367 2.11884 3.76292 1.76335 4.61379C1.40522 5.46467 5.69297 8.07392 11.3382 10.4432C16.9857 12.8083 21.8495 14.039 22.2068 13.1878Z" fill="#5FA6C9"/>
<path d="M14.6677 9.18119C14.2428 10.1963 12.8309 10.5702 11.5124 10.0171C10.1921 9.46357 9.46643 8.19082 9.89131 7.17907C10.3162 6.16732 11.7303 5.79607 13.0499 6.35032C14.3692 6.90119 15.0918 8.16907 14.6677 9.18119Z" fill="#72C1E8"/>
</svg>
