<svg width="24" height="25" viewBox="0 0 24 25" fill="none" xmlns="http://www.w3.org/2000/svg">
<path d="M15.726 5.95251L11.976 9.77151L10.6635 8.43501L12.1635 6.90801H12C10.437 6.90801 9.10901 7.46851 8.01601 8.58951C6.92101 9.71151 6.37401 11.076 6.37501 12.683C6.37175 13.5113 6.5645 14.3285 6.93751 15.068L5.53201 16.5005C5.19666 15.9169 4.93652 15.2918 4.75801 14.6405C4.58571 14.0023 4.49893 13.3434 4.50001 12.6815C4.50001 10.5505 5.22651 8.73701 6.67951 7.24101C8.13251 5.74501 9.90601 4.99751 12 4.99851H12.165L10.665 3.47151L11.976 2.13501L15.726 5.95251ZM8.27401 19.073L12.024 15.254L13.3365 16.5905L11.8365 18.1175H12C13.563 18.1175 14.891 17.5575 15.984 16.4375C17.079 15.3145 17.626 13.9495 17.625 12.3425C17.6283 11.5143 17.4355 10.697 17.0625 9.95751L18.4695 8.52501C18.8125 9.12901 19.07 9.74901 19.242 10.385C19.414 11.023 19.5 11.6755 19.5 12.3425C19.5 14.4735 18.7735 16.2875 17.3205 17.7845C15.8675 19.2795 14.094 20.027 12 20.027H11.835L13.335 21.554L12.024 22.8905L8.27401 19.073Z" fill="#8BC34A"/>
</svg>
