<svg width="32" height="32" viewBox="0 0 32 32" fill="none" xmlns="http://www.w3.org/2000/svg">
<path d="M16 17.8528L2.27151 31.5813C2.02726 31.8255 1.72718 31.9564 1.37128 31.9738C1.01537 31.9913 0.697851 31.8604 0.418711 31.5813C0.13957 31.3021 0 30.9933 0 30.6549C0 30.3164 0.13957 30.0076 0.418711 29.7285L14.1472 16L0.418711 2.27151C0.174463 2.02726 0.0436151 1.72718 0.0261688 1.37128C0.0087225 1.01537 0.13957 0.697851 0.418711 0.418711C0.697851 0.13957 1.00665 0 1.34511 0C1.68357 0 1.99237 0.13957 2.27151 0.418711L16 14.1472L29.7285 0.418711C29.9727 0.174463 30.2737 0.0436151 30.6313 0.0261688C30.9855 0.0087225 31.3021 0.13957 31.5813 0.418711C31.8604 0.697851 32 1.00665 32 1.34511C32 1.68357 31.8604 1.99237 31.5813 2.27151L17.8528 16L31.5813 29.7285C31.8255 29.9727 31.9564 30.2737 31.9738 30.6313C31.9913 30.9855 31.8604 31.3021 31.5813 31.5813C31.3021 31.8604 30.9933 32 30.6549 32C30.3164 32 30.0076 31.8604 29.7285 31.5813L16 17.8528Z" fill="#1F1D1D"/>
</svg>
