<svg id="youtube-classic" width="33" height="32" viewBox="0 0 33 32" fill="none" xmlns="http://www.w3.org/2000/svg">
<path fill-rule="evenodd" clip-rule="evenodd" d="M16.4998 5.33331C17.6398 5.33331 18.8092 5.36265 19.9425 5.41065L21.2812 5.47465L22.5625 5.55065L23.7625 5.63198L24.8585 5.71731C26.0481 5.80783 27.1676 6.31523 28.0198 7.15012C28.872 7.98501 29.4023 9.09384 29.5172 10.2813L29.5705 10.848L29.6705 12.0613C29.7638 13.3186 29.8332 14.6893 29.8332 16C29.8332 17.3106 29.7638 18.6813 29.6705 19.9386L29.5705 21.152L29.5172 21.7186C29.4022 22.9063 28.8718 24.0153 28.0193 24.8502C27.1668 25.6852 26.047 26.1924 24.8572 26.2826L23.7638 26.3666L22.5638 26.4493L21.2812 26.5253L19.9425 26.5893C18.7956 26.639 17.6478 26.6648 16.4998 26.6666C15.3519 26.6648 14.2041 26.639 13.0572 26.5893L11.7185 26.5253L10.4372 26.4493L9.23717 26.3666L8.14117 26.2826C6.95159 26.1921 5.8321 25.6847 4.9799 24.8498C4.12769 24.015 3.59742 22.9061 3.4825 21.7186L3.42917 21.152L3.32917 19.9386C3.22761 18.6281 3.17336 17.3144 3.1665 16C3.1665 14.6893 3.23584 13.3186 3.32917 12.0613L3.42917 10.848L3.4825 10.2813C3.59738 9.09405 4.12745 7.98538 4.97939 7.15052C5.83132 6.31566 6.95049 5.80813 8.13984 5.71731L9.2345 5.63198L10.4345 5.55065L11.7172 5.47465L13.0558 5.41065C14.2032 5.36095 15.3514 5.33517 16.4998 5.33331ZM13.8332 12.7666V19.2333C13.8332 19.8493 14.4998 20.2333 15.0332 19.9266L20.6332 16.6933C20.755 16.6232 20.8562 16.5221 20.9266 16.4004C20.997 16.2787 21.0341 16.1406 21.0341 16C21.0341 15.8594 20.997 15.7213 20.9266 15.5995C20.8562 15.4778 20.755 15.3768 20.6332 15.3066L15.0332 12.0746C14.9115 12.0044 14.7735 11.9674 14.633 11.9675C14.4926 11.9675 14.3546 12.0045 14.2329 12.0748C14.1113 12.145 14.0103 12.2461 13.9402 12.3678C13.87 12.4895 13.8331 12.6275 13.8332 12.768V12.7666Z" fill="#F24822"/>
</svg>
