<svg class="youtube-footer" width="32" height="32" viewBox="0 0 32 32" fill="none" xmlns="http://www.w3.org/2000/svg">
<path fill-rule="evenodd" clip-rule="evenodd" d="M16.0003 5.53333C14.4123 5.53333 12.5603 5.57066 10.755 5.62133L10.6817 5.62399C8.84432 5.67599 7.36166 5.71733 6.19366 5.91066C4.97633 6.11199 3.96566 6.49732 3.15766 7.32799C2.34699 8.16132 1.99366 9.19199 1.82699 10.4253C1.66699 11.612 1.66699 13.116 1.66699 14.9853V17.0173C1.66699 18.884 1.66699 20.388 1.82699 21.576C1.99233 22.8093 2.34699 23.84 3.15766 24.6733C3.96566 25.5053 4.97633 25.8893 6.19366 26.0907C7.36166 26.284 8.84432 26.3253 10.6817 26.3773L10.755 26.38C12.5617 26.4307 14.4123 26.468 16.0003 26.468C17.5883 26.468 19.4403 26.4307 21.2457 26.38L21.319 26.3773C23.1563 26.3253 24.639 26.284 25.807 26.0907C27.0243 25.8893 28.035 25.504 28.843 24.6733C29.6537 23.84 30.0083 22.8093 30.1737 21.576C30.3337 20.3893 30.3337 18.8853 30.3337 17.016V14.984C30.3337 13.116 30.3337 11.612 30.1737 10.4253C30.0083 9.19199 29.6537 8.16132 28.843 7.32799C28.035 6.49599 27.0243 6.11199 25.807 5.91066C24.639 5.71733 23.1563 5.67599 21.3177 5.62399L21.2457 5.62133C19.4977 5.56827 17.7491 5.53893 16.0003 5.53333ZM14.4963 19.5347C14.3443 19.6215 14.1721 19.6669 13.9969 19.6663C13.8218 19.6657 13.6499 19.6192 13.4985 19.5313C13.347 19.4434 13.2213 19.3173 13.1338 19.1655C13.0464 19.0138 13.0004 18.8418 13.0003 18.6667V13.3333C13.0004 13.1582 13.0464 12.9862 13.1338 12.8344C13.2213 12.6827 13.347 12.5566 13.4985 12.4687C13.6499 12.3808 13.8218 12.3342 13.9969 12.3337C14.1721 12.3331 14.3443 12.3785 14.4963 12.4653L19.163 15.132C19.3159 15.2195 19.4431 15.3458 19.5315 15.4983C19.6199 15.6507 19.6664 15.8238 19.6664 16C19.6664 16.1762 19.6199 16.3493 19.5315 16.5017C19.4431 16.6541 19.3159 16.7805 19.163 16.868L14.4963 19.5347Z" fill="#24274B"/>
</svg>
